<svg xmlns="http://www.w3.org/2000/svg" xmlns:xlink="http://www.w3.org/1999/xlink" width="260" zoomAndPan="magnify" viewBox="0 0 194.87999 30.000001" height="40" preserveAspectRatio="xMidYMid meet" version="1.0"><defs><g/><clipPath id="id1"><path d="M 83.203125 4.621094 L 96.269531 4.621094 L 96.269531 21.3125 L 83.203125 21.3125 Z M 83.203125 4.621094 " clip-rule="nonzero"/></clipPath></defs><g clip-path="url(#id1)"><path fill="#dc661f" d="M 95.253906 10.828125 C 95.265625 10.847656 95.261719 10.859375 95.242188 10.867188 C 95.238281 10.871094 95.234375 10.871094 95.230469 10.871094 C 95.21875 10.871094 95.207031 10.867188 95.203125 10.855469 C 95.199219 10.851562 94.90625 10.328125 94.308594 10.128906 L 94.996094 10.84375 C 95.003906 10.855469 95.003906 10.863281 95 10.875 C 94.996094 10.886719 94.984375 10.894531 94.972656 10.894531 C 94.964844 10.894531 94.957031 10.890625 94.953125 10.882812 L 94.199219 10.097656 C 94.101562 10.074219 94.003906 10.058594 93.902344 10.054688 L 94.65625 10.84375 C 94.667969 10.855469 94.667969 10.863281 94.664062 10.875 C 94.660156 10.886719 94.648438 10.894531 94.636719 10.894531 C 94.628906 10.894531 94.621094 10.890625 94.613281 10.882812 L 93.820312 10.054688 C 93.792969 10.054688 93.769531 10.054688 93.746094 10.058594 C 93.691406 10.058594 93.636719 10.066406 93.582031 10.074219 L 94.320312 10.84375 C 94.335938 10.855469 94.335938 10.871094 94.320312 10.882812 C 94.316406 10.890625 94.308594 10.890625 94.300781 10.890625 C 94.292969 10.890625 94.285156 10.890625 94.277344 10.882812 L 93.511719 10.085938 C 93.441406 10.097656 93.371094 10.113281 93.300781 10.132812 L 93.984375 10.847656 C 93.996094 10.859375 93.996094 10.875 93.984375 10.886719 C 93.976562 10.890625 93.972656 10.894531 93.964844 10.894531 C 93.953125 10.894531 93.949219 10.890625 93.941406 10.886719 L 93.238281 10.152344 C 93.171875 10.171875 93.109375 10.195312 93.046875 10.21875 L 93.648438 10.847656 C 93.660156 10.859375 93.660156 10.875 93.648438 10.886719 C 93.640625 10.890625 93.636719 10.894531 93.628906 10.894531 C 93.617188 10.894531 93.613281 10.890625 93.605469 10.886719 L 92.988281 10.242188 C 92.929688 10.269531 92.867188 10.292969 92.8125 10.324219 L 93.3125 10.847656 C 93.324219 10.859375 93.324219 10.875 93.3125 10.886719 C 93.304688 10.890625 93.300781 10.894531 93.292969 10.894531 C 93.285156 10.894531 93.277344 10.890625 93.269531 10.886719 L 92.757812 10.351562 C 92.699219 10.378906 92.640625 10.410156 92.589844 10.441406 L 92.976562 10.84375 C 92.988281 10.859375 92.988281 10.871094 92.976562 10.886719 C 92.96875 10.890625 92.964844 10.894531 92.957031 10.894531 C 92.949219 10.894531 92.941406 10.890625 92.933594 10.886719 L 92.535156 10.472656 C 92.480469 10.503906 92.425781 10.539062 92.375 10.574219 L 92.636719 10.84375 C 92.652344 10.859375 92.652344 10.871094 92.636719 10.886719 C 92.632812 10.890625 92.625 10.894531 92.617188 10.894531 C 92.609375 10.894531 92.601562 10.890625 92.597656 10.882812 L 92.332031 10.605469 C 92.273438 10.644531 92.222656 10.683594 92.179688 10.714844 L 92.304688 10.84375 C 92.316406 10.859375 92.316406 10.871094 92.304688 10.886719 C 92.296875 10.890625 92.292969 10.894531 92.285156 10.894531 C 92.277344 10.894531 92.269531 10.890625 92.261719 10.882812 L 92.136719 10.753906 C 92.066406 10.804688 92.023438 10.847656 92.003906 10.863281 C 92 10.867188 91.992188 10.871094 91.984375 10.871094 C 91.972656 10.871094 91.964844 10.867188 91.960938 10.863281 C 91.921875 10.824219 91.875 10.789062 91.832031 10.753906 L 91.703125 10.886719 C 91.695312 10.890625 91.691406 10.894531 91.679688 10.894531 C 91.671875 10.894531 91.667969 10.890625 91.660156 10.886719 C 91.648438 10.871094 91.648438 10.859375 91.660156 10.84375 L 91.785156 10.714844 C 91.738281 10.679688 91.6875 10.640625 91.636719 10.605469 L 91.367188 10.886719 C 91.363281 10.890625 91.355469 10.894531 91.347656 10.894531 C 91.339844 10.894531 91.332031 10.890625 91.324219 10.886719 C 91.3125 10.875 91.3125 10.859375 91.324219 10.847656 L 91.589844 10.574219 C 91.535156 10.539062 91.484375 10.503906 91.429688 10.472656 L 91.023438 10.882812 C 91.015625 10.890625 91.007812 10.894531 91 10.894531 C 90.992188 10.894531 90.988281 10.890625 90.980469 10.886719 C 90.96875 10.871094 90.96875 10.859375 90.980469 10.84375 L 91.367188 10.441406 C 91.3125 10.410156 91.257812 10.378906 91.199219 10.351562 L 90.6875 10.886719 C 90.679688 10.890625 90.675781 10.894531 90.664062 10.894531 C 90.65625 10.894531 90.652344 10.890625 90.644531 10.886719 C 90.632812 10.871094 90.632812 10.859375 90.644531 10.84375 L 91.144531 10.324219 C 91.085938 10.292969 91.027344 10.265625 90.96875 10.242188 L 90.347656 10.882812 C 90.34375 10.890625 90.335938 10.894531 90.328125 10.894531 C 90.3125 10.894531 90.304688 10.886719 90.300781 10.875 C 90.296875 10.863281 90.296875 10.855469 90.304688 10.84375 L 90.90625 10.21875 C 90.84375 10.195312 90.777344 10.171875 90.714844 10.152344 L 90.011719 10.886719 C 90.003906 10.890625 89.996094 10.894531 89.988281 10.894531 C 89.976562 10.894531 89.96875 10.886719 89.960938 10.875 C 89.957031 10.863281 89.957031 10.855469 89.96875 10.84375 L 90.648438 10.132812 C 90.578125 10.113281 90.507812 10.097656 90.4375 10.085938 L 89.675781 10.882812 C 89.667969 10.890625 89.660156 10.894531 89.652344 10.894531 C 89.640625 10.894531 89.632812 10.886719 89.625 10.875 C 89.621094 10.863281 89.625 10.855469 89.632812 10.84375 L 90.371094 10.074219 C 90.316406 10.066406 90.261719 10.058594 90.207031 10.058594 C 90.183594 10.058594 90.15625 10.058594 90.132812 10.054688 L 89.339844 10.882812 C 89.332031 10.890625 89.324219 10.894531 89.316406 10.894531 C 89.304688 10.894531 89.292969 10.886719 89.289062 10.875 C 89.285156 10.863281 89.285156 10.855469 89.296875 10.84375 L 90.050781 10.054688 C 89.949219 10.058594 89.851562 10.074219 89.753906 10.097656 L 89 10.882812 C 88.996094 10.890625 88.988281 10.894531 88.980469 10.894531 C 88.972656 10.894531 88.964844 10.890625 88.960938 10.886719 C 88.945312 10.871094 88.945312 10.859375 88.960938 10.84375 L 89.644531 10.128906 C 89.046875 10.328125 88.753906 10.851562 88.75 10.855469 C 88.746094 10.867188 88.738281 10.871094 88.726562 10.871094 C 88.71875 10.871094 88.714844 10.871094 88.710938 10.867188 C 88.695312 10.859375 88.691406 10.847656 88.699219 10.828125 C 88.703125 10.820312 89.195312 9.941406 90.214844 10 C 90.472656 10.019531 90.726562 10.078125 90.964844 10.179688 L 90.972656 10.179688 C 91.34375 10.335938 91.679688 10.542969 91.976562 10.804688 C 92.28125 10.546875 92.613281 10.335938 92.984375 10.179688 L 92.988281 10.179688 C 93.230469 10.082031 93.480469 10.019531 93.742188 10 C 94.757812 9.9375 95.25 10.820312 95.253906 10.828125 Z M 93.023438 9.082031 C 92.511719 9.410156 92.152344 9.992188 91.976562 10.457031 C 91.859375 10.152344 91.699219 9.875 91.5 9.617188 L 91.488281 9.605469 C 91.332031 9.398438 91.148438 9.226562 90.929688 9.082031 C 90.082031 8.53125 89.207031 9.054688 89.195312 9.058594 C 89.183594 9.070312 89.179688 9.082031 89.1875 9.097656 C 89.199219 9.113281 89.210938 9.117188 89.226562 9.109375 C 89.234375 9.105469 89.753906 8.796875 90.371094 8.917969 L 89.414062 9.199219 C 89.398438 9.203125 89.390625 9.214844 89.394531 9.230469 C 89.394531 9.25 89.40625 9.257812 89.421875 9.257812 C 89.425781 9.257812 89.429688 9.257812 89.433594 9.257812 L 90.484375 8.945312 C 90.582031 8.972656 90.675781 9.007812 90.761719 9.054688 L 89.707031 9.367188 C 89.6875 9.375 89.679688 9.386719 89.6875 9.40625 C 89.691406 9.417969 89.699219 9.425781 89.714844 9.425781 C 89.71875 9.425781 89.71875 9.425781 89.722656 9.425781 L 90.835938 9.09375 C 90.855469 9.105469 90.878906 9.117188 90.898438 9.132812 C 90.945312 9.160156 90.988281 9.191406 91.03125 9.226562 L 89.996094 9.53125 C 89.980469 9.535156 89.972656 9.546875 89.976562 9.5625 C 89.980469 9.582031 89.988281 9.589844 90.007812 9.589844 C 90.007812 9.589844 90.011719 9.589844 90.015625 9.589844 L 91.085938 9.269531 C 91.140625 9.316406 91.191406 9.367188 91.242188 9.414062 L 90.289062 9.695312 C 90.273438 9.699219 90.265625 9.710938 90.269531 9.726562 C 90.269531 9.742188 90.28125 9.753906 90.296875 9.753906 C 90.300781 9.753906 90.304688 9.753906 90.304688 9.753906 L 91.289062 9.460938 C 91.332031 9.511719 91.378906 9.5625 91.421875 9.613281 L 90.582031 9.863281 C 90.5625 9.867188 90.554688 9.878906 90.5625 9.898438 C 90.566406 9.910156 90.574219 9.917969 90.589844 9.917969 C 90.59375 9.917969 90.59375 9.917969 90.597656 9.917969 L 91.460938 9.664062 C 91.5 9.714844 91.535156 9.769531 91.574219 9.820312 L 90.875 10.027344 C 90.855469 10.035156 90.847656 10.042969 90.851562 10.0625 C 90.855469 10.078125 90.863281 10.085938 90.882812 10.085938 C 90.882812 10.085938 90.886719 10.085938 90.890625 10.085938 L 91.605469 9.875 C 91.640625 9.925781 91.675781 9.980469 91.707031 10.035156 L 91.164062 10.195312 C 91.148438 10.199219 91.140625 10.210938 91.144531 10.226562 C 91.144531 10.242188 91.15625 10.253906 91.171875 10.253906 C 91.175781 10.253906 91.179688 10.253906 91.183594 10.253906 L 91.734375 10.089844 C 91.765625 10.144531 91.792969 10.199219 91.820312 10.253906 L 91.457031 10.363281 C 91.441406 10.367188 91.433594 10.378906 91.4375 10.394531 C 91.4375 10.410156 91.449219 10.417969 91.464844 10.417969 C 91.46875 10.417969 91.472656 10.417969 91.472656 10.417969 L 91.847656 10.308594 C 91.871094 10.367188 91.898438 10.421875 91.917969 10.476562 L 91.75 10.519531 C 91.734375 10.523438 91.726562 10.535156 91.726562 10.554688 C 91.730469 10.570312 91.742188 10.578125 91.757812 10.578125 C 91.761719 10.578125 91.761719 10.578125 91.765625 10.578125 L 91.941406 10.527344 C 91.941406 10.535156 91.945312 10.542969 91.949219 10.550781 C 91.953125 10.558594 91.957031 10.5625 91.96875 10.566406 C 91.972656 10.566406 91.972656 10.566406 91.976562 10.566406 C 91.992188 10.566406 92 10.558594 92.003906 10.546875 C 92.007812 10.539062 92.011719 10.53125 92.011719 10.523438 L 92.1875 10.574219 C 92.191406 10.574219 92.191406 10.574219 92.195312 10.574219 C 92.214844 10.574219 92.222656 10.566406 92.226562 10.550781 C 92.226562 10.535156 92.222656 10.523438 92.203125 10.519531 L 92.035156 10.46875 C 92.054688 10.414062 92.078125 10.355469 92.105469 10.296875 L 92.480469 10.410156 C 92.484375 10.410156 92.484375 10.410156 92.488281 10.410156 C 92.503906 10.410156 92.511719 10.402344 92.515625 10.386719 C 92.523438 10.367188 92.515625 10.355469 92.496094 10.351562 L 92.132812 10.242188 C 92.15625 10.1875 92.183594 10.132812 92.214844 10.074219 L 92.773438 10.238281 C 92.773438 10.238281 92.777344 10.238281 92.78125 10.238281 C 92.796875 10.238281 92.808594 10.230469 92.808594 10.214844 C 92.8125 10.199219 92.804688 10.1875 92.789062 10.183594 L 92.246094 10.023438 C 92.277344 9.96875 92.308594 9.910156 92.34375 9.859375 L 93.0625 10.074219 C 93.066406 10.074219 93.070312 10.074219 93.074219 10.074219 C 93.089844 10.074219 93.097656 10.066406 93.101562 10.046875 C 93.105469 10.03125 93.097656 10.019531 93.082031 10.015625 L 92.378906 9.808594 C 92.414062 9.753906 92.453125 9.703125 92.492188 9.652344 L 93.351562 9.90625 C 93.355469 9.910156 93.359375 9.910156 93.363281 9.90625 C 93.375 9.90625 93.386719 9.902344 93.390625 9.886719 C 93.394531 9.867188 93.390625 9.855469 93.371094 9.851562 L 92.527344 9.601562 C 92.570312 9.550781 92.617188 9.5 92.664062 9.449219 L 93.644531 9.742188 C 93.648438 9.742188 93.652344 9.742188 93.652344 9.742188 C 93.671875 9.742188 93.679688 9.734375 93.683594 9.714844 C 93.6875 9.699219 93.679688 9.6875 93.664062 9.683594 L 92.707031 9.402344 C 92.757812 9.351562 92.8125 9.304688 92.867188 9.257812 L 93.9375 9.574219 C 93.941406 9.574219 93.941406 9.574219 93.945312 9.574219 C 93.960938 9.574219 93.96875 9.566406 93.972656 9.554688 C 93.980469 9.535156 93.972656 9.523438 93.953125 9.515625 L 92.921875 9.210938 C 92.964844 9.179688 93.007812 9.148438 93.054688 9.117188 C 93.074219 9.105469 93.097656 9.089844 93.117188 9.082031 L 94.230469 9.410156 C 94.230469 9.410156 94.234375 9.410156 94.238281 9.410156 C 94.253906 9.410156 94.265625 9.402344 94.265625 9.386719 C 94.269531 9.371094 94.261719 9.359375 94.246094 9.355469 L 93.1875 9.042969 C 93.277344 8.996094 93.371094 8.957031 93.46875 8.929688 L 94.519531 9.242188 C 94.523438 9.242188 94.527344 9.242188 94.527344 9.242188 C 94.546875 9.242188 94.554688 9.234375 94.558594 9.21875 C 94.5625 9.203125 94.554688 9.191406 94.539062 9.1875 L 93.578125 8.902344 C 94.199219 8.78125 94.71875 9.089844 94.722656 9.09375 C 94.742188 9.105469 94.753906 9.101562 94.765625 9.085938 C 94.773438 9.070312 94.773438 9.054688 94.753906 9.046875 C 94.746094 9.054688 93.871094 8.53125 93.023438 9.082031 Z M 90.953125 15.175781 L 90.953125 14.367188 C 90.953125 14.257812 90.992188 14.164062 91.074219 14.085938 C 91.152344 14.007812 91.25 13.96875 91.363281 13.96875 C 91.472656 13.96875 91.570312 14.007812 91.648438 14.085938 C 91.730469 14.164062 91.769531 14.257812 91.769531 14.367188 L 91.769531 15.175781 C 91.769531 15.195312 91.757812 15.203125 91.738281 15.203125 L 90.984375 15.203125 C 90.964844 15.203125 90.953125 15.195312 90.953125 15.175781 Z M 91.011719 15.148438 L 91.710938 15.148438 L 91.710938 14.367188 C 91.710938 14.273438 91.675781 14.191406 91.609375 14.125 C 91.539062 14.058594 91.457031 14.027344 91.363281 14.027344 C 91.265625 14.027344 91.183594 14.058594 91.113281 14.125 C 91.046875 14.191406 91.011719 14.273438 91.011719 14.367188 Z M 89.636719 15.175781 L 89.636719 14.367188 C 89.636719 14.257812 89.675781 14.164062 89.753906 14.085938 C 89.835938 14.007812 89.929688 13.96875 90.042969 13.96875 C 90.15625 13.96875 90.25 14.007812 90.332031 14.085938 C 90.410156 14.164062 90.449219 14.257812 90.449219 14.367188 L 90.449219 15.175781 C 90.449219 15.195312 90.441406 15.203125 90.421875 15.203125 L 89.664062 15.203125 C 89.644531 15.203125 89.636719 15.195312 89.636719 15.175781 Z M 89.695312 15.148438 L 90.390625 15.148438 L 90.390625 14.367188 C 90.390625 14.273438 90.355469 14.191406 90.289062 14.125 C 90.222656 14.058594 90.140625 14.027344 90.042969 14.027344 C 89.945312 14.027344 89.863281 14.058594 89.796875 14.125 C 89.730469 14.191406 89.695312 14.273438 89.695312 14.367188 Z M 88.316406 15.175781 L 88.316406 14.367188 C 88.316406 14.257812 88.355469 14.164062 88.4375 14.085938 C 88.515625 14.007812 88.613281 13.96875 88.722656 13.96875 C 88.835938 13.96875 88.933594 14.007812 89.011719 14.085938 C 89.089844 14.164062 89.132812 14.257812 89.132812 14.367188 L 89.132812 15.175781 C 89.132812 15.195312 89.121094 15.203125 89.101562 15.203125 L 88.347656 15.203125 C 88.328125 15.203125 88.316406 15.195312 88.316406 15.175781 Z M 88.375 15.148438 L 89.074219 15.148438 L 89.074219 14.367188 C 89.070312 14.273438 89.035156 14.195312 88.964844 14.132812 C 88.898438 14.070312 88.816406 14.035156 88.722656 14.035156 C 88.628906 14.035156 88.550781 14.070312 88.480469 14.132812 C 88.414062 14.195312 88.378906 14.273438 88.375 14.367188 Z M 87.941406 9.757812 C 87.941406 9.914062 87.914062 10.0625 87.851562 10.207031 C 87.789062 10.351562 87.703125 10.476562 87.589844 10.589844 C 87.476562 10.699219 87.347656 10.785156 87.199219 10.84375 C 87.054688 10.902344 86.902344 10.933594 86.742188 10.933594 C 86.582031 10.933594 86.429688 10.902344 86.28125 10.84375 C 86.132812 10.785156 86.003906 10.699219 85.890625 10.589844 C 85.777344 10.476562 85.691406 10.351562 85.628906 10.207031 C 85.570312 10.0625 85.539062 9.914062 85.539062 9.757812 C 85.539062 9.601562 85.570312 9.449219 85.628906 9.304688 C 85.691406 9.160156 85.777344 9.035156 85.890625 8.921875 C 86.003906 8.8125 86.132812 8.726562 86.28125 8.667969 C 86.429688 8.609375 86.582031 8.578125 86.742188 8.578125 C 86.898438 8.578125 87.054688 8.609375 87.199219 8.667969 C 87.347656 8.726562 87.476562 8.8125 87.589844 8.921875 C 87.703125 9.035156 87.789062 9.160156 87.851562 9.304688 C 87.910156 9.449219 87.941406 9.601562 87.941406 9.757812 Z M 87.882812 9.757812 C 87.882812 9.609375 87.855469 9.464844 87.796875 9.328125 C 87.738281 9.191406 87.65625 9.070312 87.550781 8.964844 C 87.441406 8.859375 87.320312 8.777344 87.179688 8.722656 C 87.039062 8.664062 86.894531 8.636719 86.742188 8.636719 C 86.589844 8.636719 86.445312 8.664062 86.304688 8.722656 C 86.164062 8.777344 86.039062 8.859375 85.933594 8.964844 C 85.824219 9.070312 85.742188 9.191406 85.683594 9.328125 C 85.628906 9.464844 85.597656 9.609375 85.597656 9.757812 C 85.597656 9.90625 85.628906 10.046875 85.683594 10.183594 C 85.742188 10.320312 85.824219 10.441406 85.933594 10.546875 C 86.039062 10.652344 86.164062 10.734375 86.304688 10.789062 C 86.445312 10.847656 86.589844 10.875 86.742188 10.875 C 86.894531 10.875 87.039062 10.847656 87.179688 10.789062 C 87.316406 10.734375 87.441406 10.652344 87.550781 10.546875 C 87.65625 10.441406 87.738281 10.320312 87.796875 10.183594 C 87.855469 10.046875 87.882812 9.90625 87.882812 9.757812 Z M 96.261719 11.011719 L 96.261719 21.277344 C 96.261719 21.300781 96.25 21.3125 96.222656 21.3125 L 83.25 21.3125 C 83.226562 21.3125 83.214844 21.300781 83.214844 21.277344 L 83.214844 11.011719 C 83.214844 7.488281 86.140625 4.621094 89.738281 4.621094 C 93.335938 4.621094 96.261719 7.488281 96.261719 11.011719 Z M 96.1875 11.011719 C 96.183594 7.527344 93.292969 4.691406 89.738281 4.691406 C 86.179688 4.691406 83.289062 7.527344 83.289062 11.011719 L 83.289062 21.238281 L 96.183594 21.238281 Z M 95.816406 11.011719 L 95.816406 20.839844 C 95.816406 20.863281 95.800781 20.875 95.777344 20.875 L 83.699219 20.875 C 83.671875 20.875 83.660156 20.863281 83.660156 20.839844 L 83.660156 18.945312 L 83.648438 18.945312 C 83.628906 18.945312 83.621094 18.9375 83.621094 18.917969 L 83.621094 18.234375 C 83.621094 18.214844 83.628906 18.207031 83.648438 18.207031 L 83.660156 18.207031 L 83.660156 11.011719 C 83.660156 7.730469 86.386719 5.058594 89.738281 5.058594 C 93.089844 5.058594 95.8125 7.730469 95.8125 11.011719 Z M 93.679688 17.46875 C 93.890625 17.53125 94.101562 17.597656 94.308594 17.679688 C 94.363281 16.125 94.144531 13.304688 92.144531 11.246094 C 92.449219 11.714844 92.707031 12.207031 92.914062 12.71875 C 93.335938 13.742188 93.808594 15.390625 93.683594 17.472656 Z M 92.003906 11.027344 C 92.054688 11.074219 92.105469 11.125 92.15625 11.171875 L 92.117188 11.007812 C 92.074219 11.015625 92.035156 11.023438 92.007812 11.027344 Z M 92.433594 17.246094 L 92.433594 18.882812 L 95.738281 18.882812 L 95.738281 18.460938 C 94.703125 17.785156 93.519531 17.429688 92.433594 17.25 Z M 92.375 13.492188 L 87.539062 13.492188 L 87.539062 15.507812 C 87.539062 15.527344 87.53125 15.535156 87.511719 15.535156 L 86.808594 15.535156 L 86.808594 16.1875 C 86.808594 16.207031 86.796875 16.21875 86.777344 16.21875 L 86.027344 16.21875 L 86.027344 16.875 C 86.027344 16.894531 86.015625 16.902344 85.996094 16.902344 L 85.242188 16.902344 L 85.242188 17.554688 C 85.242188 17.574219 85.234375 17.585938 85.214844 17.585938 L 84.460938 17.585938 L 84.460938 18.238281 C 84.460938 18.253906 84.449219 18.265625 84.429688 18.265625 L 83.738281 18.265625 L 83.738281 18.890625 L 87.292969 18.890625 C 87.117188 18.734375 86.890625 18.636719 86.613281 18.597656 C 86.1875 18.535156 85.789062 18.632812 85.636719 18.675781 C 85.621094 18.679688 85.605469 18.675781 85.601562 18.65625 C 85.59375 18.636719 85.601562 18.625 85.621094 18.621094 C 85.777344 18.574219 86.183594 18.476562 86.617188 18.539062 C 86.761719 18.558594 86.894531 18.59375 87.027344 18.652344 C 86.667969 18.394531 86.210938 18.234375 85.835938 18.316406 C 85.820312 18.320312 85.808594 18.3125 85.800781 18.292969 C 85.796875 18.273438 85.804688 18.261719 85.824219 18.257812 C 86.191406 18.179688 86.742188 18.335938 87.15625 18.667969 C 86.769531 18.230469 86.339844 17.992188 86.0625 17.980469 C 86.042969 17.980469 86.035156 17.972656 86.035156 17.953125 C 86.035156 17.933594 86.042969 17.921875 86.0625 17.921875 C 86.5 17.9375 86.980469 18.363281 87.300781 18.761719 C 87.0625 18.34375 86.679688 17.792969 86.3125 17.660156 C 86.296875 17.652344 86.292969 17.640625 86.296875 17.621094 C 86.304688 17.605469 86.316406 17.601562 86.335938 17.605469 C 86.554688 17.683594 86.800781 17.910156 87.066406 18.28125 C 87.179688 18.4375 87.28125 18.601562 87.375 18.769531 C 87.210938 18.300781 86.898438 17.527344 86.59375 17.355469 C 86.574219 17.347656 86.570312 17.335938 86.582031 17.316406 C 86.589844 17.300781 86.605469 17.296875 86.621094 17.304688 C 86.925781 17.476562 87.226562 18.179688 87.398438 18.660156 C 87.285156 18.128906 87.082031 17.3125 86.882812 17.074219 C 86.871094 17.0625 86.871094 17.046875 86.886719 17.035156 C 86.902344 17.023438 86.914062 17.023438 86.925781 17.039062 C 87.136719 17.285156 87.339844 18.09375 87.453125 18.628906 C 87.402344 18.039062 87.304688 17.097656 87.183594 16.828125 C 87.179688 16.808594 87.183594 16.796875 87.203125 16.789062 C 87.21875 16.785156 87.230469 16.789062 87.238281 16.804688 C 87.347656 17.054688 87.4375 17.832031 87.492188 18.417969 L 87.492188 16.617188 C 87.492188 16.59375 87.5 16.585938 87.523438 16.585938 C 87.546875 16.585938 87.554688 16.59375 87.550781 16.617188 L 87.550781 18.417969 C 87.609375 17.832031 87.699219 17.058594 87.808594 16.808594 C 87.816406 16.789062 87.828125 16.785156 87.84375 16.792969 C 87.863281 16.800781 87.867188 16.8125 87.859375 16.828125 C 87.742188 17.101562 87.644531 18.042969 87.589844 18.632812 C 87.683594 18.207031 87.832031 17.605469 87.992188 17.253906 C 88 17.234375 88.007812 17.21875 88.015625 17.203125 C 88.042969 17.144531 88.078125 17.089844 88.117188 17.039062 C 88.132812 17.027344 88.144531 17.023438 88.160156 17.035156 C 88.175781 17.050781 88.175781 17.0625 88.164062 17.078125 C 88.136719 17.113281 88.109375 17.152344 88.089844 17.191406 C 88.078125 17.210938 88.066406 17.234375 88.054688 17.253906 C 88.054688 17.257812 88.054688 17.261719 88.050781 17.265625 C 88.03125 17.308594 88.011719 17.355469 87.992188 17.402344 C 87.855469 17.757812 87.726562 18.285156 87.644531 18.660156 C 87.742188 18.386719 87.859375 18.117188 87.992188 17.855469 C 88.011719 17.816406 88.03125 17.78125 88.050781 17.746094 C 88.167969 17.542969 88.296875 17.378906 88.425781 17.308594 C 88.441406 17.296875 88.453125 17.300781 88.464844 17.316406 C 88.472656 17.335938 88.46875 17.347656 88.453125 17.359375 C 88.316406 17.433594 88.179688 17.632812 88.050781 17.867188 C 88.03125 17.90625 88.011719 17.945312 87.992188 17.984375 C 87.871094 18.238281 87.761719 18.5 87.671875 18.769531 C 87.765625 18.601562 87.867188 18.4375 87.980469 18.28125 L 87.992188 18.261719 C 88.011719 18.234375 88.03125 18.207031 88.050781 18.183594 C 88.289062 17.871094 88.507812 17.675781 88.710938 17.605469 C 88.730469 17.597656 88.742188 17.601562 88.75 17.621094 C 88.757812 17.640625 88.75 17.652344 88.730469 17.660156 C 88.496094 17.742188 88.257812 18 88.050781 18.28125 C 88.03125 18.308594 88.011719 18.335938 87.992188 18.363281 C 87.898438 18.496094 87.816406 18.632812 87.742188 18.757812 C 87.820312 18.660156 87.90625 18.570312 87.992188 18.480469 C 88.011719 18.460938 88.03125 18.441406 88.050781 18.421875 C 88.335938 18.152344 88.667969 17.933594 88.980469 17.921875 C 89 17.921875 89.011719 17.933594 89.011719 17.953125 C 89.011719 17.96875 89 17.980469 88.980469 17.980469 C 88.742188 17.988281 88.390625 18.167969 88.050781 18.496094 C 88.03125 18.515625 88.011719 18.535156 87.992188 18.558594 C 87.957031 18.59375 87.921875 18.628906 87.890625 18.667969 C 87.921875 18.640625 87.957031 18.617188 87.992188 18.589844 C 88.011719 18.578125 88.027344 18.566406 88.050781 18.550781 C 88.4375 18.300781 88.898438 18.1875 89.222656 18.257812 C 89.242188 18.261719 89.25 18.273438 89.246094 18.292969 C 89.238281 18.3125 89.226562 18.320312 89.210938 18.316406 C 88.847656 18.234375 88.402344 18.386719 88.046875 18.628906 C 88.039062 18.636719 88.027344 18.644531 88.019531 18.652344 C 88.027344 18.648438 88.039062 18.640625 88.046875 18.636719 C 88.171875 18.589844 88.296875 18.554688 88.425781 18.539062 C 88.863281 18.476562 89.269531 18.574219 89.421875 18.621094 C 89.441406 18.625 89.449219 18.636719 89.445312 18.65625 C 89.4375 18.675781 89.425781 18.679688 89.40625 18.675781 C 88.988281 18.554688 88.464844 18.519531 88.046875 18.703125 C 88.027344 18.710938 88.007812 18.71875 87.988281 18.730469 C 87.902344 18.773438 87.824219 18.824219 87.753906 18.886719 L 90.1875 18.886719 L 90.1875 17.257812 C 90.1875 17.199219 90.195312 17.140625 90.210938 17.082031 C 90.214844 17.0625 90.21875 17.042969 90.226562 17.023438 C 90.28125 16.859375 90.382812 16.726562 90.527344 16.628906 C 90.675781 16.53125 90.835938 16.484375 91.011719 16.492188 C 91.191406 16.503906 91.34375 16.5625 91.480469 16.675781 C 91.617188 16.785156 91.703125 16.925781 91.742188 17.097656 C 91.746094 17.117188 91.75 17.136719 91.75 17.15625 C 91.757812 17.191406 91.757812 17.222656 91.757812 17.257812 L 91.757812 18.886719 L 92.367188 18.886719 L 92.367188 13.492188 Z M 91.707031 18.886719 L 91.707031 17.257812 C 91.707031 17.21875 91.707031 17.183594 91.699219 17.148438 C 91.695312 17.125 91.691406 17.105469 91.6875 17.085938 C 91.648438 16.933594 91.570312 16.808594 91.445312 16.707031 C 91.320312 16.605469 91.179688 16.554688 91.019531 16.546875 C 90.859375 16.535156 90.710938 16.578125 90.578125 16.664062 C 90.445312 16.753906 90.351562 16.871094 90.296875 17.019531 C 90.292969 17.039062 90.285156 17.054688 90.28125 17.078125 C 90.265625 17.136719 90.257812 17.195312 90.257812 17.253906 L 90.257812 18.882812 Z M 95.738281 18.945312 L 87.699219 18.945312 C 87.660156 18.984375 87.625 19.027344 87.59375 19.074219 L 87.585938 19.085938 C 87.574219 19.101562 87.5625 19.121094 87.554688 19.136719 L 87.527344 19.136719 C 87.515625 19.121094 87.503906 19.101562 87.492188 19.085938 L 87.484375 19.074219 C 87.453125 19.027344 87.417969 18.984375 87.378906 18.945312 L 83.738281 18.945312 L 83.738281 20.800781 L 95.738281 20.800781 Z M 95.738281 11.011719 C 95.738281 7.769531 93.046875 5.132812 89.738281 5.132812 C 86.425781 5.132812 83.738281 7.769531 83.738281 11.011719 L 83.738281 18.207031 L 84.402344 18.207031 L 84.402344 17.554688 C 84.402344 17.535156 84.414062 17.523438 84.433594 17.523438 L 85.183594 17.523438 L 85.183594 16.875 C 85.183594 16.855469 85.195312 16.84375 85.214844 16.84375 L 85.96875 16.84375 L 85.96875 16.191406 C 85.96875 16.171875 85.976562 16.160156 85.996094 16.160156 L 86.75 16.160156 L 86.75 15.507812 C 86.75 15.492188 86.757812 15.480469 86.777344 15.480469 L 87.480469 15.480469 L 87.480469 13.464844 C 87.480469 13.449219 87.492188 13.4375 87.511719 13.4375 L 92.40625 13.4375 C 92.425781 13.4375 92.433594 13.449219 92.433594 13.464844 L 92.433594 17.191406 C 92.835938 17.253906 93.234375 17.34375 93.625 17.453125 C 93.746094 15.394531 93.277344 13.757812 92.859375 12.746094 C 92.421875 11.679688 91.949219 11.070312 91.914062 11.023438 L 91.835938 11.007812 L 91.792969 11.183594 C 91.789062 11.199219 91.78125 11.207031 91.765625 11.207031 L 91.757812 11.207031 C 91.738281 11.203125 91.730469 11.191406 91.738281 11.171875 L 91.777344 11 C 91.722656 10.992188 91.660156 10.984375 91.589844 10.980469 L 91.5 11.351562 C 91.5 11.367188 91.488281 11.371094 91.472656 11.371094 L 91.464844 11.371094 C 91.449219 11.367188 91.441406 11.355469 91.445312 11.339844 L 91.53125 10.976562 C 91.472656 10.96875 91.410156 10.964844 91.34375 10.964844 L 91.210938 11.515625 C 91.207031 11.53125 91.195312 11.539062 91.179688 11.539062 L 91.175781 11.539062 C 91.15625 11.535156 91.148438 11.523438 91.152344 11.503906 L 91.28125 10.964844 C 91.21875 10.964844 91.15625 10.964844 91.089844 10.964844 L 90.917969 11.679688 C 90.914062 11.695312 90.90625 11.703125 90.890625 11.703125 L 90.882812 11.703125 C 90.863281 11.699219 90.855469 11.6875 90.859375 11.667969 L 91.027344 10.964844 C 90.964844 10.972656 90.898438 10.976562 90.832031 10.984375 L 90.625 11.84375 C 90.621094 11.859375 90.613281 11.867188 90.597656 11.867188 L 90.589844 11.867188 C 90.570312 11.863281 90.5625 11.851562 90.570312 11.832031 L 90.769531 10.996094 C 90.703125 11.003906 90.636719 11.015625 90.570312 11.03125 L 90.335938 12.011719 C 90.332031 12.027344 90.320312 12.03125 90.304688 12.035156 L 90.300781 12.035156 C 90.28125 12.027344 90.273438 12.015625 90.277344 12 L 90.503906 11.046875 C 90.433594 11.0625 90.367188 11.082031 90.296875 11.109375 L 90.042969 12.175781 C 90.039062 12.191406 90.027344 12.199219 90.011719 12.199219 L 90.007812 12.199219 C 89.988281 12.195312 89.980469 12.183594 89.984375 12.164062 L 90.230469 11.132812 C 90.179688 11.152344 90.132812 11.175781 90.082031 11.199219 C 90.058594 11.210938 90.035156 11.222656 90.015625 11.238281 L 89.75 12.34375 C 89.746094 12.359375 89.738281 12.367188 89.722656 12.367188 L 89.714844 12.367188 C 89.695312 12.363281 89.6875 12.351562 89.691406 12.332031 L 89.945312 11.277344 C 89.859375 11.332031 89.78125 11.390625 89.710938 11.460938 L 89.457031 12.507812 C 89.453125 12.523438 89.445312 12.53125 89.429688 12.53125 L 89.421875 12.53125 C 89.402344 12.527344 89.398438 12.515625 89.402344 12.496094 L 89.628906 11.542969 C 89.214844 12.007812 89.226562 12.601562 89.226562 12.609375 C 89.226562 12.628906 89.21875 12.640625 89.199219 12.640625 C 89.179688 12.640625 89.167969 12.632812 89.167969 12.613281 C 89.167969 12.601562 89.144531 11.597656 90.054688 11.152344 C 90.824219 10.773438 91.785156 10.941406 91.976562 10.980469 C 92.015625 10.972656 92.066406 10.964844 92.128906 10.957031 C 92.132812 10.957031 92.132812 10.957031 92.136719 10.957031 C 92.46875 10.90625 92.804688 10.898438 93.140625 10.9375 L 93.148438 10.9375 C 93.410156 10.96875 93.65625 11.039062 93.894531 11.152344 C 94.804688 11.601562 94.78125 12.601562 94.78125 12.613281 C 94.78125 12.632812 94.769531 12.640625 94.75 12.640625 C 94.730469 12.640625 94.722656 12.628906 94.722656 12.609375 C 94.722656 12.605469 94.738281 12.007812 94.320312 11.542969 L 94.550781 12.496094 C 94.554688 12.515625 94.546875 12.527344 94.527344 12.53125 L 94.519531 12.53125 C 94.503906 12.53125 94.496094 12.523438 94.492188 12.511719 L 94.242188 11.460938 C 94.167969 11.390625 94.089844 11.332031 94.003906 11.28125 L 94.257812 12.328125 C 94.261719 12.347656 94.253906 12.359375 94.234375 12.363281 L 94.230469 12.363281 C 94.214844 12.363281 94.203125 12.355469 94.199219 12.339844 L 93.933594 11.230469 C 93.914062 11.21875 93.890625 11.207031 93.867188 11.195312 C 93.820312 11.171875 93.769531 11.148438 93.71875 11.128906 L 93.964844 12.160156 C 93.96875 12.179688 93.960938 12.191406 93.945312 12.195312 L 93.9375 12.195312 C 93.921875 12.195312 93.910156 12.1875 93.90625 12.171875 L 93.652344 11.105469 C 93.585938 11.078125 93.515625 11.058594 93.445312 11.042969 L 93.671875 11.992188 C 93.679688 12.011719 93.671875 12.023438 93.652344 12.027344 L 93.644531 12.027344 C 93.628906 12.027344 93.621094 12.019531 93.617188 12.007812 L 93.382812 11.027344 C 93.316406 11.011719 93.246094 11 93.183594 10.988281 L 93.382812 11.828125 C 93.386719 11.847656 93.378906 11.859375 93.359375 11.863281 L 93.351562 11.863281 C 93.335938 11.863281 93.328125 11.855469 93.324219 11.839844 L 93.121094 10.980469 C 93.054688 10.972656 92.988281 10.96875 92.921875 10.964844 L 93.089844 11.660156 C 93.09375 11.679688 93.085938 11.691406 93.066406 11.695312 L 93.0625 11.695312 C 93.046875 11.695312 93.035156 11.6875 93.03125 11.671875 L 92.863281 10.964844 C 92.796875 10.964844 92.734375 10.964844 92.671875 10.964844 L 92.800781 11.503906 C 92.804688 11.519531 92.796875 11.53125 92.777344 11.535156 L 92.769531 11.535156 C 92.753906 11.535156 92.746094 11.527344 92.742188 11.515625 L 92.609375 10.964844 C 92.542969 10.96875 92.480469 10.972656 92.421875 10.976562 L 92.507812 11.339844 C 92.511719 11.355469 92.503906 11.367188 92.484375 11.375 L 92.480469 11.375 C 92.464844 11.375 92.453125 11.367188 92.449219 11.351562 L 92.363281 10.980469 C 92.292969 10.988281 92.230469 10.996094 92.175781 11.003906 L 92.214844 11.171875 C 92.21875 11.191406 92.210938 11.203125 92.191406 11.207031 L 92.1875 11.207031 C 94.207031 13.289062 94.425781 16.144531 94.371094 17.703125 C 94.851562 17.886719 95.308594 18.117188 95.738281 18.390625 Z M 95.738281 11.011719 " fill-opacity="1" fill-rule="nonzero"/></g><g fill="#ff8c00" fill-opacity="1"><g transform="translate(82.254854, 5.556841)"><g><path d="M 0.421875 -3.140625 L -0.234375 -2.765625 L 1.03125 -0.609375 L 0.734375 -0.4375 L -0.53125 -2.59375 L -1.171875 -2.21875 L -1.328125 -2.484375 L 0.265625 -3.40625 Z M 0.421875 -3.140625 "/></g></g></g><g fill="#ff8c00" fill-opacity="1"><g transform="translate(85.035844, 4.073709)"><g><path d="M 1.78125 -1.65625 C 1.875 -1.28125 1.863281 -0.972656 1.75 -0.734375 C 1.644531 -0.492188 1.445312 -0.335938 1.15625 -0.265625 C 0.863281 -0.191406 0.613281 -0.226562 0.40625 -0.375 C 0.195312 -0.53125 0.046875 -0.789062 -0.046875 -1.15625 L -0.171875 -1.65625 C -0.265625 -2.019531 -0.253906 -2.320312 -0.140625 -2.5625 C -0.0351562 -2.8125 0.160156 -2.972656 0.453125 -3.046875 C 0.734375 -3.117188 0.976562 -3.078125 1.1875 -2.921875 C 1.394531 -2.765625 1.546875 -2.507812 1.640625 -2.15625 Z M 1.3125 -2.046875 C 1.238281 -2.328125 1.132812 -2.523438 1 -2.640625 C 0.875 -2.765625 0.71875 -2.800781 0.53125 -2.75 C 0.332031 -2.695312 0.203125 -2.585938 0.140625 -2.421875 C 0.0859375 -2.253906 0.0976562 -2.03125 0.171875 -1.75 L 0.296875 -1.265625 C 0.359375 -0.992188 0.457031 -0.796875 0.59375 -0.671875 C 0.726562 -0.546875 0.890625 -0.507812 1.078125 -0.5625 C 1.273438 -0.613281 1.398438 -0.71875 1.453125 -0.875 C 1.503906 -1.03125 1.5 -1.25 1.4375 -1.53125 Z M 1.3125 -2.046875 "/></g></g></g><g fill="#ff8c00" fill-opacity="1"><g transform="translate(88.421697, 3.372731)"><g><path d="M 2.078125 -2.75 L 2.015625 -0.75 C 1.992188 -0.476562 1.90625 -0.269531 1.75 -0.125 C 1.59375 0.0078125 1.378906 0.0703125 1.109375 0.0625 C 0.828125 0.0507812 0.613281 -0.0234375 0.46875 -0.171875 C 0.332031 -0.316406 0.269531 -0.523438 0.28125 -0.796875 L 0.34375 -2.796875 L 0.703125 -2.796875 L 0.640625 -0.8125 C 0.628906 -0.625 0.660156 -0.476562 0.734375 -0.375 C 0.816406 -0.28125 0.945312 -0.234375 1.125 -0.234375 C 1.300781 -0.222656 1.429688 -0.265625 1.515625 -0.359375 C 1.597656 -0.453125 1.644531 -0.59375 1.65625 -0.78125 L 1.71875 -2.765625 Z M 2.078125 -2.75 "/></g></g></g><g fill="#ff8c00" fill-opacity="1"><g transform="translate(91.726442, 3.643304)"><g><path d="M 1.453125 -0.75 L 0.96875 -0.890625 L 0.625 0.203125 L 0.28125 0.09375 L 1.140625 -2.578125 L 1.90625 -2.34375 C 2.15625 -2.257812 2.320312 -2.128906 2.40625 -1.953125 C 2.5 -1.773438 2.503906 -1.554688 2.421875 -1.296875 C 2.367188 -1.128906 2.289062 -0.992188 2.1875 -0.890625 C 2.082031 -0.785156 1.953125 -0.722656 1.796875 -0.703125 L 1.9375 0.59375 L 1.9375 0.609375 L 1.578125 0.5 Z M 1.0625 -1.171875 L 1.484375 -1.046875 C 1.617188 -0.992188 1.738281 -1 1.84375 -1.0625 C 1.957031 -1.125 2.039062 -1.234375 2.09375 -1.390625 C 2.207031 -1.722656 2.109375 -1.941406 1.796875 -2.046875 L 1.390625 -2.171875 Z M 1.0625 -1.171875 "/></g></g></g><g fill="#ff8c00" fill-opacity="1"><g transform="translate(94.727683, 4.760554)"><g><path d="M 1.671875 0.234375 C 1.742188 0.117188 1.769531 0.0078125 1.75 -0.09375 C 1.726562 -0.195312 1.648438 -0.332031 1.515625 -0.5 C 1.390625 -0.664062 1.304688 -0.804688 1.265625 -0.921875 C 1.222656 -1.046875 1.207031 -1.164062 1.21875 -1.28125 C 1.226562 -1.394531 1.269531 -1.503906 1.34375 -1.609375 C 1.46875 -1.804688 1.628906 -1.921875 1.828125 -1.953125 C 2.023438 -1.984375 2.222656 -1.929688 2.421875 -1.796875 C 2.566406 -1.710938 2.671875 -1.609375 2.734375 -1.484375 C 2.804688 -1.359375 2.832031 -1.21875 2.8125 -1.0625 C 2.800781 -0.914062 2.753906 -0.773438 2.671875 -0.640625 L 2.375 -0.84375 C 2.46875 -0.988281 2.503906 -1.125 2.484375 -1.25 C 2.472656 -1.375 2.398438 -1.476562 2.265625 -1.5625 C 2.140625 -1.644531 2.023438 -1.671875 1.921875 -1.640625 C 1.816406 -1.617188 1.722656 -1.546875 1.640625 -1.421875 C 1.578125 -1.316406 1.554688 -1.210938 1.578125 -1.109375 C 1.597656 -1.003906 1.664062 -0.875 1.78125 -0.71875 C 1.96875 -0.488281 2.070312 -0.28125 2.09375 -0.09375 C 2.125 0.0820312 2.082031 0.253906 1.96875 0.421875 C 1.84375 0.617188 1.679688 0.734375 1.484375 0.765625 C 1.285156 0.796875 1.082031 0.742188 0.875 0.609375 C 0.738281 0.515625 0.628906 0.398438 0.546875 0.265625 C 0.472656 0.140625 0.4375 0.00390625 0.4375 -0.140625 C 0.445312 -0.296875 0.492188 -0.445312 0.578125 -0.59375 L 0.875 -0.40625 C 0.78125 -0.25 0.75 -0.109375 0.78125 0.015625 C 0.8125 0.148438 0.894531 0.265625 1.03125 0.359375 C 1.164062 0.441406 1.285156 0.46875 1.390625 0.4375 C 1.492188 0.414062 1.585938 0.347656 1.671875 0.234375 Z M 1.671875 0.234375 "/></g></g></g><g fill="#ff8c00" fill-opacity="1"><g transform="translate(97.300787, 6.666797)"><g/></g></g><g fill="#ff8c00" fill-opacity="1"><g transform="translate(79.985225, 27.71961)"><g/></g></g><g fill="#ff8c00" fill-opacity="1"><g transform="translate(80.86287, 27.71961)"><g><path d="M 0.753906 0 L 0.753906 -0.0234375 C 0.539062 -0.0234375 0.523438 -0.203125 0.523438 -0.699219 L 0.523438 -1.722656 C 0.644531 -1.765625 0.785156 -1.796875 0.914062 -1.796875 C 1.082031 -1.796875 1.480469 -1.78125 1.480469 -1.21875 C 1.480469 -1.21875 1.480469 -0.773438 1.480469 -0.699219 C 1.480469 -0.203125 1.464844 -0.0234375 1.25 -0.0234375 L 1.25 0 L 1.929688 0 L 1.929688 -0.0234375 C 1.710938 -0.0234375 1.699219 -0.203125 1.699219 -0.699219 L 1.699219 -1.269531 C 1.699219 -1.457031 1.640625 -1.582031 1.558594 -1.664062 C 1.71875 -1.757812 1.902344 -1.796875 2.085938 -1.796875 C 2.257812 -1.796875 2.652344 -1.78125 2.652344 -1.21875 C 2.652344 -1.21875 2.652344 -0.773438 2.652344 -0.699219 C 2.652344 -0.203125 2.636719 -0.0234375 2.421875 -0.0234375 L 2.421875 0 L 3.101562 0 L 3.101562 -0.0234375 C 2.882812 -0.0234375 2.871094 -0.203125 2.871094 -0.699219 L 2.871094 -1.269531 C 2.871094 -1.796875 2.421875 -1.832031 2.199219 -1.832031 C 1.804688 -1.832031 1.558594 -1.726562 1.480469 -1.726562 C 1.332031 -1.820312 1.148438 -1.832031 1.027344 -1.832031 C 0.882812 -1.832031 0.570312 -1.78125 0.363281 -1.78125 L 0.0742188 -1.78125 L 0.0742188 -1.753906 C 0.292969 -1.753906 0.308594 -1.578125 0.308594 -1.082031 L 0.308594 -0.699219 C 0.308594 -0.203125 0.292969 -0.0234375 0.0742188 -0.0234375 L 0.0742188 0 Z M 0.753906 0 "/></g></g></g><g fill="#ff8c00" fill-opacity="1"><g transform="translate(84.014239, 27.71961)"><g><path d="M 0.152344 -0.507812 C 0.152344 -0.183594 0.386719 0.0507812 0.710938 0.0507812 C 1.152344 0.0507812 1.316406 -0.308594 1.410156 -0.742188 L 1.410156 -0.3125 C 1.410156 -0.125 1.515625 0 1.648438 0 L 1.824219 0 L 1.824219 -0.0234375 C 1.757812 -0.0234375 1.636719 -0.0703125 1.636719 -0.28125 C 1.636719 -0.546875 1.632812 -0.585938 1.632812 -0.808594 C 1.632812 -1.011719 1.609375 -1.203125 1.425781 -1.203125 C 1.386719 -1.203125 1.359375 -1.183594 1.359375 -1.167969 C 1.394531 -1.15625 1.402344 -1.097656 1.402344 -1.042969 C 1.402344 -0.3125 1.054688 -0.03125 0.785156 -0.03125 C 0.539062 -0.03125 0.371094 -0.230469 0.371094 -0.492188 C 0.371094 -1.476562 1.636719 -1.109375 1.636719 -1.515625 C 1.636719 -1.710938 1.269531 -1.832031 0.984375 -1.832031 C 0.589844 -1.832031 0.292969 -1.703125 0.292969 -1.453125 C 0.292969 -1.34375 0.363281 -1.253906 0.472656 -1.253906 C 0.554688 -1.253906 0.640625 -1.324219 0.613281 -1.398438 C 0.589844 -1.375 0.511719 -1.417969 0.511719 -1.515625 C 0.511719 -1.722656 0.746094 -1.804688 0.984375 -1.804688 C 1.1875 -1.804688 1.421875 -1.722656 1.421875 -1.519531 C 1.421875 -1.105469 0.152344 -1.394531 0.152344 -0.507812 Z M 0.152344 -0.507812 "/></g></g></g><g fill="#ff8c00" fill-opacity="1"><g transform="translate(85.890473, 27.71961)"><g><path d="M 0.753906 0 L 0.753906 -0.0234375 C 0.539062 -0.0234375 0.523438 -0.203125 0.523438 -0.699219 L 0.523438 -1.722656 C 0.667969 -1.769531 1.007812 -1.796875 1.160156 -1.796875 C 1.34375 -1.796875 1.429688 -1.699219 1.429688 -1.585938 C 1.429688 -1.480469 1.367188 -1.398438 1.296875 -1.394531 C 1.296875 -1.324219 1.363281 -1.28125 1.433594 -1.28125 C 1.578125 -1.28125 1.648438 -1.390625 1.648438 -1.523438 C 1.648438 -1.71875 1.484375 -1.832031 1.261719 -1.832031 C 0.980469 -1.832031 0.65625 -1.78125 0.367188 -1.78125 L 0.0742188 -1.78125 L 0.0742188 -1.753906 C 0.292969 -1.753906 0.308594 -1.578125 0.308594 -1.082031 L 0.308594 -0.699219 C 0.308594 -0.203125 0.292969 -0.0234375 0.0742188 -0.0234375 L 0.0742188 0 Z M 0.753906 0 "/></g></g></g><g fill="#ff8c00" fill-opacity="1"><g transform="translate(87.590654, 27.71961)"><g><path d="M 0.753906 0 L 0.753906 -0.0234375 C 0.539062 -0.0234375 0.523438 -0.203125 0.523438 -0.699219 L 0.523438 -1.722656 C 0.667969 -1.769531 1.007812 -1.796875 1.160156 -1.796875 C 1.34375 -1.796875 1.429688 -1.699219 1.429688 -1.585938 C 1.429688 -1.480469 1.367188 -1.398438 1.296875 -1.394531 C 1.296875 -1.324219 1.363281 -1.28125 1.433594 -1.28125 C 1.578125 -1.28125 1.648438 -1.390625 1.648438 -1.523438 C 1.648438 -1.71875 1.484375 -1.832031 1.261719 -1.832031 C 0.980469 -1.832031 0.65625 -1.78125 0.367188 -1.78125 L 0.0742188 -1.78125 L 0.0742188 -1.753906 C 0.292969 -1.753906 0.308594 -1.578125 0.308594 -1.082031 L 0.308594 -0.699219 C 0.308594 -0.203125 0.292969 -0.0234375 0.0742188 -0.0234375 L 0.0742188 0 Z M 0.753906 0 "/></g></g></g><g fill="#ff8c00" fill-opacity="1"><g transform="translate(89.290835, 27.71961)"><g><path d="M 0.152344 -0.507812 C 0.152344 -0.183594 0.386719 0.0507812 0.710938 0.0507812 C 1.152344 0.0507812 1.316406 -0.308594 1.410156 -0.742188 L 1.410156 -0.3125 C 1.410156 -0.125 1.515625 0 1.648438 0 L 1.824219 0 L 1.824219 -0.0234375 C 1.757812 -0.0234375 1.636719 -0.0703125 1.636719 -0.28125 C 1.636719 -0.546875 1.632812 -0.585938 1.632812 -0.808594 C 1.632812 -1.011719 1.609375 -1.203125 1.425781 -1.203125 C 1.386719 -1.203125 1.359375 -1.183594 1.359375 -1.167969 C 1.394531 -1.15625 1.402344 -1.097656 1.402344 -1.042969 C 1.402344 -0.3125 1.054688 -0.03125 0.785156 -0.03125 C 0.539062 -0.03125 0.371094 -0.230469 0.371094 -0.492188 C 0.371094 -1.476562 1.636719 -1.109375 1.636719 -1.515625 C 1.636719 -1.710938 1.269531 -1.832031 0.984375 -1.832031 C 0.589844 -1.832031 0.292969 -1.703125 0.292969 -1.453125 C 0.292969 -1.34375 0.363281 -1.253906 0.472656 -1.253906 C 0.554688 -1.253906 0.640625 -1.324219 0.613281 -1.398438 C 0.589844 -1.375 0.511719 -1.417969 0.511719 -1.515625 C 0.511719 -1.722656 0.746094 -1.804688 0.984375 -1.804688 C 1.1875 -1.804688 1.421875 -1.722656 1.421875 -1.519531 C 1.421875 -1.105469 0.152344 -1.394531 0.152344 -0.507812 Z M 0.152344 -0.507812 "/></g></g></g><g fill="#ff8c00" fill-opacity="1"><g transform="translate(91.167069, 27.71961)"><g><path d="M 0.753906 0 L 0.753906 -0.0234375 C 0.539062 -0.0234375 0.523438 -0.203125 0.523438 -0.699219 L 0.523438 -2.515625 L 0.0742188 -2.515625 L 0.0742188 -2.488281 C 0.292969 -2.488281 0.308594 -2.3125 0.308594 -1.816406 L 0.308594 -0.699219 C 0.308594 -0.203125 0.292969 -0.0234375 0.0742188 -0.0234375 L 0.0742188 0 Z M 1.320312 -1.640625 C 1.320312 -1.257812 0.589844 -1.339844 0.589844 -1.105469 C 0.589844 -0.953125 0.886719 -0.996094 1.09375 -0.625 C 1.140625 -0.539062 1.171875 -0.414062 1.210938 -0.269531 C 1.246094 -0.152344 1.277344 0 1.394531 0 L 1.683594 0 L 1.683594 -0.0234375 C 1.5625 -0.0234375 1.503906 -0.0742188 1.46875 -0.15625 C 1.398438 -0.324219 1.402344 -0.460938 1.296875 -0.628906 C 1.046875 -1.027344 0.613281 -0.957031 0.613281 -1.105469 C 0.613281 -1.285156 1.546875 -1.21875 1.546875 -1.714844 C 1.546875 -1.746094 1.539062 -1.78125 1.503906 -1.78125 L 1.203125 -1.78125 L 1.203125 -1.753906 C 1.289062 -1.753906 1.320312 -1.707031 1.320312 -1.640625 Z M 1.320312 -1.640625 "/></g></g></g><g fill="#ff8c00" fill-opacity="1"><g transform="translate(92.92761, 27.71961)"><g><path d="M 1.011719 0.0507812 C 1.386719 0.0507812 1.664062 -0.152344 1.792969 -0.453125 L 1.757812 -0.46875 C 1.636719 -0.144531 1.304688 -0.0351562 1.105469 -0.0351562 C 0.640625 -0.0351562 0.371094 -0.429688 0.367188 -0.898438 C 0.363281 -1.253906 0.496094 -1.800781 1.007812 -1.800781 C 1.726562 -1.800781 1.71875 -0.832031 1.34375 -0.832031 C 1.144531 -0.832031 0.949219 -1.167969 0.683594 -1.167969 C 0.511719 -1.167969 0.421875 -1.070312 0.421875 -0.964844 L 0.429688 -0.964844 C 0.4375 -0.984375 0.492188 -1.027344 0.554688 -1.027344 C 0.800781 -1.027344 0.921875 -0.800781 1.328125 -0.800781 C 1.617188 -0.800781 1.78125 -0.972656 1.78125 -1.257812 C 1.785156 -1.511719 1.554688 -1.832031 1.011719 -1.832031 C 0.472656 -1.832031 0.152344 -1.410156 0.152344 -0.890625 C 0.152344 -0.371094 0.472656 0.0507812 1.011719 0.0507812 Z M 1.011719 0.0507812 "/></g></g></g><g fill="#ff8c00" fill-opacity="1"><g transform="translate(94.871751, 27.71961)"><g><path d="M 1.011719 0.0507812 C 1.386719 0.0507812 1.664062 -0.152344 1.792969 -0.453125 L 1.757812 -0.46875 C 1.636719 -0.144531 1.304688 -0.0351562 1.105469 -0.0351562 C 0.640625 -0.0351562 0.371094 -0.429688 0.367188 -0.898438 C 0.363281 -1.253906 0.496094 -1.800781 1.007812 -1.800781 C 1.273438 -1.800781 1.5625 -1.636719 1.699219 -1.359375 L 1.710938 -1.359375 L 1.710938 -1.65625 C 1.710938 -1.65625 1.4375 -1.832031 1.011719 -1.832031 C 0.472656 -1.832031 0.152344 -1.410156 0.152344 -0.890625 C 0.152344 -0.371094 0.472656 0.0507812 1.011719 0.0507812 Z M 1.011719 0.0507812 "/></g></g></g><g fill="#ff8c00" fill-opacity="1"><g transform="translate(96.71529, 27.71961)"><g><path d="M 0.0742188 -0.0234375 L 0.0742188 0 L 0.753906 0 L 0.753906 -0.0234375 C 0.539062 -0.0234375 0.523438 -0.203125 0.523438 -0.699219 L 0.523438 -1.722656 C 0.644531 -1.765625 0.785156 -1.796875 0.914062 -1.796875 C 1.082031 -1.796875 1.480469 -1.78125 1.480469 -1.21875 C 1.480469 -1.21875 1.480469 -0.773438 1.480469 -0.699219 C 1.480469 -0.203125 1.464844 -0.0234375 1.25 -0.0234375 L 1.25 0 L 1.929688 0 L 1.929688 -0.0234375 C 1.710938 -0.0234375 1.699219 -0.203125 1.699219 -0.699219 L 1.699219 -1.269531 C 1.699219 -1.796875 1.25 -1.832031 1.027344 -1.832031 C 0.914062 -1.832031 0.613281 -1.789062 0.523438 -1.789062 L 0.523438 -2.515625 L 0.0742188 -2.515625 L 0.0742188 -2.488281 C 0.292969 -2.488281 0.308594 -2.3125 0.308594 -1.816406 L 0.308594 -0.699219 C 0.308594 -0.203125 0.292969 -0.0234375 0.0742188 -0.0234375 Z M 0.0742188 -0.0234375 "/></g></g></g><g fill="#ff8c00" fill-opacity="1"><g transform="translate(85.069017, 24.400636)"><g><path d="M 0.0742188 -0.0234375 L 0.0742188 0 L 0.753906 0 L 0.753906 -0.0234375 C 0.539062 -0.0234375 0.523438 -0.203125 0.523438 -0.699219 L 0.523438 -1.722656 C 0.644531 -1.765625 0.785156 -1.796875 0.914062 -1.796875 C 1.082031 -1.796875 1.480469 -1.78125 1.480469 -1.21875 C 1.480469 -1.21875 1.480469 -0.773438 1.480469 -0.699219 C 1.480469 -0.203125 1.464844 -0.0234375 1.25 -0.0234375 L 1.25 0 L 1.929688 0 L 1.929688 -0.0234375 C 1.710938 -0.0234375 1.699219 -0.203125 1.699219 -0.699219 L 1.699219 -1.269531 C 1.699219 -1.796875 1.25 -1.832031 1.027344 -1.832031 C 0.914062 -1.832031 0.613281 -1.789062 0.523438 -1.789062 L 0.523438 -2.515625 L 0.0742188 -2.515625 L 0.0742188 -2.488281 C 0.292969 -2.488281 0.308594 -2.3125 0.308594 -1.816406 L 0.308594 -0.699219 C 0.308594 -0.203125 0.292969 -0.0234375 0.0742188 -0.0234375 Z M 0.0742188 -0.0234375 "/></g></g></g><g fill="#ff8c00" fill-opacity="1"><g transform="translate(87.048368, 24.400636)"><g><path d="M 0.152344 -0.507812 C 0.152344 -0.183594 0.386719 0.0507812 0.710938 0.0507812 C 1.152344 0.0507812 1.316406 -0.308594 1.410156 -0.742188 L 1.410156 -0.3125 C 1.410156 -0.125 1.515625 0 1.648438 0 L 1.824219 0 L 1.824219 -0.0234375 C 1.757812 -0.0234375 1.636719 -0.0703125 1.636719 -0.28125 C 1.636719 -0.546875 1.632812 -0.585938 1.632812 -0.808594 C 1.632812 -1.011719 1.609375 -1.203125 1.425781 -1.203125 C 1.386719 -1.203125 1.359375 -1.183594 1.359375 -1.167969 C 1.394531 -1.15625 1.402344 -1.097656 1.402344 -1.042969 C 1.402344 -0.3125 1.054688 -0.03125 0.785156 -0.03125 C 0.539062 -0.03125 0.371094 -0.230469 0.371094 -0.492188 C 0.371094 -1.476562 1.636719 -1.109375 1.636719 -1.515625 C 1.636719 -1.710938 1.269531 -1.832031 0.984375 -1.832031 C 0.589844 -1.832031 0.292969 -1.703125 0.292969 -1.453125 C 0.292969 -1.34375 0.363281 -1.253906 0.472656 -1.253906 C 0.554688 -1.253906 0.640625 -1.324219 0.613281 -1.398438 C 0.589844 -1.375 0.511719 -1.417969 0.511719 -1.515625 C 0.511719 -1.722656 0.746094 -1.804688 0.984375 -1.804688 C 1.1875 -1.804688 1.421875 -1.722656 1.421875 -1.519531 C 1.421875 -1.105469 0.152344 -1.394531 0.152344 -0.507812 Z M 0.152344 -0.507812 "/></g></g></g><g fill="#ff8c00" fill-opacity="1"><g transform="translate(88.924602, 24.400636)"><g><path d="M 0.0507812 -1.753906 C 0.265625 -1.753906 0.28125 -1.578125 0.28125 -1.082031 L 0.28125 0.34375 C 0.28125 0.839844 0.265625 1.019531 0.0507812 1.019531 L 0.0507812 1.042969 L 0.730469 1.042969 L 0.730469 1.019531 C 0.511719 1.019531 0.496094 0.839844 0.496094 0.34375 L 0.496094 -0.0390625 C 0.667969 0 0.710938 0 0.835938 0 C 1.417969 0 1.847656 -0.382812 1.847656 -1.050781 C 1.847656 -1.535156 1.527344 -1.832031 1.109375 -1.832031 C 0.859375 -1.832031 0.648438 -1.710938 0.496094 -1.488281 L 0.496094 -1.78125 L 0.0507812 -1.78125 Z M 0.496094 -1.097656 C 0.496094 -1.59375 0.742188 -1.769531 1 -1.769531 C 1.296875 -1.769531 1.628906 -1.5625 1.628906 -1 C 1.628906 -0.425781 1.238281 -0.0234375 0.808594 -0.0234375 C 0.6875 -0.0234375 0.578125 -0.0546875 0.496094 -0.0976562 Z M 0.496094 -1.097656 "/></g></g></g><g fill="#ff8c00" fill-opacity="1"><g transform="translate(90.921558, 24.400636)"><g><path d="M 0.0507812 -1.753906 C 0.265625 -1.753906 0.28125 -1.578125 0.28125 -1.082031 L 0.28125 0.34375 C 0.28125 0.839844 0.265625 1.019531 0.0507812 1.019531 L 0.0507812 1.042969 L 0.730469 1.042969 L 0.730469 1.019531 C 0.511719 1.019531 0.496094 0.839844 0.496094 0.34375 L 0.496094 -0.0390625 C 0.667969 0 0.710938 0 0.835938 0 C 1.417969 0 1.847656 -0.382812 1.847656 -1.050781 C 1.847656 -1.535156 1.527344 -1.832031 1.109375 -1.832031 C 0.859375 -1.832031 0.648438 -1.710938 0.496094 -1.488281 L 0.496094 -1.78125 L 0.0507812 -1.78125 Z M 0.496094 -1.097656 C 0.496094 -1.59375 0.742188 -1.769531 1 -1.769531 C 1.296875 -1.769531 1.628906 -1.5625 1.628906 -1 C 1.628906 -0.425781 1.238281 -0.0234375 0.808594 -0.0234375 C 0.6875 -0.0234375 0.578125 -0.0546875 0.496094 -0.0976562 Z M 0.496094 -1.097656 "/></g></g></g><g fill="#ff8c00" fill-opacity="1"><g transform="translate(92.918514, 24.400636)"><g><path d="M 0 -1.753906 L 0.0585938 -1.753906 C 0.242188 -1.753906 0.300781 -1.550781 0.347656 -1.394531 C 0.457031 -1.054688 0.53125 -0.785156 0.667969 -0.371094 C 0.785156 -0.00390625 0.949219 0.046875 1.011719 0.0507812 C 0.886719 0.460938 0.433594 1.019531 0.125 1.019531 L 0.125 1.042969 L 0.464844 1.042969 C 0.691406 1.042969 0.976562 0.242188 1.042969 0.0507812 C 1.207031 -0.460938 1.332031 -0.871094 1.453125 -1.265625 C 1.5 -1.417969 1.625 -1.753906 1.796875 -1.753906 L 1.839844 -1.753906 L 1.839844 -1.78125 L 1.179688 -1.78125 L 1.179688 -1.753906 L 1.234375 -1.753906 C 1.515625 -1.753906 1.464844 -1.410156 1.40625 -1.210938 C 1.3125 -0.890625 1.203125 -0.554688 1.078125 -0.152344 C 1.003906 -0.160156 0.9375 -0.230469 0.894531 -0.371094 C 0.738281 -0.859375 0.652344 -1.148438 0.519531 -1.578125 C 0.492188 -1.675781 0.421875 -1.78125 0.308594 -1.78125 L 0 -1.78125 Z M 0 -1.753906 "/></g></g></g></svg>