<svg xmlns="http://www.w3.org/2000/svg" xmlns:xlink="http://www.w3.org/1999/xlink" width="260" zoomAndPan="magnify" viewBox="0 0 194.87999 30.000001" height="40" preserveAspectRatio="xMidYMid meet" version="1.0"><defs><g/><clipPath id="id1"><path d="M 58.25 3.953125 L 77.625 3.953125 L 77.625 28.421875 L 58.25 28.421875 Z M 58.25 3.953125 " clip-rule="nonzero"/></clipPath></defs><g fill="#ff8c00" fill-opacity="1"><g transform="translate(80.177324, 24.261181)"><g><path d="M 2.191406 0 L 2.191406 -0.0742188 C 1.5625 -0.0742188 1.519531 -0.59375 1.519531 -2.03125 L 1.519531 -5.007812 C 1.871094 -5.132812 2.28125 -5.21875 2.652344 -5.21875 C 3.152344 -5.21875 4.296875 -5.175781 4.296875 -3.539062 C 4.296875 -3.539062 4.304688 -2.25 4.304688 -2.03125 C 4.304688 -0.59375 4.261719 -0.0742188 3.632812 -0.0742188 L 3.632812 0 L 5.605469 0 L 5.605469 -0.0742188 C 4.976562 -0.0742188 4.933594 -0.59375 4.933594 -2.03125 L 4.933594 -3.691406 C 4.933594 -4.234375 4.773438 -4.597656 4.53125 -4.839844 C 4.992188 -5.109375 5.527344 -5.226562 6.058594 -5.226562 C 6.558594 -5.226562 7.703125 -5.175781 7.703125 -3.539062 C 7.703125 -3.539062 7.710938 -2.25 7.710938 -2.03125 C 7.710938 -0.59375 7.667969 -0.0742188 7.039062 -0.0742188 L 7.039062 0 L 9.011719 0 L 9.011719 -0.0742188 C 8.382812 -0.0742188 8.339844 -0.59375 8.339844 -2.03125 L 8.339844 -3.691406 C 8.339844 -5.226562 7.039062 -5.320312 6.390625 -5.320312 C 5.25 -5.320312 4.53125 -5.023438 4.296875 -5.023438 C 3.875 -5.292969 3.332031 -5.320312 2.984375 -5.320312 C 2.566406 -5.320312 1.652344 -5.175781 1.050781 -5.175781 L 0.21875 -5.175781 L 0.21875 -5.101562 C 0.847656 -5.101562 0.890625 -4.582031 0.890625 -3.144531 L 0.890625 -2.03125 C 0.890625 -0.59375 0.847656 -0.0742188 0.21875 -0.0742188 L 0.21875 0 Z M 2.191406 0 "/></g></g></g><g fill="#ff8c00" fill-opacity="1"><g transform="translate(89.336817, 24.261181)"><g><path d="M 0.4375 -1.476562 C 0.4375 -0.535156 1.125 0.144531 2.070312 0.144531 C 3.347656 0.144531 3.832031 -0.898438 4.09375 -2.15625 L 4.09375 -0.90625 C 4.09375 -0.359375 4.402344 0 4.789062 0 L 5.308594 0 L 5.308594 -0.0742188 C 5.109375 -0.0742188 4.75 -0.203125 4.75 -0.820312 C 4.75 -1.59375 4.746094 -1.703125 4.746094 -2.355469 C 4.746094 -2.9375 4.679688 -3.496094 4.144531 -3.496094 C 4.027344 -3.496094 3.949219 -3.4375 3.949219 -3.390625 C 4.058594 -3.363281 4.070312 -3.195312 4.070312 -3.035156 C 4.070312 -0.90625 3.070312 -0.09375 2.28125 -0.09375 C 1.5625 -0.09375 1.082031 -0.671875 1.082031 -1.433594 C 1.082031 -4.289062 4.757812 -3.222656 4.757812 -4.402344 C 4.757812 -4.976562 3.683594 -5.320312 2.859375 -5.320312 C 1.710938 -5.320312 0.847656 -4.949219 0.847656 -4.226562 C 0.847656 -3.910156 1.058594 -3.640625 1.375 -3.640625 C 1.617188 -3.640625 1.855469 -3.84375 1.785156 -4.0625 C 1.71875 -4 1.492188 -4.121094 1.492188 -4.402344 C 1.492188 -5.007812 2.164062 -5.25 2.859375 -5.25 C 3.449219 -5.25 4.136719 -5.007812 4.136719 -4.414062 C 4.136719 -3.210938 0.4375 -4.050781 0.4375 -1.476562 Z M 0.4375 -1.476562 "/></g></g></g><g fill="#ff8c00" fill-opacity="1"><g transform="translate(94.790113, 24.261181)"><g><path d="M 2.191406 0 L 2.191406 -0.0742188 C 1.5625 -0.0742188 1.519531 -0.59375 1.519531 -2.03125 L 1.519531 -5.007812 C 1.9375 -5.140625 2.925781 -5.21875 3.378906 -5.21875 C 3.902344 -5.21875 4.160156 -4.941406 4.160156 -4.605469 C 4.160156 -4.304688 3.96875 -4.0625 3.765625 -4.058594 C 3.765625 -3.851562 3.960938 -3.722656 4.167969 -3.722656 C 4.582031 -3.722656 4.796875 -4.042969 4.796875 -4.429688 C 4.796875 -4.992188 4.3125 -5.320312 3.664062 -5.320312 C 2.851562 -5.320312 1.90625 -5.175781 1.066406 -5.175781 L 0.21875 -5.175781 L 0.21875 -5.101562 C 0.847656 -5.101562 0.890625 -4.582031 0.890625 -3.144531 L 0.890625 -2.03125 C 0.890625 -0.59375 0.847656 -0.0742188 0.21875 -0.0742188 L 0.21875 0 Z M 2.191406 0 "/></g></g></g><g fill="#ff8c00" fill-opacity="1"><g transform="translate(99.73171, 24.261181)"><g><path d="M 2.191406 0 L 2.191406 -0.0742188 C 1.5625 -0.0742188 1.519531 -0.59375 1.519531 -2.03125 L 1.519531 -5.007812 C 1.9375 -5.140625 2.925781 -5.21875 3.378906 -5.21875 C 3.902344 -5.21875 4.160156 -4.941406 4.160156 -4.605469 C 4.160156 -4.304688 3.96875 -4.0625 3.765625 -4.058594 C 3.765625 -3.851562 3.960938 -3.722656 4.167969 -3.722656 C 4.582031 -3.722656 4.796875 -4.042969 4.796875 -4.429688 C 4.796875 -4.992188 4.3125 -5.320312 3.664062 -5.320312 C 2.851562 -5.320312 1.90625 -5.175781 1.066406 -5.175781 L 0.21875 -5.175781 L 0.21875 -5.101562 C 0.847656 -5.101562 0.890625 -4.582031 0.890625 -3.144531 L 0.890625 -2.03125 C 0.890625 -0.59375 0.847656 -0.0742188 0.21875 -0.0742188 L 0.21875 0 Z M 2.191406 0 "/></g></g></g><g fill="#ff8c00" fill-opacity="1"><g transform="translate(104.673308, 24.261181)"><g><path d="M 0.4375 -1.476562 C 0.4375 -0.535156 1.125 0.144531 2.070312 0.144531 C 3.347656 0.144531 3.832031 -0.898438 4.09375 -2.15625 L 4.09375 -0.90625 C 4.09375 -0.359375 4.402344 0 4.789062 0 L 5.308594 0 L 5.308594 -0.0742188 C 5.109375 -0.0742188 4.75 -0.203125 4.75 -0.820312 C 4.75 -1.59375 4.746094 -1.703125 4.746094 -2.355469 C 4.746094 -2.9375 4.679688 -3.496094 4.144531 -3.496094 C 4.027344 -3.496094 3.949219 -3.4375 3.949219 -3.390625 C 4.058594 -3.363281 4.070312 -3.195312 4.070312 -3.035156 C 4.070312 -0.90625 3.070312 -0.09375 2.28125 -0.09375 C 1.5625 -0.09375 1.082031 -0.671875 1.082031 -1.433594 C 1.082031 -4.289062 4.757812 -3.222656 4.757812 -4.402344 C 4.757812 -4.976562 3.683594 -5.320312 2.859375 -5.320312 C 1.710938 -5.320312 0.847656 -4.949219 0.847656 -4.226562 C 0.847656 -3.910156 1.058594 -3.640625 1.375 -3.640625 C 1.617188 -3.640625 1.855469 -3.84375 1.785156 -4.0625 C 1.71875 -4 1.492188 -4.121094 1.492188 -4.402344 C 1.492188 -5.007812 2.164062 -5.25 2.859375 -5.25 C 3.449219 -5.25 4.136719 -5.007812 4.136719 -4.414062 C 4.136719 -3.210938 0.4375 -4.050781 0.4375 -1.476562 Z M 0.4375 -1.476562 "/></g></g></g><g fill="#ff8c00" fill-opacity="1"><g transform="translate(110.126603, 24.261181)"><g><path d="M 2.191406 0 L 2.191406 -0.0742188 C 1.5625 -0.0742188 1.519531 -0.59375 1.519531 -2.03125 L 1.519531 -7.308594 L 0.21875 -7.308594 L 0.21875 -7.238281 C 0.847656 -7.238281 0.890625 -6.71875 0.890625 -5.277344 L 0.890625 -2.03125 C 0.890625 -0.59375 0.847656 -0.0742188 0.21875 -0.0742188 L 0.21875 0 Z M 3.835938 -4.765625 C 3.835938 -3.65625 1.710938 -3.890625 1.710938 -3.214844 C 1.710938 -2.769531 2.582031 -2.894531 3.179688 -1.8125 C 3.320312 -1.5625 3.40625 -1.207031 3.523438 -0.78125 C 3.617188 -0.445312 3.714844 0 4.058594 0 L 4.898438 0 L 4.898438 -0.0742188 C 4.539062 -0.0742188 4.371094 -0.210938 4.269531 -0.453125 C 4.0625 -0.941406 4.070312 -1.34375 3.773438 -1.828125 C 3.046875 -2.988281 1.785156 -2.785156 1.785156 -3.214844 C 1.785156 -3.734375 4.496094 -3.539062 4.496094 -4.984375 C 4.496094 -5.082031 4.472656 -5.175781 4.371094 -5.175781 L 3.496094 -5.175781 L 3.496094 -5.101562 C 3.742188 -5.101562 3.835938 -4.957031 3.835938 -4.765625 Z M 3.835938 -4.765625 "/></g></g></g><g fill="#ff8c00" fill-opacity="1"><g transform="translate(115.243637, 24.261181)"><g><path d="M 2.945312 0.144531 C 4.035156 0.144531 4.832031 -0.445312 5.210938 -1.316406 L 5.109375 -1.359375 C 4.75 -0.417969 3.785156 -0.101562 3.210938 -0.101562 C 1.863281 -0.101562 1.082031 -1.25 1.066406 -2.609375 C 1.050781 -3.640625 1.449219 -5.234375 2.929688 -5.234375 C 5.023438 -5.234375 4.992188 -2.417969 3.910156 -2.417969 C 3.324219 -2.417969 2.757812 -3.390625 1.988281 -3.390625 C 1.484375 -3.390625 1.222656 -3.105469 1.222656 -2.808594 L 1.25 -2.800781 C 1.273438 -2.859375 1.433594 -2.984375 1.609375 -2.984375 C 2.324219 -2.984375 2.683594 -2.332031 3.859375 -2.332031 C 4.699219 -2.332031 5.175781 -2.828125 5.183594 -3.65625 C 5.191406 -4.394531 4.519531 -5.320312 2.945312 -5.320312 C 1.375 -5.320312 0.4375 -4.09375 0.4375 -2.585938 C 0.4375 -1.082031 1.375 0.144531 2.945312 0.144531 Z M 2.945312 0.144531 "/></g></g></g><g fill="#ff8c00" fill-opacity="1"><g transform="translate(120.894306, 24.261181)"><g><path d="M 2.945312 0.144531 C 4.035156 0.144531 4.832031 -0.445312 5.210938 -1.316406 L 5.109375 -1.359375 C 4.75 -0.417969 3.785156 -0.101562 3.210938 -0.101562 C 1.863281 -0.101562 1.082031 -1.25 1.066406 -2.609375 C 1.050781 -3.640625 1.449219 -5.234375 2.929688 -5.234375 C 3.699219 -5.234375 4.539062 -4.75 4.941406 -3.949219 L 4.972656 -3.949219 L 4.972656 -4.808594 C 4.972656 -4.808594 4.179688 -5.320312 2.945312 -5.320312 C 1.375 -5.320312 0.4375 -4.09375 0.4375 -2.585938 C 0.4375 -1.082031 1.375 0.144531 2.945312 0.144531 Z M 2.945312 0.144531 "/></g></g></g><g fill="#ff8c00" fill-opacity="1"><g transform="translate(126.252577, 24.261181)"><g><path d="M 0.21875 -0.0742188 L 0.21875 0 L 2.191406 0 L 2.191406 -0.0742188 C 1.5625 -0.0742188 1.519531 -0.59375 1.519531 -2.03125 L 1.519531 -5.007812 C 1.871094 -5.132812 2.28125 -5.21875 2.652344 -5.21875 C 3.152344 -5.21875 4.296875 -5.175781 4.296875 -3.539062 C 4.296875 -3.539062 4.304688 -2.25 4.304688 -2.03125 C 4.304688 -0.59375 4.261719 -0.0742188 3.632812 -0.0742188 L 3.632812 0 L 5.605469 0 L 5.605469 -0.0742188 C 4.976562 -0.0742188 4.933594 -0.59375 4.933594 -2.03125 L 4.933594 -3.691406 C 4.933594 -5.226562 3.632812 -5.320312 2.984375 -5.320312 C 2.660156 -5.320312 1.785156 -5.199219 1.519531 -5.199219 L 1.519531 -7.308594 L 0.21875 -7.308594 L 0.21875 -7.238281 C 0.847656 -7.238281 0.890625 -6.71875 0.890625 -5.277344 L 0.890625 -2.03125 C 0.890625 -0.59375 0.847656 -0.0742188 0.21875 -0.0742188 Z M 0.21875 -0.0742188 "/></g></g></g><g clip-path="url(#id1)"><path fill="#dc661f" d="M 76.117188 13.054688 C 76.128906 13.082031 76.125 13.101562 76.097656 13.113281 C 76.089844 13.117188 76.085938 13.117188 76.078125 13.117188 C 76.058594 13.117188 76.046875 13.109375 76.039062 13.097656 C 76.03125 13.085938 75.601562 12.320312 74.714844 12.03125 L 75.730469 13.078125 C 75.742188 13.089844 75.746094 13.105469 75.738281 13.125 C 75.730469 13.140625 75.71875 13.148438 75.699219 13.148438 C 75.6875 13.148438 75.675781 13.144531 75.667969 13.136719 L 74.550781 11.984375 C 74.40625 11.949219 74.261719 11.929688 74.109375 11.921875 L 75.230469 13.078125 C 75.242188 13.09375 75.246094 13.105469 75.238281 13.125 C 75.230469 13.140625 75.21875 13.148438 75.199219 13.148438 C 75.1875 13.148438 75.175781 13.144531 75.167969 13.136719 L 73.988281 11.921875 C 73.953125 11.921875 73.914062 11.921875 73.878906 11.921875 C 73.796875 11.925781 73.714844 11.9375 73.636719 11.945312 L 74.730469 13.078125 C 74.75 13.097656 74.75 13.117188 74.730469 13.136719 C 74.722656 13.144531 74.714844 13.148438 74.703125 13.148438 C 74.6875 13.148438 74.679688 13.144531 74.667969 13.132812 L 73.53125 11.964844 C 73.425781 11.984375 73.324219 12.007812 73.21875 12.035156 L 74.230469 13.082031 C 74.253906 13.101562 74.253906 13.121094 74.230469 13.140625 C 74.222656 13.148438 74.214844 13.152344 74.203125 13.152344 C 74.1875 13.152344 74.179688 13.148438 74.167969 13.136719 L 73.128906 12.0625 C 73.03125 12.09375 72.9375 12.125 72.84375 12.160156 L 73.734375 13.078125 C 73.753906 13.101562 73.753906 13.121094 73.734375 13.140625 C 73.726562 13.148438 73.714844 13.152344 73.703125 13.152344 C 73.691406 13.152344 73.679688 13.148438 73.671875 13.136719 L 72.757812 12.195312 C 72.667969 12.234375 72.578125 12.273438 72.492188 12.3125 L 73.234375 13.078125 C 73.257812 13.101562 73.257812 13.121094 73.234375 13.140625 C 73.226562 13.148438 73.21875 13.152344 73.207031 13.152344 C 73.195312 13.152344 73.183594 13.148438 73.175781 13.136719 L 72.414062 12.351562 C 72.328125 12.398438 72.242188 12.441406 72.164062 12.488281 L 72.738281 13.078125 C 72.757812 13.097656 72.757812 13.121094 72.738281 13.140625 C 72.730469 13.148438 72.71875 13.152344 72.707031 13.152344 C 72.695312 13.152344 72.683594 13.144531 72.675781 13.136719 L 72.085938 12.53125 C 72 12.582031 71.921875 12.632812 71.847656 12.679688 L 72.238281 13.078125 C 72.257812 13.097656 72.257812 13.117188 72.238281 13.136719 C 72.230469 13.144531 72.21875 13.148438 72.207031 13.148438 C 72.195312 13.148438 72.183594 13.144531 72.175781 13.136719 L 71.78125 12.726562 C 71.695312 12.785156 71.621094 12.839844 71.558594 12.890625 L 71.742188 13.078125 C 71.761719 13.097656 71.761719 13.117188 71.742188 13.136719 C 71.734375 13.144531 71.722656 13.148438 71.710938 13.148438 C 71.699219 13.148438 71.6875 13.144531 71.679688 13.136719 L 71.492188 12.941406 C 71.390625 13.023438 71.328125 13.082031 71.300781 13.105469 C 71.289062 13.113281 71.277344 13.117188 71.265625 13.113281 C 71.253906 13.117188 71.242188 13.113281 71.234375 13.105469 C 71.171875 13.050781 71.109375 12.996094 71.039062 12.941406 L 70.851562 13.136719 C 70.84375 13.144531 70.832031 13.152344 70.820312 13.152344 C 70.808594 13.152344 70.796875 13.148438 70.789062 13.140625 C 70.769531 13.121094 70.769531 13.097656 70.789062 13.078125 L 70.972656 12.890625 C 70.902344 12.835938 70.828125 12.78125 70.75 12.726562 L 70.355469 13.136719 C 70.347656 13.148438 70.335938 13.152344 70.324219 13.152344 C 70.3125 13.152344 70.300781 13.148438 70.292969 13.140625 C 70.273438 13.121094 70.273438 13.101562 70.292969 13.078125 L 70.679688 12.679688 C 70.605469 12.628906 70.527344 12.578125 70.445312 12.53125 L 69.84375 13.136719 C 69.835938 13.144531 69.824219 13.148438 69.8125 13.148438 C 69.800781 13.148438 69.789062 13.144531 69.78125 13.136719 C 69.761719 13.117188 69.761719 13.097656 69.78125 13.078125 L 70.355469 12.484375 C 70.273438 12.441406 70.191406 12.394531 70.105469 12.351562 L 69.347656 13.136719 C 69.335938 13.144531 69.328125 13.152344 69.3125 13.152344 C 69.300781 13.152344 69.292969 13.148438 69.285156 13.140625 C 69.261719 13.121094 69.261719 13.097656 69.285156 13.078125 L 70.027344 12.3125 C 69.941406 12.269531 69.851562 12.230469 69.761719 12.195312 L 68.84375 13.136719 C 68.835938 13.144531 68.824219 13.148438 68.8125 13.148438 C 68.792969 13.148438 68.78125 13.140625 68.773438 13.125 C 68.765625 13.105469 68.769531 13.089844 68.78125 13.078125 L 69.667969 12.160156 C 69.574219 12.125 69.480469 12.089844 69.382812 12.0625 L 68.34375 13.136719 C 68.335938 13.144531 68.324219 13.148438 68.3125 13.152344 C 68.292969 13.148438 68.277344 13.140625 68.269531 13.125 C 68.261719 13.109375 68.265625 13.09375 68.28125 13.078125 L 69.289062 12.035156 C 69.1875 12.007812 69.082031 11.980469 68.980469 11.964844 L 67.847656 13.136719 C 67.835938 13.144531 67.828125 13.148438 67.8125 13.148438 C 67.792969 13.148438 67.78125 13.140625 67.773438 13.125 C 67.765625 13.105469 67.769531 13.089844 67.78125 13.078125 L 68.878906 11.949219 C 68.796875 11.9375 68.714844 11.929688 68.636719 11.921875 C 68.597656 11.921875 68.5625 11.921875 68.523438 11.921875 L 67.347656 13.136719 C 67.335938 13.144531 67.328125 13.148438 67.3125 13.148438 C 67.296875 13.148438 67.28125 13.140625 67.273438 13.125 C 67.265625 13.105469 67.269531 13.089844 67.28125 13.078125 L 68.402344 11.921875 C 68.253906 11.925781 68.109375 11.949219 67.964844 11.984375 L 66.847656 13.136719 C 66.839844 13.144531 66.828125 13.148438 66.816406 13.148438 C 66.804688 13.148438 66.792969 13.144531 66.785156 13.136719 C 66.765625 13.117188 66.765625 13.097656 66.785156 13.078125 L 67.800781 12.03125 C 66.914062 12.320312 66.484375 13.085938 66.476562 13.097656 C 66.46875 13.113281 66.457031 13.117188 66.4375 13.117188 C 66.429688 13.117188 66.425781 13.117188 66.417969 13.113281 C 66.390625 13.101562 66.386719 13.082031 66.398438 13.054688 C 66.40625 13.042969 67.136719 11.753906 68.644531 11.839844 C 69.03125 11.867188 69.402344 11.953125 69.757812 12.101562 L 69.769531 12.105469 C 70.320312 12.332031 70.816406 12.636719 71.257812 13.019531 C 71.707031 12.640625 72.203125 12.335938 72.75 12.105469 L 72.753906 12.105469 C 73.113281 11.957031 73.484375 11.871094 73.875 11.84375 C 75.378906 11.75 76.109375 13.042969 76.117188 13.054688 Z M 72.808594 10.492188 C 72.050781 10.976562 71.519531 11.832031 71.257812 12.507812 C 71.082031 12.066406 70.84375 11.65625 70.550781 11.277344 L 70.535156 11.261719 C 70.304688 10.960938 70.027344 10.707031 69.707031 10.492188 C 68.445312 9.6875 67.148438 10.453125 67.136719 10.460938 C 67.113281 10.476562 67.109375 10.496094 67.125 10.519531 C 67.140625 10.539062 67.160156 10.546875 67.183594 10.535156 C 67.191406 10.527344 67.960938 10.074219 68.878906 10.25 L 67.460938 10.667969 C 67.433594 10.671875 67.425781 10.691406 67.429688 10.714844 C 67.433594 10.738281 67.445312 10.75 67.472656 10.75 C 67.476562 10.75 67.480469 10.75 67.484375 10.75 L 69.046875 10.292969 C 69.1875 10.332031 69.328125 10.386719 69.457031 10.457031 L 67.890625 10.914062 C 67.863281 10.921875 67.851562 10.941406 67.863281 10.96875 C 67.867188 10.988281 67.882812 10.996094 67.902344 10.996094 C 67.910156 10.996094 67.914062 10.996094 67.917969 10.996094 L 69.566406 10.511719 C 69.597656 10.53125 69.628906 10.546875 69.660156 10.566406 C 69.726562 10.609375 69.789062 10.65625 69.855469 10.707031 L 68.324219 11.152344 C 68.300781 11.160156 68.289062 11.175781 68.292969 11.199219 C 68.296875 11.226562 68.3125 11.238281 68.335938 11.238281 C 68.339844 11.238281 68.34375 11.238281 68.347656 11.238281 L 69.9375 10.773438 C 70.019531 10.839844 70.09375 10.910156 70.167969 10.984375 L 68.757812 11.394531 C 68.730469 11.398438 68.722656 11.414062 68.726562 11.441406 C 68.726562 11.464844 68.742188 11.476562 68.769531 11.476562 C 68.773438 11.476562 68.777344 11.476562 68.78125 11.476562 L 70.234375 11.050781 C 70.304688 11.121094 70.371094 11.195312 70.433594 11.273438 L 69.1875 11.636719 C 69.160156 11.644531 69.148438 11.664062 69.160156 11.691406 C 69.164062 11.710938 69.179688 11.722656 69.199219 11.722656 C 69.207031 11.722656 69.210938 11.722656 69.214844 11.722656 L 70.488281 11.347656 C 70.550781 11.421875 70.605469 11.5 70.660156 11.578125 L 69.621094 11.882812 C 69.597656 11.886719 69.585938 11.90625 69.589844 11.929688 C 69.59375 11.953125 69.609375 11.964844 69.632812 11.964844 C 69.636719 11.964844 69.640625 11.964844 69.648438 11.964844 L 70.710938 11.65625 C 70.761719 11.734375 70.808594 11.8125 70.855469 11.890625 L 70.054688 12.125 C 70.027344 12.132812 70.019531 12.148438 70.023438 12.171875 C 70.027344 12.199219 70.039062 12.210938 70.066406 12.210938 C 70.070312 12.210938 70.074219 12.210938 70.078125 12.210938 L 70.898438 11.96875 C 70.945312 12.050781 70.988281 12.128906 71.027344 12.210938 L 70.488281 12.371094 C 70.460938 12.375 70.453125 12.390625 70.457031 12.417969 C 70.457031 12.441406 70.472656 12.453125 70.5 12.453125 C 70.503906 12.453125 70.507812 12.453125 70.511719 12.453125 L 71.0625 12.292969 C 71.101562 12.375 71.140625 12.460938 71.171875 12.539062 L 70.921875 12.601562 C 70.894531 12.609375 70.886719 12.625 70.890625 12.648438 C 70.890625 12.675781 70.90625 12.6875 70.933594 12.6875 C 70.9375 12.6875 70.941406 12.6875 70.945312 12.6875 L 71.203125 12.609375 C 71.207031 12.621094 71.210938 12.632812 71.214844 12.644531 C 71.21875 12.65625 71.230469 12.667969 71.242188 12.671875 C 71.25 12.671875 71.253906 12.671875 71.257812 12.671875 C 71.277344 12.671875 71.292969 12.660156 71.300781 12.640625 C 71.304688 12.632812 71.308594 12.621094 71.3125 12.609375 L 71.570312 12.683594 C 71.574219 12.683594 71.578125 12.683594 71.582031 12.683594 C 71.609375 12.683594 71.621094 12.671875 71.625 12.648438 C 71.628906 12.621094 71.621094 12.605469 71.59375 12.601562 L 71.34375 12.527344 C 71.375 12.445312 71.410156 12.363281 71.449219 12.277344 L 72.003906 12.4375 C 72.007812 12.441406 72.011719 12.441406 72.015625 12.4375 C 72.039062 12.4375 72.050781 12.429688 72.058594 12.410156 C 72.066406 12.382812 72.058594 12.363281 72.027344 12.355469 L 71.484375 12.191406 C 71.523438 12.113281 71.566406 12.03125 71.613281 11.949219 L 72.433594 12.191406 C 72.441406 12.191406 72.445312 12.191406 72.449219 12.191406 C 72.472656 12.191406 72.488281 12.179688 72.492188 12.15625 C 72.496094 12.128906 72.484375 12.113281 72.460938 12.109375 L 71.65625 11.871094 C 71.703125 11.792969 71.75 11.710938 71.800781 11.636719 L 72.867188 11.945312 C 72.871094 11.949219 72.875 11.949219 72.882812 11.945312 C 72.90625 11.945312 72.921875 11.933594 72.925781 11.910156 C 72.929688 11.886719 72.917969 11.871094 72.894531 11.863281 L 71.851562 11.558594 C 71.90625 11.480469 71.960938 11.40625 72.019531 11.328125 L 73.296875 11.703125 C 73.300781 11.707031 73.304688 11.707031 73.3125 11.703125 C 73.332031 11.703125 73.347656 11.695312 73.351562 11.675781 C 73.363281 11.648438 73.351562 11.628906 73.324219 11.621094 L 72.074219 11.253906 C 72.136719 11.179688 72.207031 11.105469 72.273438 11.035156 L 73.730469 11.460938 C 73.734375 11.460938 73.738281 11.460938 73.742188 11.460938 C 73.769531 11.460938 73.785156 11.449219 73.785156 11.425781 C 73.789062 11.398438 73.78125 11.382812 73.753906 11.375 L 72.339844 10.960938 C 72.417969 10.890625 72.492188 10.816406 72.574219 10.75 L 74.164062 11.214844 C 74.167969 11.21875 74.171875 11.21875 74.175781 11.214844 C 74.199219 11.214844 74.210938 11.207031 74.21875 11.1875 C 74.226562 11.160156 74.21875 11.140625 74.1875 11.132812 L 72.65625 10.683594 C 72.722656 10.636719 72.785156 10.589844 72.851562 10.546875 C 72.882812 10.527344 72.917969 10.507812 72.949219 10.492188 L 74.59375 10.976562 C 74.597656 10.976562 74.605469 10.976562 74.609375 10.976562 C 74.632812 10.976562 74.648438 10.964844 74.652344 10.941406 C 74.65625 10.914062 74.644531 10.898438 74.621094 10.894531 L 73.054688 10.433594 C 73.1875 10.367188 73.324219 10.3125 73.464844 10.273438 L 75.027344 10.730469 C 75.03125 10.730469 75.035156 10.730469 75.039062 10.730469 C 75.066406 10.730469 75.078125 10.71875 75.082031 10.695312 C 75.085938 10.667969 75.078125 10.652344 75.050781 10.648438 L 73.632812 10.230469 C 74.550781 10.054688 75.320312 10.507812 75.328125 10.511719 C 75.355469 10.527344 75.375 10.523438 75.390625 10.5 C 75.40625 10.476562 75.402344 10.457031 75.375 10.441406 C 75.363281 10.453125 74.066406 9.6875 72.808594 10.492188 Z M 69.742188 19.425781 L 69.742188 18.242188 C 69.742188 18.082031 69.800781 17.945312 69.917969 17.828125 C 70.035156 17.714844 70.179688 17.65625 70.34375 17.65625 C 70.511719 17.65625 70.652344 17.714844 70.773438 17.828125 C 70.890625 17.945312 70.949219 18.082031 70.949219 18.242188 L 70.949219 19.425781 C 70.949219 19.453125 70.933594 19.46875 70.90625 19.46875 L 69.785156 19.46875 C 69.753906 19.46875 69.742188 19.453125 69.742188 19.425781 Z M 69.828125 19.382812 L 70.859375 19.382812 L 70.859375 18.242188 C 70.859375 18.101562 70.8125 17.984375 70.710938 17.886719 C 70.609375 17.789062 70.488281 17.742188 70.34375 17.742188 C 70.203125 17.742188 70.082031 17.789062 69.980469 17.886719 C 69.878906 17.984375 69.828125 18.101562 69.828125 18.242188 Z M 67.789062 19.425781 L 67.789062 18.242188 C 67.789062 18.082031 67.847656 17.945312 67.964844 17.828125 C 68.082031 17.714844 68.222656 17.660156 68.390625 17.660156 C 68.558594 17.660156 68.699219 17.714844 68.816406 17.828125 C 68.933594 17.945312 68.996094 18.082031 68.996094 18.242188 L 68.996094 19.425781 C 68.996094 19.453125 68.980469 19.46875 68.949219 19.46875 L 67.832031 19.46875 C 67.800781 19.46875 67.785156 19.453125 67.785156 19.425781 Z M 67.875 19.382812 L 68.90625 19.382812 L 68.90625 18.242188 C 68.90625 18.101562 68.855469 17.984375 68.753906 17.886719 C 68.65625 17.789062 68.535156 17.742188 68.390625 17.742188 C 68.25 17.742188 68.125 17.789062 68.027344 17.886719 C 67.925781 17.984375 67.875 18.101562 67.875 18.242188 Z M 65.832031 19.425781 L 65.832031 18.242188 C 65.832031 18.082031 65.890625 17.945312 66.007812 17.828125 C 66.128906 17.714844 66.269531 17.65625 66.4375 17.65625 C 66.601562 17.65625 66.746094 17.714844 66.863281 17.828125 C 66.980469 17.945312 67.039062 18.082031 67.039062 18.242188 L 67.039062 19.425781 C 67.039062 19.453125 67.027344 19.46875 66.996094 19.46875 L 65.875 19.46875 C 65.847656 19.46875 65.832031 19.453125 65.832031 19.425781 Z M 65.921875 19.382812 L 66.953125 19.382812 L 66.953125 18.242188 C 66.949219 18.105469 66.894531 17.992188 66.796875 17.898438 C 66.695312 17.804688 66.574219 17.757812 66.4375 17.757812 C 66.296875 17.757812 66.175781 17.804688 66.078125 17.898438 C 65.976562 17.992188 65.925781 18.105469 65.921875 18.242188 Z M 65.277344 11.480469 C 65.277344 11.710938 65.234375 11.929688 65.144531 12.144531 C 65.050781 12.355469 64.925781 12.542969 64.757812 12.703125 C 64.589844 12.863281 64.398438 12.988281 64.179688 13.078125 C 63.960938 13.164062 63.734375 13.207031 63.496094 13.207031 C 63.261719 13.207031 63.035156 13.164062 62.816406 13.078125 C 62.597656 12.988281 62.40625 12.863281 62.238281 12.703125 C 62.070312 12.542969 61.941406 12.355469 61.851562 12.144531 C 61.761719 11.929688 61.714844 11.710938 61.714844 11.480469 C 61.714844 11.253906 61.761719 11.03125 61.851562 10.820312 C 61.941406 10.609375 62.070312 10.421875 62.238281 10.261719 C 62.40625 10.101562 62.597656 9.976562 62.816406 9.886719 C 63.035156 9.800781 63.261719 9.757812 63.496094 9.757812 C 63.734375 9.757812 63.960938 9.800781 64.179688 9.886719 C 64.398438 9.976562 64.589844 10.101562 64.757812 10.261719 C 64.921875 10.425781 65.050781 10.609375 65.140625 10.820312 C 65.234375 11.035156 65.277344 11.253906 65.277344 11.480469 Z M 65.191406 11.480469 C 65.191406 11.265625 65.148438 11.054688 65.0625 10.855469 C 64.976562 10.652344 64.855469 10.476562 64.695312 10.320312 C 64.535156 10.167969 64.351562 10.046875 64.144531 9.964844 C 63.9375 9.882812 63.722656 9.839844 63.496094 9.839844 C 63.273438 9.839844 63.054688 9.882812 62.847656 9.964844 C 62.640625 10.046875 62.457031 10.167969 62.300781 10.320312 C 62.140625 10.476562 62.019531 10.652344 61.933594 10.855469 C 61.847656 11.054688 61.804688 11.265625 61.804688 11.480469 C 61.804688 11.699219 61.847656 11.910156 61.933594 12.109375 C 62.019531 12.3125 62.140625 12.488281 62.300781 12.644531 C 62.457031 12.796875 62.640625 12.914062 62.847656 13 C 63.054688 13.082031 63.273438 13.125 63.496094 13.125 C 63.722656 13.125 63.9375 13.082031 64.144531 13 C 64.351562 12.914062 64.535156 12.796875 64.695312 12.644531 C 64.855469 12.488281 64.976562 12.3125 65.0625 12.109375 C 65.148438 11.910156 65.191406 11.699219 65.191406 11.480469 Z M 77.605469 13.320312 L 77.605469 28.367188 C 77.605469 28.40625 77.589844 28.421875 77.550781 28.421875 L 58.324219 28.421875 C 58.289062 28.421875 58.269531 28.40625 58.269531 28.367188 L 58.269531 13.324219 C 58.269531 8.15625 62.605469 3.953125 67.9375 3.953125 C 73.269531 3.953125 77.605469 8.15625 77.605469 13.324219 Z M 77.496094 13.320312 C 77.496094 8.21875 73.207031 4.0625 67.9375 4.0625 C 62.667969 4.0625 58.378906 8.21875 58.378906 13.324219 L 58.378906 28.316406 L 77.496094 28.316406 Z M 76.945312 13.320312 L 76.945312 27.726562 C 76.945312 27.761719 76.925781 27.78125 76.890625 27.78125 L 58.988281 27.78125 C 58.949219 27.78125 58.929688 27.761719 58.929688 27.726562 L 58.929688 24.953125 L 58.914062 24.953125 C 58.886719 24.953125 58.871094 24.9375 58.871094 24.910156 L 58.871094 23.910156 C 58.871094 23.882812 58.886719 23.867188 58.914062 23.867188 L 58.929688 23.867188 L 58.929688 13.324219 C 58.929688 8.511719 62.972656 4.59375 67.9375 4.59375 C 72.90625 4.59375 76.945312 8.511719 76.945312 13.324219 Z M 73.785156 22.785156 C 74.09375 22.878906 74.40625 22.980469 74.714844 23.09375 C 74.796875 20.816406 74.46875 16.683594 71.507812 13.667969 C 71.957031 14.351562 72.335938 15.074219 72.648438 15.828125 C 73.269531 17.324219 73.972656 19.746094 73.785156 22.792969 Z M 71.300781 13.34375 C 71.375 13.414062 71.449219 13.488281 71.523438 13.558594 L 71.460938 13.316406 C 71.398438 13.332031 71.347656 13.339844 71.300781 13.347656 Z M 71.9375 22.460938 L 71.9375 24.863281 L 76.832031 24.863281 L 76.832031 24.242188 C 75.300781 23.25 73.542969 22.726562 71.9375 22.464844 Z M 71.847656 16.960938 L 64.683594 16.960938 L 64.683594 19.910156 C 64.683594 19.941406 64.667969 19.953125 64.636719 19.953125 L 63.59375 19.953125 L 63.59375 20.910156 C 63.59375 20.9375 63.582031 20.953125 63.550781 20.953125 L 62.4375 20.953125 L 62.4375 21.914062 C 62.4375 21.945312 62.421875 21.957031 62.394531 21.957031 L 61.277344 21.957031 L 61.277344 22.914062 C 61.277344 22.941406 61.261719 22.957031 61.234375 22.957031 L 60.117188 22.957031 L 60.117188 23.914062 C 60.117188 23.941406 60.101562 23.957031 60.074219 23.957031 L 59.046875 23.957031 L 59.046875 24.871094 L 64.316406 24.871094 C 64.058594 24.644531 63.71875 24.5 63.304688 24.441406 C 62.675781 24.351562 62.089844 24.492188 61.863281 24.554688 C 61.835938 24.5625 61.816406 24.554688 61.808594 24.527344 C 61.800781 24.5 61.808594 24.484375 61.835938 24.476562 C 62.066406 24.410156 62.671875 24.265625 63.316406 24.355469 C 63.527344 24.382812 63.726562 24.4375 63.921875 24.523438 C 63.390625 24.144531 62.710938 23.910156 62.160156 24.027344 C 62.128906 24.035156 62.113281 24.023438 62.105469 23.996094 C 62.101562 23.96875 62.109375 23.953125 62.140625 23.945312 C 62.6875 23.828125 63.496094 24.058594 64.113281 24.546875 C 63.539062 23.90625 62.90625 23.554688 62.492188 23.539062 C 62.464844 23.539062 62.449219 23.523438 62.449219 23.496094 C 62.449219 23.46875 62.464844 23.453125 62.492188 23.453125 C 63.140625 23.476562 63.851562 24.097656 64.328125 24.679688 C 63.976562 24.070312 63.40625 23.261719 62.863281 23.066406 C 62.839844 23.054688 62.832031 23.039062 62.839844 23.011719 C 62.851562 22.988281 62.867188 22.980469 62.894531 22.988281 C 63.222656 23.105469 63.589844 23.4375 63.980469 23.976562 C 64.144531 24.207031 64.296875 24.445312 64.4375 24.691406 C 64.191406 24.007812 63.730469 22.875 63.277344 22.625 C 63.25 22.609375 63.246094 22.589844 63.261719 22.566406 C 63.273438 22.542969 63.292969 22.535156 63.320312 22.550781 C 63.773438 22.800781 64.214844 23.832031 64.472656 24.53125 C 64.304688 23.757812 64.003906 22.558594 63.707031 22.210938 C 63.6875 22.1875 63.6875 22.167969 63.710938 22.152344 C 63.734375 22.132812 63.753906 22.136719 63.773438 22.15625 C 64.082031 22.515625 64.382812 23.707031 64.554688 24.488281 C 64.476562 23.625 64.332031 22.246094 64.15625 21.847656 C 64.144531 21.820312 64.152344 21.804688 64.179688 21.792969 C 64.207031 21.78125 64.222656 21.789062 64.234375 21.816406 C 64.394531 22.183594 64.53125 23.320312 64.613281 24.175781 L 64.613281 21.539062 C 64.609375 21.507812 64.625 21.492188 64.65625 21.492188 C 64.6875 21.492188 64.703125 21.507812 64.699219 21.539062 L 64.699219 24.179688 C 64.78125 23.320312 64.917969 22.1875 65.078125 21.816406 C 65.089844 21.792969 65.105469 21.785156 65.132812 21.796875 C 65.160156 21.804688 65.167969 21.824219 65.15625 21.847656 C 64.980469 22.25 64.835938 23.628906 64.757812 24.492188 C 64.894531 23.867188 65.113281 22.988281 65.355469 22.472656 C 65.363281 22.445312 65.375 22.421875 65.386719 22.398438 C 65.429688 22.3125 65.480469 22.234375 65.539062 22.160156 C 65.558594 22.140625 65.578125 22.136719 65.601562 22.15625 C 65.625 22.171875 65.625 22.191406 65.605469 22.214844 C 65.5625 22.265625 65.527344 22.320312 65.496094 22.378906 C 65.480469 22.410156 65.460938 22.441406 65.445312 22.476562 C 65.445312 22.480469 65.441406 22.484375 65.441406 22.488281 C 65.410156 22.550781 65.382812 22.617188 65.351562 22.691406 C 65.148438 23.214844 64.960938 23.984375 64.835938 24.535156 C 64.984375 24.128906 65.15625 23.734375 65.351562 23.351562 C 65.382812 23.300781 65.410156 23.246094 65.441406 23.195312 C 65.613281 22.898438 65.800781 22.65625 65.992188 22.550781 C 66.015625 22.535156 66.035156 22.542969 66.050781 22.566406 C 66.066406 22.589844 66.058594 22.609375 66.035156 22.625 C 65.832031 22.738281 65.628906 23.027344 65.441406 23.371094 C 65.410156 23.425781 65.382812 23.484375 65.351562 23.542969 C 65.171875 23.917969 65.011719 24.300781 64.875 24.691406 C 65.011719 24.445312 65.164062 24.207031 65.332031 23.976562 L 65.351562 23.949219 C 65.382812 23.910156 65.410156 23.871094 65.441406 23.832031 C 65.789062 23.378906 66.117188 23.09375 66.417969 22.988281 C 66.445312 22.976562 66.464844 22.984375 66.476562 23.011719 C 66.488281 23.039062 66.476562 23.058594 66.445312 23.066406 C 66.101562 23.191406 65.746094 23.5625 65.441406 23.976562 C 65.410156 24.015625 65.382812 24.058594 65.351562 24.097656 C 65.214844 24.296875 65.089844 24.496094 64.984375 24.679688 C 65.101562 24.535156 65.222656 24.402344 65.351562 24.269531 C 65.382812 24.242188 65.410156 24.214844 65.441406 24.1875 C 65.859375 23.789062 66.355469 23.46875 66.820312 23.453125 C 66.847656 23.453125 66.863281 23.464844 66.863281 23.496094 C 66.863281 23.523438 66.847656 23.535156 66.820312 23.539062 C 66.464844 23.550781 65.941406 23.8125 65.4375 24.296875 C 65.410156 24.324219 65.378906 24.351562 65.351562 24.382812 C 65.300781 24.433594 65.25 24.488281 65.199219 24.542969 C 65.25 24.503906 65.300781 24.46875 65.351562 24.433594 C 65.378906 24.414062 65.40625 24.394531 65.4375 24.375 C 66.015625 24.007812 66.695312 23.839844 67.175781 23.945312 C 67.203125 23.949219 67.214844 23.96875 67.207031 23.996094 C 67.199219 24.023438 67.183594 24.035156 67.15625 24.027344 C 66.617188 23.910156 65.960938 24.136719 65.433594 24.488281 C 65.417969 24.5 65.40625 24.511719 65.390625 24.519531 C 65.40625 24.515625 65.417969 24.507812 65.433594 24.503906 C 65.617188 24.429688 65.800781 24.382812 65.996094 24.355469 C 66.640625 24.265625 67.242188 24.410156 67.472656 24.472656 C 67.5 24.484375 67.511719 24.5 67.503906 24.527344 C 67.492188 24.554688 67.476562 24.566406 67.445312 24.554688 C 66.828125 24.378906 66.050781 24.328125 65.433594 24.597656 C 65.402344 24.609375 65.375 24.621094 65.347656 24.636719 C 65.21875 24.699219 65.101562 24.777344 64.996094 24.867188 L 68.605469 24.867188 L 68.605469 22.480469 C 68.609375 22.390625 68.617188 22.304688 68.640625 22.21875 C 68.648438 22.191406 68.65625 22.164062 68.664062 22.132812 C 68.746094 21.894531 68.894531 21.699219 69.109375 21.554688 C 69.328125 21.410156 69.566406 21.347656 69.828125 21.359375 C 70.089844 21.371094 70.320312 21.460938 70.523438 21.625 C 70.722656 21.789062 70.851562 21.992188 70.910156 22.242188 C 70.914062 22.269531 70.917969 22.300781 70.921875 22.328125 C 70.929688 22.378906 70.933594 22.429688 70.933594 22.476562 L 70.933594 24.867188 L 71.835938 24.867188 L 71.835938 16.960938 Z M 70.859375 24.863281 L 70.859375 22.476562 C 70.859375 22.421875 70.855469 22.371094 70.847656 22.316406 C 70.839844 22.285156 70.835938 22.257812 70.828125 22.230469 C 70.773438 22.003906 70.652344 21.820312 70.46875 21.671875 C 70.285156 21.523438 70.074219 21.445312 69.839844 21.433594 C 69.601562 21.421875 69.382812 21.480469 69.183594 21.609375 C 68.988281 21.738281 68.847656 21.910156 68.769531 22.128906 C 68.761719 22.15625 68.75 22.183594 68.742188 22.214844 C 68.71875 22.300781 68.707031 22.386719 68.707031 22.476562 L 68.707031 24.863281 Z M 76.832031 24.949219 L 64.921875 24.949219 C 64.863281 25.011719 64.808594 25.074219 64.761719 25.140625 L 64.75 25.15625 C 64.734375 25.179688 64.714844 25.210938 64.699219 25.234375 L 64.660156 25.234375 C 64.644531 25.207031 64.628906 25.183594 64.613281 25.160156 L 64.597656 25.140625 C 64.550781 25.074219 64.5 25.007812 64.441406 24.949219 L 59.046875 24.949219 L 59.046875 27.671875 L 76.832031 27.671875 Z M 76.832031 13.320312 C 76.832031 8.570312 72.84375 4.707031 67.9375 4.707031 C 63.03125 4.707031 59.046875 8.570312 59.046875 13.324219 L 59.046875 23.867188 L 60.03125 23.867188 L 60.03125 22.914062 C 60.03125 22.882812 60.046875 22.871094 60.078125 22.871094 L 61.191406 22.871094 L 61.191406 21.914062 C 61.191406 21.886719 61.203125 21.871094 61.234375 21.871094 L 62.351562 21.871094 L 62.351562 20.914062 C 62.351562 20.886719 62.363281 20.871094 62.394531 20.871094 L 63.511719 20.871094 L 63.511719 19.914062 C 63.511719 19.886719 63.523438 19.875 63.554688 19.875 L 64.59375 19.875 L 64.59375 16.921875 C 64.59375 16.894531 64.609375 16.878906 64.636719 16.878906 L 71.894531 16.878906 C 71.921875 16.878906 71.9375 16.894531 71.9375 16.921875 L 71.9375 22.378906 C 72.53125 22.476562 73.121094 22.605469 73.699219 22.765625 C 73.878906 19.746094 73.183594 17.347656 72.566406 15.863281 C 71.917969 14.304688 71.21875 13.40625 71.164062 13.339844 L 71.050781 13.320312 L 70.988281 13.578125 C 70.980469 13.597656 70.96875 13.609375 70.945312 13.609375 L 70.933594 13.609375 C 70.90625 13.601562 70.894531 13.585938 70.902344 13.558594 L 70.960938 13.308594 C 70.882812 13.296875 70.789062 13.285156 70.683594 13.273438 L 70.554688 13.820312 C 70.546875 13.839844 70.535156 13.851562 70.511719 13.851562 L 70.5 13.851562 C 70.472656 13.84375 70.460938 13.828125 70.46875 13.800781 L 70.597656 13.269531 C 70.507812 13.261719 70.414062 13.257812 70.316406 13.253906 L 70.121094 14.0625 C 70.117188 14.082031 70.101562 14.09375 70.078125 14.09375 L 70.070312 14.09375 C 70.039062 14.085938 70.027344 14.070312 70.035156 14.042969 L 70.226562 13.253906 C 70.136719 13.253906 70.039062 13.253906 69.941406 13.257812 L 69.6875 14.304688 C 69.683594 14.324219 69.667969 14.335938 69.644531 14.335938 L 69.636719 14.335938 C 69.609375 14.332031 69.597656 14.3125 69.601562 14.285156 L 69.851562 13.257812 C 69.757812 13.261719 69.660156 13.269531 69.5625 13.28125 L 69.253906 14.542969 C 69.25 14.566406 69.234375 14.578125 69.210938 14.578125 L 69.203125 14.578125 C 69.175781 14.570312 69.164062 14.554688 69.171875 14.527344 L 69.46875 13.296875 C 69.367188 13.3125 69.269531 13.328125 69.171875 13.351562 L 68.824219 14.789062 C 68.816406 14.808594 68.804688 14.820312 68.78125 14.820312 L 68.769531 14.820312 C 68.742188 14.8125 68.730469 14.796875 68.738281 14.769531 L 69.074219 13.375 C 68.972656 13.398438 68.871094 13.429688 68.769531 13.464844 L 68.390625 15.03125 C 68.386719 15.050781 68.371094 15.0625 68.347656 15.0625 L 68.335938 15.0625 C 68.308594 15.058594 68.296875 15.039062 68.304688 15.011719 L 68.671875 13.503906 C 68.59375 13.53125 68.523438 13.5625 68.449219 13.597656 C 68.414062 13.613281 68.382812 13.632812 68.351562 13.652344 L 67.957031 15.277344 C 67.953125 15.296875 67.9375 15.308594 67.914062 15.308594 L 67.90625 15.308594 C 67.875 15.300781 67.867188 15.285156 67.871094 15.257812 L 68.246094 13.714844 C 68.121094 13.792969 68.003906 13.878906 67.898438 13.980469 L 67.523438 15.519531 C 67.519531 15.539062 67.503906 15.550781 67.480469 15.550781 L 67.472656 15.550781 C 67.445312 15.542969 67.433594 15.527344 67.441406 15.5 L 67.777344 14.101562 C 67.160156 14.78125 67.179688 15.65625 67.183594 15.667969 C 67.183594 15.695312 67.167969 15.707031 67.140625 15.710938 C 67.113281 15.710938 67.097656 15.695312 67.097656 15.667969 C 67.097656 15.65625 67.058594 14.183594 68.410156 13.527344 C 69.550781 12.972656 70.96875 13.21875 71.257812 13.277344 C 71.3125 13.265625 71.390625 13.253906 71.480469 13.242188 C 71.480469 13.242188 71.480469 13.242188 71.484375 13.242188 C 71.488281 13.242188 71.492188 13.242188 71.492188 13.242188 C 71.988281 13.167969 72.484375 13.160156 72.984375 13.214844 L 72.996094 13.214844 C 73.382812 13.261719 73.75 13.363281 74.097656 13.527344 C 75.449219 14.183594 75.414062 15.65625 75.414062 15.671875 C 75.414062 15.699219 75.398438 15.710938 75.371094 15.710938 C 75.339844 15.710938 75.328125 15.695312 75.328125 15.667969 C 75.328125 15.65625 75.347656 14.785156 74.730469 14.101562 L 75.070312 15.5 C 75.078125 15.527344 75.066406 15.546875 75.039062 15.550781 L 75.027344 15.550781 C 75.003906 15.550781 74.988281 15.542969 74.984375 15.519531 L 74.613281 13.980469 C 74.503906 13.882812 74.390625 13.792969 74.265625 13.714844 L 74.636719 15.25 C 74.644531 15.277344 74.632812 15.296875 74.605469 15.300781 L 74.59375 15.300781 C 74.570312 15.300781 74.558594 15.289062 74.554688 15.269531 L 74.160156 13.644531 C 74.128906 13.628906 74.097656 13.609375 74.0625 13.589844 C 73.988281 13.554688 73.914062 13.523438 73.839844 13.496094 L 74.203125 15.003906 C 74.210938 15.03125 74.199219 15.050781 74.171875 15.054688 L 74.164062 15.054688 C 74.140625 15.054688 74.125 15.046875 74.121094 15.023438 L 73.742188 13.457031 C 73.640625 13.421875 73.539062 13.390625 73.433594 13.367188 L 73.773438 14.761719 C 73.777344 14.789062 73.769531 14.804688 73.738281 14.8125 L 73.730469 14.8125 C 73.707031 14.8125 73.691406 14.800781 73.6875 14.78125 L 73.339844 13.34375 C 73.242188 13.324219 73.140625 13.304688 73.042969 13.289062 L 73.339844 14.519531 C 73.347656 14.546875 73.335938 14.5625 73.308594 14.570312 L 73.296875 14.570312 C 73.273438 14.570312 73.261719 14.558594 73.253906 14.535156 L 72.949219 13.277344 C 72.851562 13.265625 72.753906 13.257812 72.660156 13.253906 L 72.90625 14.273438 C 72.914062 14.300781 72.902344 14.320312 72.875 14.324219 L 72.863281 14.324219 C 72.84375 14.324219 72.828125 14.3125 72.824219 14.292969 L 72.570312 13.257812 C 72.472656 13.253906 72.378906 13.25 72.285156 13.253906 L 72.476562 14.042969 C 72.484375 14.070312 72.472656 14.085938 72.445312 14.09375 L 72.433594 14.09375 C 72.410156 14.09375 72.398438 14.082031 72.390625 14.058594 L 72.195312 13.257812 C 72.097656 13.257812 72.003906 13.265625 71.917969 13.269531 L 72.042969 13.800781 C 72.050781 13.828125 72.039062 13.847656 72.011719 13.851562 L 72 13.851562 C 71.980469 13.851562 71.964844 13.839844 71.957031 13.820312 L 71.828125 13.277344 C 71.726562 13.285156 71.632812 13.296875 71.550781 13.308594 L 71.609375 13.558594 C 71.617188 13.585938 71.605469 13.601562 71.578125 13.609375 L 71.566406 13.609375 C 74.566406 16.660156 74.890625 20.84375 74.804688 23.132812 C 75.515625 23.398438 76.191406 23.734375 76.832031 24.140625 Z M 76.832031 13.320312 " fill-opacity="1" fill-rule="nonzero"/></g><g fill="#ff8c00" fill-opacity="1"><g transform="translate(60.482866, 4.507951)"><g><path d="M 0.921875 -2.515625 L 0.328125 -2.328125 L 0.96875 -0.3125 L 0.6875 -0.21875 L 0.046875 -2.234375 L -0.546875 -2.046875 L -0.609375 -2.28125 L 0.859375 -2.75 Z M 0.921875 -2.515625 "/></g></g></g><g fill="#ff8c00" fill-opacity="1"><g transform="translate(63.183869, 3.722084)"><g><path d="M 1.59375 -1.265625 C 1.65625 -0.953125 1.628906 -0.695312 1.515625 -0.5 C 1.410156 -0.300781 1.234375 -0.179688 0.984375 -0.140625 C 0.742188 -0.0976562 0.539062 -0.144531 0.375 -0.28125 C 0.21875 -0.425781 0.109375 -0.648438 0.046875 -0.953125 L -0.03125 -1.40625 C -0.0820312 -1.707031 -0.0546875 -1.960938 0.046875 -2.171875 C 0.148438 -2.378906 0.328125 -2.503906 0.578125 -2.546875 C 0.828125 -2.585938 1.03125 -2.535156 1.1875 -2.390625 C 1.351562 -2.242188 1.46875 -2.015625 1.53125 -1.703125 Z M 1.25 -1.640625 C 1.207031 -1.878906 1.132812 -2.050781 1.03125 -2.15625 C 0.925781 -2.257812 0.789062 -2.296875 0.625 -2.265625 C 0.457031 -2.234375 0.34375 -2.148438 0.28125 -2.015625 C 0.226562 -1.890625 0.222656 -1.710938 0.265625 -1.484375 L 0.328125 -1.046875 C 0.367188 -0.804688 0.4375 -0.628906 0.53125 -0.515625 C 0.632812 -0.410156 0.769531 -0.375 0.9375 -0.40625 C 1.101562 -0.4375 1.21875 -0.507812 1.28125 -0.625 C 1.34375 -0.75 1.359375 -0.941406 1.328125 -1.203125 Z M 1.25 -1.640625 "/></g></g></g><g fill="#ff8c00" fill-opacity="1"><g transform="translate(66.226724, 3.268933)"><g><path d="M 1.578125 -2.421875 L 1.640625 -0.75 C 1.640625 -0.519531 1.578125 -0.335938 1.453125 -0.203125 C 1.335938 -0.078125 1.164062 -0.0078125 0.9375 0 C 0.695312 0.0078125 0.515625 -0.046875 0.390625 -0.171875 C 0.265625 -0.296875 0.195312 -0.472656 0.1875 -0.703125 L 0.125 -2.375 L 0.40625 -2.375 L 0.46875 -0.71875 C 0.476562 -0.550781 0.515625 -0.429688 0.578125 -0.359375 C 0.648438 -0.285156 0.765625 -0.25 0.921875 -0.25 C 1.066406 -0.257812 1.171875 -0.300781 1.234375 -0.375 C 1.304688 -0.457031 1.335938 -0.582031 1.328125 -0.75 L 1.265625 -2.40625 Z M 1.578125 -2.421875 "/></g></g></g><g fill="#ff8c00" fill-opacity="1"><g transform="translate(69.177833, 3.232338)"><g><path d="M 1.0625 -0.859375 L 0.640625 -0.90625 L 0.546875 0.046875 L 0.25 0.015625 L 0.46875 -2.328125 L 1.140625 -2.265625 C 1.367188 -2.234375 1.535156 -2.148438 1.640625 -2.015625 C 1.753906 -1.890625 1.800781 -1.71875 1.78125 -1.5 C 1.769531 -1.351562 1.726562 -1.226562 1.65625 -1.125 C 1.582031 -1.019531 1.476562 -0.953125 1.34375 -0.921875 L 1.71875 0.140625 L 1.71875 0.15625 L 1.390625 0.125 Z M 0.65625 -1.171875 L 1.03125 -1.140625 C 1.15625 -1.117188 1.257812 -1.144531 1.34375 -1.21875 C 1.425781 -1.289062 1.472656 -1.394531 1.484375 -1.53125 C 1.515625 -1.820312 1.390625 -1.984375 1.109375 -2.015625 L 0.75 -2.046875 Z M 0.65625 -1.171875 "/></g></g></g><g fill="#ff8c00" fill-opacity="1"><g transform="translate(72.010125, 3.567569)"><g><path d="M 1.375 -0.296875 C 1.40625 -0.421875 1.394531 -0.519531 1.34375 -0.59375 C 1.300781 -0.664062 1.203125 -0.75 1.046875 -0.84375 C 0.898438 -0.9375 0.789062 -1.023438 0.71875 -1.109375 C 0.644531 -1.191406 0.597656 -1.28125 0.578125 -1.375 C 0.554688 -1.46875 0.5625 -1.5625 0.59375 -1.65625 C 0.625 -1.84375 0.710938 -1.984375 0.859375 -2.078125 C 1.015625 -2.171875 1.191406 -2.195312 1.390625 -2.15625 C 1.523438 -2.125 1.632812 -2.066406 1.71875 -1.984375 C 1.8125 -1.898438 1.875 -1.796875 1.90625 -1.671875 C 1.945312 -1.546875 1.957031 -1.421875 1.9375 -1.296875 L 1.625 -1.359375 C 1.65625 -1.503906 1.644531 -1.625 1.59375 -1.71875 C 1.539062 -1.8125 1.453125 -1.875 1.328125 -1.90625 C 1.210938 -1.925781 1.113281 -1.910156 1.03125 -1.859375 C 0.945312 -1.804688 0.894531 -1.722656 0.875 -1.609375 C 0.851562 -1.515625 0.867188 -1.425781 0.921875 -1.34375 C 0.984375 -1.257812 1.082031 -1.175781 1.21875 -1.09375 C 1.414062 -0.96875 1.550781 -0.835938 1.625 -0.703125 C 1.707031 -0.578125 1.726562 -0.421875 1.6875 -0.234375 C 1.644531 -0.0546875 1.550781 0.0703125 1.40625 0.15625 C 1.257812 0.25 1.082031 0.269531 0.875 0.21875 C 0.738281 0.195312 0.617188 0.144531 0.515625 0.0625 C 0.410156 -0.0195312 0.335938 -0.117188 0.296875 -0.234375 C 0.265625 -0.359375 0.265625 -0.492188 0.296875 -0.640625 L 0.578125 -0.578125 C 0.546875 -0.429688 0.5625 -0.304688 0.625 -0.203125 C 0.6875 -0.109375 0.785156 -0.0507812 0.921875 -0.03125 C 1.046875 0 1.144531 -0.00390625 1.21875 -0.046875 C 1.300781 -0.0976562 1.351562 -0.179688 1.375 -0.296875 Z M 1.375 -0.296875 "/></g></g></g><g fill="#ff8c00" fill-opacity="1"><g transform="translate(74.753348, 4.2685)"><g/></g></g><g fill="#ff8c00" fill-opacity="1"><g transform="translate(90.788525, 14.614543)"><g><path d="M 0.21875 -0.0742188 L 0.21875 0 L 2.191406 0 L 2.191406 -0.0742188 C 1.5625 -0.0742188 1.519531 -0.59375 1.519531 -2.03125 L 1.519531 -5.007812 C 1.871094 -5.132812 2.28125 -5.21875 2.652344 -5.21875 C 3.152344 -5.21875 4.296875 -5.175781 4.296875 -3.539062 C 4.296875 -3.539062 4.304688 -2.25 4.304688 -2.03125 C 4.304688 -0.59375 4.261719 -0.0742188 3.632812 -0.0742188 L 3.632812 0 L 5.605469 0 L 5.605469 -0.0742188 C 4.976562 -0.0742188 4.933594 -0.59375 4.933594 -2.03125 L 4.933594 -3.691406 C 4.933594 -5.226562 3.632812 -5.320312 2.984375 -5.320312 C 2.660156 -5.320312 1.785156 -5.199219 1.519531 -5.199219 L 1.519531 -7.308594 L 0.21875 -7.308594 L 0.21875 -7.238281 C 0.847656 -7.238281 0.890625 -6.71875 0.890625 -5.277344 L 0.890625 -2.03125 C 0.890625 -0.59375 0.847656 -0.0742188 0.21875 -0.0742188 Z M 0.21875 -0.0742188 "/></g></g></g><g fill="#ff8c00" fill-opacity="1"><g transform="translate(96.541534, 14.614543)"><g><path d="M 0.4375 -1.476562 C 0.4375 -0.535156 1.125 0.144531 2.070312 0.144531 C 3.347656 0.144531 3.832031 -0.898438 4.09375 -2.15625 L 4.09375 -0.90625 C 4.09375 -0.359375 4.402344 0 4.789062 0 L 5.308594 0 L 5.308594 -0.0742188 C 5.109375 -0.0742188 4.75 -0.203125 4.75 -0.820312 C 4.75 -1.59375 4.746094 -1.703125 4.746094 -2.355469 C 4.746094 -2.9375 4.679688 -3.496094 4.144531 -3.496094 C 4.027344 -3.496094 3.949219 -3.4375 3.949219 -3.390625 C 4.058594 -3.363281 4.070312 -3.195312 4.070312 -3.035156 C 4.070312 -0.90625 3.070312 -0.09375 2.28125 -0.09375 C 1.5625 -0.09375 1.082031 -0.671875 1.082031 -1.433594 C 1.082031 -4.289062 4.757812 -3.222656 4.757812 -4.402344 C 4.757812 -4.976562 3.683594 -5.320312 2.859375 -5.320312 C 1.710938 -5.320312 0.847656 -4.949219 0.847656 -4.226562 C 0.847656 -3.910156 1.058594 -3.640625 1.375 -3.640625 C 1.617188 -3.640625 1.855469 -3.84375 1.785156 -4.0625 C 1.71875 -4 1.492188 -4.121094 1.492188 -4.402344 C 1.492188 -5.007812 2.164062 -5.25 2.859375 -5.25 C 3.449219 -5.25 4.136719 -5.007812 4.136719 -4.414062 C 4.136719 -3.210938 0.4375 -4.050781 0.4375 -1.476562 Z M 0.4375 -1.476562 "/></g></g></g><g fill="#ff8c00" fill-opacity="1"><g transform="translate(101.994829, 14.614543)"><g><path d="M 0.144531 -5.101562 C 0.773438 -5.101562 0.820312 -4.582031 0.820312 -3.144531 L 0.820312 1 C 0.820312 2.441406 0.773438 2.960938 0.144531 2.960938 L 0.144531 3.035156 L 2.121094 3.035156 L 2.121094 2.960938 C 1.492188 2.960938 1.449219 2.441406 1.449219 1 L 1.449219 -0.117188 C 1.9375 0 2.0625 0 2.433594 0 C 4.121094 0 5.367188 -1.109375 5.367188 -3.054688 C 5.367188 -4.460938 4.445312 -5.320312 3.222656 -5.320312 C 2.5 -5.320312 1.886719 -4.976562 1.449219 -4.320312 L 1.449219 -5.175781 L 0.144531 -5.175781 Z M 1.449219 -3.195312 C 1.449219 -4.632812 2.15625 -5.144531 2.910156 -5.144531 C 3.773438 -5.144531 4.730469 -4.546875 4.730469 -2.902344 C 4.730469 -1.234375 3.597656 -0.0742188 2.347656 -0.0742188 C 1.996094 -0.0742188 1.679688 -0.160156 1.449219 -0.285156 Z M 1.449219 -3.195312 "/></g></g></g><g fill="#ff8c00" fill-opacity="1"><g transform="translate(107.799007, 14.614543)"><g><path d="M 0.144531 -5.101562 C 0.773438 -5.101562 0.820312 -4.582031 0.820312 -3.144531 L 0.820312 1 C 0.820312 2.441406 0.773438 2.960938 0.144531 2.960938 L 0.144531 3.035156 L 2.121094 3.035156 L 2.121094 2.960938 C 1.492188 2.960938 1.449219 2.441406 1.449219 1 L 1.449219 -0.117188 C 1.9375 0 2.0625 0 2.433594 0 C 4.121094 0 5.367188 -1.109375 5.367188 -3.054688 C 5.367188 -4.460938 4.445312 -5.320312 3.222656 -5.320312 C 2.5 -5.320312 1.886719 -4.976562 1.449219 -4.320312 L 1.449219 -5.175781 L 0.144531 -5.175781 Z M 1.449219 -3.195312 C 1.449219 -4.632812 2.15625 -5.144531 2.910156 -5.144531 C 3.773438 -5.144531 4.730469 -4.546875 4.730469 -2.902344 C 4.730469 -1.234375 3.597656 -0.0742188 2.347656 -0.0742188 C 1.996094 -0.0742188 1.679688 -0.160156 1.449219 -0.285156 Z M 1.449219 -3.195312 "/></g></g></g><g fill="#ff8c00" fill-opacity="1"><g transform="translate(113.603185, 14.614543)"><g><path d="M 0 -5.101562 L 0.175781 -5.101562 C 0.703125 -5.101562 0.878906 -4.503906 1.015625 -4.058594 C 1.324219 -3.070312 1.550781 -2.28125 1.9375 -1.074219 C 2.28125 -0.015625 2.757812 0.140625 2.945312 0.144531 C 2.582031 1.335938 1.257812 2.960938 0.367188 2.960938 L 0.367188 3.035156 L 1.351562 3.035156 C 2.011719 3.035156 2.835938 0.710938 3.035156 0.144531 C 3.507812 -1.34375 3.867188 -2.527344 4.226562 -3.675781 C 4.363281 -4.121094 4.722656 -5.101562 5.226562 -5.101562 L 5.351562 -5.101562 L 5.351562 -5.175781 L 3.429688 -5.175781 L 3.429688 -5.101562 L 3.589844 -5.101562 C 4.40625 -5.101562 4.253906 -4.101562 4.085938 -3.515625 C 3.816406 -2.585938 3.5 -1.609375 3.128906 -0.4375 C 2.917969 -0.46875 2.726562 -0.664062 2.59375 -1.074219 C 2.140625 -2.492188 1.902344 -3.332031 1.511719 -4.589844 C 1.425781 -4.875 1.226562 -5.175781 0.898438 -5.175781 L 0 -5.175781 Z M 0 -5.101562 "/></g></g></g></svg>