<svg xmlns="http://www.w3.org/2000/svg" xmlns:xlink="http://www.w3.org/1999/xlink" width="260" zoomAndPan="magnify" viewBox="0 0 194.87999 30.000001" height="40" preserveAspectRatio="xMidYMid meet" version="1.0"><defs><g/><clipPath id="id1"><path d="M 82.835938 4.117188 L 102.207031 4.117188 L 102.207031 28.585938 L 82.835938 28.585938 Z M 82.835938 4.117188 " clip-rule="nonzero"/></clipPath></defs><g fill="#ff8c00" fill-opacity="1"><g transform="translate(105.090805, 18.240806)"><g><path d="M 2.191406 0 L 2.191406 -0.0742188 C 1.5625 -0.0742188 1.519531 -0.59375 1.519531 -2.03125 L 1.519531 -5.007812 C 1.871094 -5.132812 2.28125 -5.21875 2.652344 -5.21875 C 3.152344 -5.21875 4.296875 -5.175781 4.296875 -3.539062 C 4.296875 -3.539062 4.304688 -2.25 4.304688 -2.03125 C 4.304688 -0.59375 4.261719 -0.0742188 3.632812 -0.0742188 L 3.632812 0 L 5.605469 0 L 5.605469 -0.0742188 C 4.976562 -0.0742188 4.933594 -0.59375 4.933594 -2.03125 L 4.933594 -3.691406 C 4.933594 -4.234375 4.773438 -4.597656 4.53125 -4.839844 C 4.992188 -5.109375 5.527344 -5.226562 6.058594 -5.226562 C 6.558594 -5.226562 7.703125 -5.175781 7.703125 -3.539062 C 7.703125 -3.539062 7.710938 -2.25 7.710938 -2.03125 C 7.710938 -0.59375 7.667969 -0.0742188 7.039062 -0.0742188 L 7.039062 0 L 9.011719 0 L 9.011719 -0.0742188 C 8.382812 -0.0742188 8.339844 -0.59375 8.339844 -2.03125 L 8.339844 -3.691406 C 8.339844 -5.226562 7.039062 -5.320312 6.390625 -5.320312 C 5.25 -5.320312 4.53125 -5.023438 4.296875 -5.023438 C 3.875 -5.292969 3.332031 -5.320312 2.984375 -5.320312 C 2.566406 -5.320312 1.652344 -5.175781 1.050781 -5.175781 L 0.21875 -5.175781 L 0.21875 -5.101562 C 0.847656 -5.101562 0.890625 -4.582031 0.890625 -3.144531 L 0.890625 -2.03125 C 0.890625 -0.59375 0.847656 -0.0742188 0.21875 -0.0742188 L 0.21875 0 Z M 2.191406 0 "/></g></g></g><g fill="#ff8c00" fill-opacity="1"><g transform="translate(114.250299, 18.240806)"><g><path d="M 0.4375 -1.476562 C 0.4375 -0.535156 1.125 0.144531 2.070312 0.144531 C 3.347656 0.144531 3.832031 -0.898438 4.09375 -2.15625 L 4.09375 -0.90625 C 4.09375 -0.359375 4.402344 0 4.789062 0 L 5.308594 0 L 5.308594 -0.0742188 C 5.109375 -0.0742188 4.75 -0.203125 4.75 -0.820312 C 4.75 -1.59375 4.746094 -1.703125 4.746094 -2.355469 C 4.746094 -2.9375 4.679688 -3.496094 4.144531 -3.496094 C 4.027344 -3.496094 3.949219 -3.4375 3.949219 -3.390625 C 4.058594 -3.363281 4.070312 -3.195312 4.070312 -3.035156 C 4.070312 -0.90625 3.070312 -0.09375 2.28125 -0.09375 C 1.5625 -0.09375 1.082031 -0.671875 1.082031 -1.433594 C 1.082031 -4.289062 4.757812 -3.222656 4.757812 -4.402344 C 4.757812 -4.976562 3.683594 -5.320312 2.859375 -5.320312 C 1.710938 -5.320312 0.847656 -4.949219 0.847656 -4.226562 C 0.847656 -3.910156 1.058594 -3.640625 1.375 -3.640625 C 1.617188 -3.640625 1.855469 -3.84375 1.785156 -4.0625 C 1.71875 -4 1.492188 -4.121094 1.492188 -4.402344 C 1.492188 -5.007812 2.164062 -5.25 2.859375 -5.25 C 3.449219 -5.25 4.136719 -5.007812 4.136719 -4.414062 C 4.136719 -3.210938 0.4375 -4.050781 0.4375 -1.476562 Z M 0.4375 -1.476562 "/></g></g></g><g fill="#ff8c00" fill-opacity="1"><g transform="translate(119.703594, 18.240806)"><g><path d="M 2.191406 0 L 2.191406 -0.0742188 C 1.5625 -0.0742188 1.519531 -0.59375 1.519531 -2.03125 L 1.519531 -5.007812 C 1.9375 -5.140625 2.925781 -5.21875 3.378906 -5.21875 C 3.902344 -5.21875 4.160156 -4.941406 4.160156 -4.605469 C 4.160156 -4.304688 3.96875 -4.0625 3.765625 -4.058594 C 3.765625 -3.851562 3.960938 -3.722656 4.167969 -3.722656 C 4.582031 -3.722656 4.796875 -4.042969 4.796875 -4.429688 C 4.796875 -4.992188 4.3125 -5.320312 3.664062 -5.320312 C 2.851562 -5.320312 1.90625 -5.175781 1.066406 -5.175781 L 0.21875 -5.175781 L 0.21875 -5.101562 C 0.847656 -5.101562 0.890625 -4.582031 0.890625 -3.144531 L 0.890625 -2.03125 C 0.890625 -0.59375 0.847656 -0.0742188 0.21875 -0.0742188 L 0.21875 0 Z M 2.191406 0 "/></g></g></g><g fill="#ff8c00" fill-opacity="1"><g transform="translate(124.645192, 18.240806)"><g><path d="M 2.191406 0 L 2.191406 -0.0742188 C 1.5625 -0.0742188 1.519531 -0.59375 1.519531 -2.03125 L 1.519531 -5.007812 C 1.9375 -5.140625 2.925781 -5.21875 3.378906 -5.21875 C 3.902344 -5.21875 4.160156 -4.941406 4.160156 -4.605469 C 4.160156 -4.304688 3.96875 -4.0625 3.765625 -4.058594 C 3.765625 -3.851562 3.960938 -3.722656 4.167969 -3.722656 C 4.582031 -3.722656 4.796875 -4.042969 4.796875 -4.429688 C 4.796875 -4.992188 4.3125 -5.320312 3.664062 -5.320312 C 2.851562 -5.320312 1.90625 -5.175781 1.066406 -5.175781 L 0.21875 -5.175781 L 0.21875 -5.101562 C 0.847656 -5.101562 0.890625 -4.582031 0.890625 -3.144531 L 0.890625 -2.03125 C 0.890625 -0.59375 0.847656 -0.0742188 0.21875 -0.0742188 L 0.21875 0 Z M 2.191406 0 "/></g></g></g><g fill="#ff8c00" fill-opacity="1"><g transform="translate(129.586789, 18.240806)"><g><path d="M 0.4375 -1.476562 C 0.4375 -0.535156 1.125 0.144531 2.070312 0.144531 C 3.347656 0.144531 3.832031 -0.898438 4.09375 -2.15625 L 4.09375 -0.90625 C 4.09375 -0.359375 4.402344 0 4.789062 0 L 5.308594 0 L 5.308594 -0.0742188 C 5.109375 -0.0742188 4.75 -0.203125 4.75 -0.820312 C 4.75 -1.59375 4.746094 -1.703125 4.746094 -2.355469 C 4.746094 -2.9375 4.679688 -3.496094 4.144531 -3.496094 C 4.027344 -3.496094 3.949219 -3.4375 3.949219 -3.390625 C 4.058594 -3.363281 4.070312 -3.195312 4.070312 -3.035156 C 4.070312 -0.90625 3.070312 -0.09375 2.28125 -0.09375 C 1.5625 -0.09375 1.082031 -0.671875 1.082031 -1.433594 C 1.082031 -4.289062 4.757812 -3.222656 4.757812 -4.402344 C 4.757812 -4.976562 3.683594 -5.320312 2.859375 -5.320312 C 1.710938 -5.320312 0.847656 -4.949219 0.847656 -4.226562 C 0.847656 -3.910156 1.058594 -3.640625 1.375 -3.640625 C 1.617188 -3.640625 1.855469 -3.84375 1.785156 -4.0625 C 1.71875 -4 1.492188 -4.121094 1.492188 -4.402344 C 1.492188 -5.007812 2.164062 -5.25 2.859375 -5.25 C 3.449219 -5.25 4.136719 -5.007812 4.136719 -4.414062 C 4.136719 -3.210938 0.4375 -4.050781 0.4375 -1.476562 Z M 0.4375 -1.476562 "/></g></g></g><g fill="#ff8c00" fill-opacity="1"><g transform="translate(135.040085, 18.240806)"><g><path d="M 2.191406 0 L 2.191406 -0.0742188 C 1.5625 -0.0742188 1.519531 -0.59375 1.519531 -2.03125 L 1.519531 -7.308594 L 0.21875 -7.308594 L 0.21875 -7.238281 C 0.847656 -7.238281 0.890625 -6.71875 0.890625 -5.277344 L 0.890625 -2.03125 C 0.890625 -0.59375 0.847656 -0.0742188 0.21875 -0.0742188 L 0.21875 0 Z M 3.835938 -4.765625 C 3.835938 -3.65625 1.710938 -3.890625 1.710938 -3.214844 C 1.710938 -2.769531 2.582031 -2.894531 3.179688 -1.8125 C 3.320312 -1.5625 3.40625 -1.207031 3.523438 -0.78125 C 3.617188 -0.445312 3.714844 0 4.058594 0 L 4.898438 0 L 4.898438 -0.0742188 C 4.539062 -0.0742188 4.371094 -0.210938 4.269531 -0.453125 C 4.0625 -0.941406 4.070312 -1.34375 3.773438 -1.828125 C 3.046875 -2.988281 1.785156 -2.785156 1.785156 -3.214844 C 1.785156 -3.734375 4.496094 -3.539062 4.496094 -4.984375 C 4.496094 -5.082031 4.472656 -5.175781 4.371094 -5.175781 L 3.496094 -5.175781 L 3.496094 -5.101562 C 3.742188 -5.101562 3.835938 -4.957031 3.835938 -4.765625 Z M 3.835938 -4.765625 "/></g></g></g><g fill="#ff8c00" fill-opacity="1"><g transform="translate(140.157119, 18.240806)"><g><path d="M 2.945312 0.144531 C 4.035156 0.144531 4.832031 -0.445312 5.210938 -1.316406 L 5.109375 -1.359375 C 4.75 -0.417969 3.785156 -0.101562 3.210938 -0.101562 C 1.863281 -0.101562 1.082031 -1.25 1.066406 -2.609375 C 1.050781 -3.640625 1.449219 -5.234375 2.929688 -5.234375 C 5.023438 -5.234375 4.992188 -2.417969 3.910156 -2.417969 C 3.324219 -2.417969 2.757812 -3.390625 1.988281 -3.390625 C 1.484375 -3.390625 1.222656 -3.105469 1.222656 -2.808594 L 1.25 -2.800781 C 1.273438 -2.859375 1.433594 -2.984375 1.609375 -2.984375 C 2.324219 -2.984375 2.683594 -2.332031 3.859375 -2.332031 C 4.699219 -2.332031 5.175781 -2.828125 5.183594 -3.65625 C 5.191406 -4.394531 4.519531 -5.320312 2.945312 -5.320312 C 1.375 -5.320312 0.4375 -4.09375 0.4375 -2.585938 C 0.4375 -1.082031 1.375 0.144531 2.945312 0.144531 Z M 2.945312 0.144531 "/></g></g></g><g fill="#ff8c00" fill-opacity="1"><g transform="translate(145.807787, 18.240806)"><g><path d="M 2.945312 0.144531 C 4.035156 0.144531 4.832031 -0.445312 5.210938 -1.316406 L 5.109375 -1.359375 C 4.75 -0.417969 3.785156 -0.101562 3.210938 -0.101562 C 1.863281 -0.101562 1.082031 -1.25 1.066406 -2.609375 C 1.050781 -3.640625 1.449219 -5.234375 2.929688 -5.234375 C 3.699219 -5.234375 4.539062 -4.75 4.941406 -3.949219 L 4.972656 -3.949219 L 4.972656 -4.808594 C 4.972656 -4.808594 4.179688 -5.320312 2.945312 -5.320312 C 1.375 -5.320312 0.4375 -4.09375 0.4375 -2.585938 C 0.4375 -1.082031 1.375 0.144531 2.945312 0.144531 Z M 2.945312 0.144531 "/></g></g></g><g fill="#ff8c00" fill-opacity="1"><g transform="translate(151.166058, 18.240806)"><g><path d="M 0.21875 -0.0742188 L 0.21875 0 L 2.191406 0 L 2.191406 -0.0742188 C 1.5625 -0.0742188 1.519531 -0.59375 1.519531 -2.03125 L 1.519531 -5.007812 C 1.871094 -5.132812 2.28125 -5.21875 2.652344 -5.21875 C 3.152344 -5.21875 4.296875 -5.175781 4.296875 -3.539062 C 4.296875 -3.539062 4.304688 -2.25 4.304688 -2.03125 C 4.304688 -0.59375 4.261719 -0.0742188 3.632812 -0.0742188 L 3.632812 0 L 5.605469 0 L 5.605469 -0.0742188 C 4.976562 -0.0742188 4.933594 -0.59375 4.933594 -2.03125 L 4.933594 -3.691406 C 4.933594 -5.226562 3.632812 -5.320312 2.984375 -5.320312 C 2.660156 -5.320312 1.785156 -5.199219 1.519531 -5.199219 L 1.519531 -7.308594 L 0.21875 -7.308594 L 0.21875 -7.238281 C 0.847656 -7.238281 0.890625 -6.71875 0.890625 -5.277344 L 0.890625 -2.03125 C 0.890625 -0.59375 0.847656 -0.0742188 0.21875 -0.0742188 Z M 0.21875 -0.0742188 "/></g></g></g><g clip-path="url(#id1)"><path fill="#dc661f" d="M 100.699219 13.21875 C 100.714844 13.242188 100.707031 13.261719 100.679688 13.277344 C 100.675781 13.277344 100.667969 13.28125 100.660156 13.28125 C 100.644531 13.28125 100.628906 13.273438 100.621094 13.257812 C 100.617188 13.25 100.183594 12.484375 99.296875 12.191406 L 100.3125 13.238281 C 100.328125 13.253906 100.328125 13.269531 100.320312 13.285156 C 100.3125 13.304688 100.300781 13.3125 100.28125 13.3125 C 100.269531 13.3125 100.257812 13.308594 100.25 13.296875 L 99.132812 12.144531 C 98.988281 12.109375 98.84375 12.089844 98.695312 12.085938 L 99.816406 13.242188 C 99.828125 13.253906 99.832031 13.269531 99.824219 13.285156 C 99.816406 13.304688 99.800781 13.3125 99.78125 13.3125 C 99.769531 13.3125 99.757812 13.308594 99.75 13.296875 L 98.570312 12.082031 C 98.535156 12.082031 98.5 12.082031 98.460938 12.085938 C 98.378906 12.089844 98.300781 12.097656 98.21875 12.109375 L 99.316406 13.238281 C 99.335938 13.257812 99.335938 13.277344 99.316406 13.296875 C 99.308594 13.304688 99.296875 13.308594 99.285156 13.308594 C 99.273438 13.308594 99.261719 13.304688 99.253906 13.296875 L 98.117188 12.128906 C 98.007812 12.148438 97.90625 12.171875 97.804688 12.199219 L 98.816406 13.242188 C 98.835938 13.261719 98.835938 13.28125 98.816406 13.300781 C 98.808594 13.308594 98.796875 13.3125 98.785156 13.3125 C 98.773438 13.3125 98.761719 13.308594 98.753906 13.300781 L 97.710938 12.226562 C 97.613281 12.253906 97.519531 12.285156 97.425781 12.324219 L 98.316406 13.242188 C 98.339844 13.261719 98.339844 13.28125 98.316406 13.300781 C 98.308594 13.308594 98.300781 13.3125 98.289062 13.3125 C 98.273438 13.3125 98.265625 13.308594 98.253906 13.300781 L 97.34375 12.355469 C 97.25 12.394531 97.164062 12.433594 97.078125 12.476562 L 97.820312 13.242188 C 97.839844 13.261719 97.839844 13.28125 97.820312 13.300781 C 97.8125 13.308594 97.800781 13.3125 97.789062 13.3125 C 97.777344 13.3125 97.765625 13.308594 97.757812 13.300781 L 96.996094 12.515625 C 96.910156 12.558594 96.828125 12.605469 96.75 12.648438 L 97.320312 13.242188 C 97.34375 13.261719 97.34375 13.28125 97.320312 13.300781 C 97.3125 13.308594 97.304688 13.3125 97.292969 13.3125 C 97.28125 13.3125 97.269531 13.308594 97.261719 13.300781 L 96.667969 12.691406 C 96.585938 12.742188 96.507812 12.792969 96.433594 12.839844 L 96.820312 13.238281 C 96.84375 13.261719 96.84375 13.28125 96.820312 13.300781 C 96.8125 13.308594 96.804688 13.3125 96.792969 13.3125 C 96.777344 13.3125 96.769531 13.308594 96.757812 13.296875 L 96.363281 12.890625 C 96.28125 12.949219 96.207031 13.003906 96.144531 13.050781 L 96.324219 13.242188 C 96.347656 13.261719 96.347656 13.28125 96.324219 13.300781 C 96.316406 13.308594 96.308594 13.3125 96.296875 13.3125 C 96.285156 13.3125 96.273438 13.308594 96.265625 13.296875 L 96.078125 13.105469 C 95.976562 13.183594 95.910156 13.242188 95.882812 13.265625 C 95.875 13.273438 95.863281 13.277344 95.851562 13.277344 C 95.835938 13.277344 95.824219 13.273438 95.816406 13.265625 C 95.757812 13.210938 95.691406 13.160156 95.625 13.105469 L 95.433594 13.300781 C 95.425781 13.308594 95.414062 13.3125 95.402344 13.3125 C 95.390625 13.3125 95.382812 13.308594 95.375 13.300781 C 95.351562 13.28125 95.351562 13.261719 95.375 13.242188 L 95.558594 13.050781 C 95.488281 12.996094 95.414062 12.945312 95.335938 12.890625 L 94.9375 13.300781 C 94.929688 13.308594 94.917969 13.3125 94.90625 13.3125 C 94.894531 13.3125 94.882812 13.308594 94.875 13.300781 C 94.855469 13.28125 94.855469 13.261719 94.875 13.242188 L 95.265625 12.839844 C 95.1875 12.792969 95.109375 12.742188 95.027344 12.695312 L 94.425781 13.296875 C 94.417969 13.308594 94.40625 13.3125 94.394531 13.3125 C 94.382812 13.3125 94.375 13.308594 94.363281 13.300781 C 94.34375 13.28125 94.34375 13.261719 94.363281 13.238281 L 94.9375 12.648438 C 94.859375 12.601562 94.773438 12.558594 94.691406 12.515625 L 93.929688 13.300781 C 93.921875 13.308594 93.910156 13.3125 93.898438 13.3125 C 93.886719 13.3125 93.875 13.308594 93.867188 13.300781 C 93.847656 13.28125 93.847656 13.261719 93.867188 13.242188 L 94.609375 12.476562 C 94.523438 12.433594 94.433594 12.394531 94.34375 12.355469 L 93.429688 13.296875 C 93.417969 13.308594 93.410156 13.3125 93.394531 13.3125 C 93.378906 13.3125 93.363281 13.304688 93.355469 13.285156 C 93.347656 13.269531 93.351562 13.253906 93.363281 13.238281 L 94.253906 12.320312 C 94.160156 12.285156 94.0625 12.253906 93.96875 12.222656 L 92.925781 13.300781 C 92.917969 13.308594 92.90625 13.3125 92.894531 13.3125 C 92.875 13.3125 92.863281 13.304688 92.855469 13.285156 C 92.847656 13.269531 92.851562 13.253906 92.863281 13.242188 L 93.875 12.199219 C 93.769531 12.167969 93.667969 12.144531 93.5625 12.128906 L 92.429688 13.296875 C 92.421875 13.308594 92.410156 13.3125 92.398438 13.3125 C 92.378906 13.3125 92.363281 13.304688 92.359375 13.285156 C 92.351562 13.269531 92.351562 13.253906 92.367188 13.238281 L 93.460938 12.109375 C 93.378906 12.097656 93.300781 12.089844 93.21875 12.085938 C 93.183594 12.085938 93.144531 12.085938 93.109375 12.082031 L 91.929688 13.296875 C 91.921875 13.308594 91.910156 13.3125 91.898438 13.3125 C 91.878906 13.3125 91.867188 13.304688 91.859375 13.285156 C 91.851562 13.269531 91.851562 13.253906 91.867188 13.238281 L 92.984375 12.082031 C 92.835938 12.089844 92.691406 12.109375 92.546875 12.144531 L 91.429688 13.296875 C 91.421875 13.308594 91.410156 13.3125 91.398438 13.3125 C 91.386719 13.3125 91.378906 13.308594 91.371094 13.300781 C 91.347656 13.28125 91.347656 13.261719 91.371094 13.238281 L 92.382812 12.191406 C 91.496094 12.484375 91.066406 13.25 91.0625 13.257812 C 91.050781 13.273438 91.039062 13.28125 91.023438 13.28125 C 91.015625 13.28125 91.007812 13.277344 91 13.277344 C 90.976562 13.261719 90.96875 13.242188 90.984375 13.21875 C 90.992188 13.207031 91.71875 11.914062 93.226562 12 C 93.613281 12.027344 93.984375 12.117188 94.34375 12.265625 L 94.355469 12.269531 C 94.902344 12.492188 95.398438 12.796875 95.84375 13.183594 C 96.289062 12.800781 96.785156 12.496094 97.335938 12.269531 L 97.339844 12.269531 C 97.695312 12.121094 98.070312 12.03125 98.457031 12.003906 C 99.960938 11.914062 100.691406 13.203125 100.699219 13.21875 Z M 97.390625 10.65625 C 96.632812 11.140625 96.105469 11.992188 95.839844 12.671875 C 95.664062 12.226562 95.429688 11.816406 95.132812 11.441406 L 95.117188 11.421875 C 94.886719 11.121094 94.609375 10.867188 94.292969 10.65625 C 93.03125 9.847656 91.734375 10.617188 91.71875 10.625 C 91.699219 10.640625 91.695312 10.65625 91.707031 10.679688 C 91.722656 10.703125 91.742188 10.707031 91.765625 10.695312 C 91.777344 10.691406 92.546875 10.238281 93.460938 10.414062 L 92.042969 10.828125 C 92.019531 10.835938 92.007812 10.851562 92.011719 10.875 C 92.015625 10.902344 92.03125 10.914062 92.054688 10.914062 C 92.058594 10.914062 92.066406 10.914062 92.070312 10.914062 L 93.628906 10.457031 C 93.773438 10.496094 93.910156 10.550781 94.042969 10.617188 L 92.476562 11.074219 C 92.445312 11.082031 92.4375 11.101562 92.445312 11.128906 C 92.453125 11.148438 92.464844 11.160156 92.488281 11.160156 C 92.492188 11.160156 92.496094 11.160156 92.5 11.160156 L 94.148438 10.675781 C 94.179688 10.691406 94.210938 10.710938 94.242188 10.730469 C 94.308594 10.773438 94.375 10.820312 94.4375 10.867188 L 92.90625 11.316406 C 92.882812 11.320312 92.871094 11.335938 92.875 11.363281 C 92.878906 11.386719 92.894531 11.398438 92.921875 11.398438 C 92.925781 11.398438 92.929688 11.398438 92.933594 11.398438 L 94.519531 10.933594 C 94.601562 11 94.679688 11.070312 94.753906 11.144531 L 93.339844 11.554688 C 93.316406 11.5625 93.304688 11.578125 93.308594 11.601562 C 93.3125 11.625 93.328125 11.640625 93.351562 11.636719 C 93.355469 11.640625 93.359375 11.640625 93.363281 11.636719 L 94.820312 11.214844 C 94.886719 11.285156 94.953125 11.359375 95.015625 11.433594 L 93.773438 11.800781 C 93.742188 11.808594 93.734375 11.824219 93.742188 11.851562 C 93.75 11.875 93.761719 11.882812 93.785156 11.882812 C 93.789062 11.882812 93.792969 11.882812 93.796875 11.882812 L 95.074219 11.511719 C 95.132812 11.585938 95.1875 11.660156 95.242188 11.738281 L 94.207031 12.042969 C 94.179688 12.050781 94.171875 12.066406 94.175781 12.089844 C 94.175781 12.117188 94.191406 12.128906 94.21875 12.128906 C 94.222656 12.128906 94.226562 12.128906 94.230469 12.128906 L 95.292969 11.816406 C 95.34375 11.894531 95.394531 11.972656 95.4375 12.054688 L 94.636719 12.289062 C 94.613281 12.296875 94.601562 12.3125 94.605469 12.335938 C 94.609375 12.359375 94.625 12.371094 94.648438 12.371094 C 94.65625 12.371094 94.660156 12.371094 94.664062 12.371094 L 95.484375 12.132812 C 95.527344 12.210938 95.570312 12.292969 95.609375 12.375 L 95.070312 12.53125 C 95.046875 12.539062 95.035156 12.554688 95.039062 12.578125 C 95.042969 12.605469 95.058594 12.617188 95.082031 12.617188 C 95.085938 12.617188 95.089844 12.617188 95.09375 12.617188 L 95.648438 12.453125 C 95.6875 12.539062 95.722656 12.621094 95.753906 12.703125 L 95.503906 12.765625 C 95.480469 12.773438 95.46875 12.789062 95.472656 12.8125 C 95.476562 12.835938 95.492188 12.847656 95.515625 12.847656 C 95.519531 12.847656 95.523438 12.847656 95.527344 12.847656 L 95.785156 12.773438 C 95.789062 12.785156 95.796875 12.796875 95.800781 12.804688 C 95.804688 12.820312 95.8125 12.828125 95.828125 12.832031 C 95.832031 12.832031 95.835938 12.832031 95.839844 12.832031 C 95.863281 12.832031 95.875 12.824219 95.882812 12.804688 C 95.886719 12.792969 95.890625 12.78125 95.894531 12.769531 L 96.152344 12.847656 C 96.15625 12.847656 96.160156 12.847656 96.164062 12.847656 C 96.191406 12.847656 96.207031 12.835938 96.210938 12.808594 C 96.214844 12.785156 96.203125 12.769531 96.179688 12.761719 L 95.925781 12.6875 C 95.957031 12.609375 95.992188 12.523438 96.03125 12.441406 L 96.585938 12.601562 C 96.589844 12.601562 96.59375 12.601562 96.597656 12.601562 C 96.621094 12.601562 96.636719 12.589844 96.640625 12.570312 C 96.652344 12.542969 96.640625 12.523438 96.613281 12.515625 L 96.070312 12.355469 C 96.109375 12.273438 96.148438 12.195312 96.195312 12.113281 L 97.019531 12.351562 C 97.023438 12.355469 97.027344 12.355469 97.03125 12.351562 C 97.058594 12.355469 97.074219 12.339844 97.074219 12.316406 C 97.078125 12.292969 97.070312 12.277344 97.042969 12.269531 L 96.238281 12.035156 C 96.285156 11.957031 96.332031 11.871094 96.386719 11.796875 L 97.453125 12.109375 C 97.457031 12.109375 97.460938 12.109375 97.464844 12.109375 C 97.488281 12.109375 97.503906 12.097656 97.507812 12.074219 C 97.511719 12.046875 97.5 12.03125 97.476562 12.027344 L 96.4375 11.722656 C 96.488281 11.644531 96.542969 11.566406 96.601562 11.492188 L 97.882812 11.867188 C 97.886719 11.867188 97.890625 11.867188 97.894531 11.867188 C 97.914062 11.867188 97.929688 11.855469 97.9375 11.835938 C 97.945312 11.808594 97.933594 11.792969 97.90625 11.78125 L 96.660156 11.417969 C 96.722656 11.339844 96.789062 11.269531 96.859375 11.195312 L 98.3125 11.621094 C 98.316406 11.625 98.320312 11.625 98.328125 11.621094 C 98.351562 11.621094 98.367188 11.609375 98.371094 11.585938 C 98.375 11.5625 98.363281 11.546875 98.339844 11.539062 L 96.925781 11.125 C 97 11.050781 97.078125 10.980469 97.160156 10.914062 L 98.746094 11.378906 C 98.75 11.378906 98.753906 11.378906 98.757812 11.378906 C 98.78125 11.378906 98.792969 11.367188 98.800781 11.347656 C 98.808594 11.320312 98.800781 11.304688 98.773438 11.292969 L 97.242188 10.847656 C 97.304688 10.796875 97.371094 10.75 97.4375 10.707031 C 97.46875 10.6875 97.5 10.671875 97.53125 10.65625 L 99.179688 11.136719 C 99.183594 11.140625 99.1875 11.140625 99.191406 11.136719 C 99.21875 11.140625 99.230469 11.125 99.234375 11.101562 C 99.238281 11.078125 99.230469 11.0625 99.203125 11.054688 L 97.636719 10.597656 C 97.769531 10.53125 97.90625 10.476562 98.050781 10.433594 L 99.609375 10.890625 C 99.613281 10.894531 99.617188 10.894531 99.625 10.890625 C 99.648438 10.890625 99.664062 10.878906 99.667969 10.855469 C 99.671875 10.832031 99.660156 10.816406 99.636719 10.808594 L 98.214844 10.394531 C 99.132812 10.214844 99.902344 10.667969 99.914062 10.675781 C 99.9375 10.691406 99.957031 10.683594 99.972656 10.660156 C 99.988281 10.636719 99.984375 10.617188 99.957031 10.601562 C 99.949219 10.617188 98.652344 9.851562 97.390625 10.65625 Z M 94.324219 19.589844 L 94.324219 18.40625 C 94.324219 18.242188 94.382812 18.105469 94.5 17.992188 C 94.621094 17.878906 94.761719 17.820312 94.929688 17.820312 C 95.09375 17.820312 95.238281 17.878906 95.355469 17.992188 C 95.472656 18.105469 95.53125 18.242188 95.53125 18.40625 L 95.53125 19.589844 C 95.53125 19.617188 95.519531 19.632812 95.488281 19.632812 L 94.367188 19.632812 C 94.339844 19.632812 94.324219 19.617188 94.324219 19.589844 Z M 94.414062 19.546875 L 95.445312 19.546875 L 95.445312 18.402344 C 95.445312 18.265625 95.394531 18.148438 95.292969 18.050781 C 95.191406 17.953125 95.070312 17.902344 94.929688 17.902344 C 94.785156 17.902344 94.664062 17.953125 94.5625 18.050781 C 94.464844 18.148438 94.414062 18.265625 94.414062 18.402344 Z M 92.371094 19.589844 L 92.371094 18.40625 C 92.371094 18.242188 92.429688 18.105469 92.546875 17.992188 C 92.664062 17.878906 92.808594 17.820312 92.972656 17.820312 C 93.140625 17.820312 93.285156 17.878906 93.402344 17.992188 C 93.519531 18.105469 93.578125 18.242188 93.578125 18.40625 L 93.578125 19.589844 C 93.578125 19.617188 93.5625 19.632812 93.535156 19.632812 L 92.414062 19.632812 C 92.386719 19.632812 92.371094 19.617188 92.371094 19.589844 Z M 92.457031 19.546875 L 93.492188 19.546875 L 93.492188 18.402344 C 93.492188 18.265625 93.441406 18.148438 93.339844 18.050781 C 93.238281 17.953125 93.117188 17.902344 92.972656 17.902344 C 92.832031 17.902344 92.710938 17.953125 92.609375 18.050781 C 92.507812 18.148438 92.457031 18.265625 92.457031 18.402344 Z M 90.417969 19.589844 L 90.417969 18.40625 C 90.417969 18.242188 90.476562 18.105469 90.59375 17.992188 C 90.710938 17.878906 90.851562 17.820312 91.019531 17.820312 C 91.1875 17.820312 91.328125 17.878906 91.445312 17.992188 C 91.566406 18.105469 91.625 18.242188 91.625 18.40625 L 91.625 19.589844 C 91.625 19.617188 91.609375 19.632812 91.582031 19.632812 L 90.460938 19.632812 C 90.429688 19.632812 90.414062 19.617188 90.414062 19.589844 Z M 90.503906 19.546875 L 91.535156 19.546875 L 91.535156 18.402344 C 91.53125 18.269531 91.480469 18.152344 91.378906 18.058594 C 91.277344 17.964844 91.160156 17.917969 91.019531 17.917969 C 90.878906 17.917969 90.761719 17.964844 90.660156 18.058594 C 90.558594 18.152344 90.507812 18.269531 90.503906 18.402344 Z M 89.863281 11.644531 C 89.863281 11.875 89.816406 12.09375 89.726562 12.304688 C 89.636719 12.515625 89.507812 12.703125 89.339844 12.863281 C 89.171875 13.027344 88.980469 13.152344 88.761719 13.238281 C 88.542969 13.328125 88.316406 13.371094 88.082031 13.371094 C 87.84375 13.371094 87.617188 13.328125 87.398438 13.238281 C 87.179688 13.152344 86.988281 13.027344 86.820312 12.863281 C 86.65625 12.703125 86.527344 12.515625 86.433594 12.304688 C 86.34375 12.09375 86.300781 11.875 86.300781 11.644531 C 86.300781 11.414062 86.34375 11.195312 86.433594 10.984375 C 86.527344 10.773438 86.65625 10.585938 86.820312 10.421875 C 86.988281 10.261719 87.179688 10.136719 87.398438 10.050781 C 87.617188 9.960938 87.84375 9.917969 88.082031 9.917969 C 88.316406 9.917969 88.542969 9.960938 88.761719 10.050781 C 88.980469 10.136719 89.171875 10.261719 89.339844 10.425781 C 89.507812 10.585938 89.636719 10.773438 89.726562 10.984375 C 89.816406 11.195312 89.863281 11.414062 89.863281 11.644531 Z M 89.773438 11.644531 C 89.773438 11.425781 89.730469 11.21875 89.644531 11.015625 C 89.558594 10.816406 89.4375 10.636719 89.277344 10.484375 C 89.121094 10.328125 88.9375 10.210938 88.730469 10.128906 C 88.523438 10.042969 88.304688 10.003906 88.082031 10.003906 C 87.855469 10.003906 87.640625 10.042969 87.433594 10.128906 C 87.226562 10.210938 87.042969 10.328125 86.882812 10.484375 C 86.722656 10.636719 86.601562 10.816406 86.515625 11.015625 C 86.429688 11.21875 86.386719 11.425781 86.386719 11.644531 C 86.386719 11.863281 86.429688 12.070312 86.515625 12.273438 C 86.601562 12.472656 86.722656 12.652344 86.882812 12.804688 C 87.042969 12.960938 87.226562 13.078125 87.433594 13.160156 C 87.640625 13.246094 87.855469 13.285156 88.082031 13.285156 C 88.304688 13.285156 88.523438 13.246094 88.730469 13.160156 C 88.9375 13.078125 89.121094 12.957031 89.277344 12.804688 C 89.4375 12.652344 89.558594 12.472656 89.644531 12.273438 C 89.730469 12.070312 89.773438 11.863281 89.773438 11.644531 Z M 102.191406 13.484375 L 102.191406 28.53125 C 102.191406 28.566406 102.171875 28.585938 102.136719 28.585938 L 82.90625 28.585938 C 82.871094 28.585938 82.851562 28.566406 82.851562 28.53125 L 82.851562 13.488281 C 82.851562 8.320312 87.191406 4.117188 92.519531 4.117188 C 97.851562 4.117188 102.191406 8.320312 102.191406 13.488281 Z M 102.078125 13.484375 C 102.078125 8.378906 97.789062 4.222656 92.519531 4.222656 C 87.25 4.222656 82.964844 8.378906 82.964844 13.488281 L 82.964844 28.476562 L 102.078125 28.476562 Z M 101.53125 13.484375 L 101.53125 27.890625 C 101.53125 27.925781 101.511719 27.941406 101.472656 27.941406 L 83.570312 27.941406 C 83.535156 27.941406 83.515625 27.925781 83.515625 27.890625 L 83.515625 25.113281 L 83.5 25.113281 C 83.46875 25.113281 83.453125 25.101562 83.453125 25.070312 L 83.453125 24.074219 C 83.453125 24.042969 83.46875 24.03125 83.5 24.03125 L 83.515625 24.03125 L 83.515625 13.488281 C 83.515625 8.671875 87.554688 4.757812 92.523438 4.757812 C 97.488281 4.757812 101.527344 8.671875 101.527344 13.488281 Z M 98.367188 22.949219 C 98.679688 23.039062 98.988281 23.140625 99.300781 23.257812 C 99.378906 20.976562 99.050781 16.84375 96.09375 13.832031 C 96.542969 14.515625 96.921875 15.234375 97.230469 15.988281 C 97.855469 17.488281 98.554688 19.90625 98.367188 22.953125 Z M 95.882812 13.503906 C 95.960938 13.578125 96.035156 13.648438 96.105469 13.722656 L 96.046875 13.476562 C 95.984375 13.492188 95.929688 13.5 95.882812 13.511719 Z M 96.519531 22.621094 L 96.519531 25.023438 L 101.414062 25.023438 L 101.414062 24.402344 C 99.882812 23.414062 98.128906 22.890625 96.519531 22.628906 Z M 96.433594 17.121094 L 89.265625 17.121094 L 89.265625 20.074219 C 89.265625 20.101562 89.25 20.117188 89.222656 20.117188 L 88.179688 20.117188 L 88.179688 21.074219 C 88.179688 21.101562 88.164062 21.113281 88.136719 21.113281 L 87.019531 21.113281 L 87.019531 22.078125 C 87.019531 22.105469 87.007812 22.121094 86.976562 22.121094 L 85.863281 22.121094 L 85.863281 23.078125 C 85.863281 23.105469 85.847656 23.121094 85.816406 23.121094 L 84.703125 23.121094 L 84.703125 24.074219 C 84.703125 24.101562 84.6875 24.117188 84.65625 24.117188 L 83.628906 24.117188 L 83.628906 25.03125 L 88.902344 25.03125 C 88.640625 24.804688 88.300781 24.660156 87.890625 24.601562 C 87.257812 24.511719 86.671875 24.65625 86.445312 24.71875 C 86.417969 24.726562 86.398438 24.71875 86.390625 24.691406 C 86.382812 24.664062 86.394531 24.644531 86.421875 24.636719 C 86.652344 24.570312 87.253906 24.425781 87.898438 24.519531 C 88.109375 24.546875 88.3125 24.601562 88.503906 24.683594 C 87.972656 24.308594 87.292969 24.070312 86.742188 24.191406 C 86.714844 24.195312 86.695312 24.183594 86.691406 24.15625 C 86.683594 24.128906 86.695312 24.113281 86.722656 24.109375 C 87.269531 23.992188 88.082031 24.222656 88.699219 24.707031 C 88.125 24.066406 87.488281 23.714844 87.078125 23.699219 C 87.046875 23.699219 87.03125 23.6875 87.03125 23.660156 C 87.03125 23.628906 87.046875 23.617188 87.078125 23.617188 C 87.726562 23.636719 88.433594 24.257812 88.910156 24.84375 C 88.558594 24.234375 87.992188 23.421875 87.449219 23.230469 C 87.421875 23.21875 87.414062 23.199219 87.425781 23.175781 C 87.433594 23.152344 87.453125 23.140625 87.476562 23.148438 C 87.808594 23.265625 88.171875 23.597656 88.5625 24.140625 C 88.730469 24.371094 88.882812 24.609375 89.019531 24.855469 C 88.777344 24.167969 88.3125 23.035156 87.859375 22.785156 C 87.835938 22.773438 87.828125 22.753906 87.84375 22.726562 C 87.859375 22.703125 87.878906 22.699219 87.902344 22.710938 C 88.355469 22.960938 88.800781 23.996094 89.058594 24.695312 C 88.886719 23.917969 88.585938 22.71875 88.289062 22.375 C 88.269531 22.351562 88.273438 22.332031 88.296875 22.3125 C 88.316406 22.296875 88.339844 22.296875 88.355469 22.320312 C 88.664062 22.679688 88.96875 23.867188 89.136719 24.652344 C 89.0625 23.785156 88.917969 22.40625 88.738281 22.007812 C 88.730469 21.984375 88.738281 21.964844 88.761719 21.953125 C 88.789062 21.945312 88.808594 21.953125 88.820312 21.976562 C 88.980469 22.34375 89.113281 23.484375 89.195312 24.339844 L 89.195312 21.699219 C 89.191406 21.667969 89.207031 21.652344 89.238281 21.652344 C 89.273438 21.652344 89.285156 21.667969 89.285156 21.699219 L 89.285156 24.34375 C 89.367188 23.480469 89.5 22.347656 89.660156 21.980469 C 89.671875 21.957031 89.691406 21.949219 89.714844 21.957031 C 89.742188 21.96875 89.75 21.984375 89.738281 22.011719 C 89.566406 22.410156 89.417969 23.789062 89.339844 24.65625 C 89.480469 24.03125 89.699219 23.148438 89.9375 22.632812 C 89.949219 22.609375 89.960938 22.585938 89.972656 22.5625 C 90.011719 22.476562 90.0625 22.398438 90.121094 22.324219 C 90.140625 22.300781 90.160156 22.300781 90.183594 22.316406 C 90.207031 22.335938 90.207031 22.355469 90.191406 22.375 C 90.148438 22.429688 90.109375 22.484375 90.078125 22.542969 C 90.0625 22.570312 90.046875 22.605469 90.03125 22.636719 C 90.027344 22.640625 90.027344 22.644531 90.023438 22.648438 C 89.996094 22.710938 89.964844 22.78125 89.9375 22.855469 C 89.730469 23.375 89.542969 24.144531 89.421875 24.699219 C 89.566406 24.292969 89.738281 23.898438 89.9375 23.515625 C 89.964844 23.460938 89.992188 23.40625 90.023438 23.359375 C 90.199219 23.0625 90.386719 22.820312 90.574219 22.710938 C 90.601562 22.699219 90.621094 22.703125 90.636719 22.730469 C 90.648438 22.753906 90.644531 22.773438 90.617188 22.785156 C 90.414062 22.898438 90.210938 23.1875 90.023438 23.535156 C 89.996094 23.589844 89.964844 23.648438 89.9375 23.703125 C 89.753906 24.078125 89.59375 24.460938 89.457031 24.855469 C 89.597656 24.609375 89.75 24.371094 89.914062 24.140625 L 89.9375 24.109375 C 89.964844 24.070312 89.992188 24.03125 90.023438 23.996094 C 90.375 23.539062 90.703125 23.253906 91 23.148438 C 91.03125 23.136719 91.050781 23.144531 91.058594 23.175781 C 91.070312 23.203125 91.0625 23.222656 91.03125 23.230469 C 90.683594 23.351562 90.328125 23.726562 90.023438 24.140625 C 89.996094 24.179688 89.964844 24.21875 89.9375 24.261719 C 89.796875 24.457031 89.671875 24.660156 89.566406 24.839844 C 89.683594 24.699219 89.804688 24.5625 89.9375 24.433594 C 89.964844 24.40625 89.992188 24.375 90.023438 24.347656 C 90.441406 23.953125 90.9375 23.628906 91.402344 23.613281 C 91.429688 23.613281 91.445312 23.628906 91.445312 23.65625 C 91.445312 23.683594 91.429688 23.699219 91.402344 23.699219 C 91.046875 23.710938 90.523438 23.972656 90.019531 24.457031 C 89.992188 24.484375 89.960938 24.515625 89.933594 24.542969 C 89.882812 24.597656 89.832031 24.648438 89.785156 24.707031 C 89.832031 24.667969 89.882812 24.632812 89.933594 24.59375 C 89.960938 24.574219 89.988281 24.554688 90.019531 24.539062 C 90.597656 24.167969 91.28125 24.003906 91.757812 24.105469 C 91.785156 24.113281 91.796875 24.128906 91.789062 24.15625 C 91.785156 24.183594 91.765625 24.195312 91.738281 24.191406 C 91.203125 24.074219 90.546875 24.296875 90.019531 24.652344 C 90.003906 24.660156 89.988281 24.671875 89.972656 24.683594 C 89.988281 24.675781 90.003906 24.671875 90.019531 24.664062 C 90.199219 24.59375 90.386719 24.542969 90.578125 24.515625 C 91.226562 24.425781 91.828125 24.570312 92.058594 24.636719 C 92.085938 24.644531 92.09375 24.664062 92.085938 24.691406 C 92.078125 24.71875 92.058594 24.726562 92.03125 24.71875 C 91.410156 24.539062 90.632812 24.492188 90.015625 24.757812 C 89.988281 24.769531 89.957031 24.785156 89.929688 24.800781 C 89.804688 24.863281 89.6875 24.9375 89.578125 25.03125 L 93.191406 25.03125 L 93.191406 22.644531 C 93.191406 22.554688 93.203125 22.46875 93.222656 22.382812 C 93.230469 22.351562 93.238281 22.324219 93.246094 22.296875 C 93.328125 22.054688 93.476562 21.863281 93.695312 21.71875 C 93.910156 21.574219 94.148438 21.507812 94.410156 21.519531 C 94.675781 21.535156 94.90625 21.621094 95.105469 21.785156 C 95.304688 21.949219 95.433594 22.15625 95.492188 22.402344 C 95.5 22.433594 95.503906 22.460938 95.507812 22.492188 C 95.515625 22.539062 95.519531 22.589844 95.519531 22.640625 L 95.519531 25.027344 L 96.417969 25.027344 L 96.417969 17.121094 Z M 95.441406 25.027344 L 95.441406 22.640625 C 95.441406 22.585938 95.4375 22.53125 95.429688 22.476562 C 95.425781 22.449219 95.417969 22.417969 95.414062 22.390625 C 95.355469 22.167969 95.238281 21.980469 95.054688 21.832031 C 94.871094 21.6875 94.660156 21.605469 94.421875 21.59375 C 94.183594 21.585938 93.964844 21.640625 93.769531 21.769531 C 93.570312 21.898438 93.433594 22.074219 93.351562 22.289062 C 93.34375 22.320312 93.335938 22.34375 93.328125 22.375 C 93.304688 22.460938 93.292969 22.546875 93.292969 22.636719 L 93.292969 25.023438 Z M 101.414062 25.113281 L 89.503906 25.113281 C 89.445312 25.171875 89.390625 25.234375 89.34375 25.304688 L 89.335938 25.316406 C 89.316406 25.34375 89.300781 25.371094 89.285156 25.394531 L 89.242188 25.394531 C 89.226562 25.371094 89.210938 25.34375 89.195312 25.320312 L 89.183594 25.304688 C 89.136719 25.234375 89.082031 25.171875 89.023438 25.113281 L 83.628906 25.113281 L 83.628906 27.832031 L 101.417969 27.832031 Z M 101.414062 13.484375 C 101.417969 8.734375 97.425781 4.867188 92.519531 4.867188 C 87.617188 4.867188 83.628906 8.734375 83.628906 13.488281 L 83.628906 24.03125 L 84.617188 24.03125 L 84.617188 23.074219 C 84.617188 23.046875 84.632812 23.03125 84.660156 23.03125 L 85.773438 23.03125 L 85.773438 22.078125 C 85.773438 22.050781 85.789062 22.035156 85.816406 22.035156 L 86.933594 22.035156 L 86.933594 21.078125 C 86.933594 21.046875 86.949219 21.035156 86.976562 21.035156 L 88.09375 21.035156 L 88.09375 20.078125 C 88.09375 20.050781 88.109375 20.035156 88.136719 20.035156 L 89.179688 20.035156 L 89.179688 17.082031 C 89.179688 17.054688 89.191406 17.042969 89.222656 17.042969 L 96.476562 17.042969 C 96.507812 17.042969 96.519531 17.054688 96.519531 17.082031 L 96.519531 22.542969 C 97.117188 22.636719 97.703125 22.765625 98.28125 22.929688 C 98.464844 19.90625 97.769531 17.507812 97.152344 16.023438 C 96.5 14.464844 95.804688 13.570312 95.75 13.5 L 95.632812 13.480469 L 95.570312 13.738281 C 95.566406 13.761719 95.550781 13.769531 95.527344 13.769531 L 95.515625 13.769531 C 95.488281 13.765625 95.480469 13.746094 95.484375 13.71875 L 95.546875 13.46875 C 95.464844 13.457031 95.371094 13.445312 95.269531 13.4375 L 95.136719 13.980469 C 95.132812 14.003906 95.117188 14.015625 95.09375 14.015625 L 95.085938 14.015625 C 95.054688 14.007812 95.046875 13.992188 95.050781 13.964844 L 95.179688 13.429688 C 95.09375 13.425781 95 13.417969 94.898438 13.417969 L 94.703125 14.222656 C 94.699219 14.246094 94.683594 14.253906 94.660156 14.257812 L 94.652344 14.257812 C 94.625 14.25 94.613281 14.234375 94.621094 14.203125 L 94.8125 13.414062 C 94.71875 13.414062 94.625 13.414062 94.527344 13.417969 L 94.273438 14.464844 C 94.265625 14.488281 94.253906 14.5 94.230469 14.5 L 94.21875 14.5 C 94.191406 14.492188 94.179688 14.476562 94.1875 14.449219 L 94.433594 13.417969 C 94.339844 13.425781 94.242188 13.433594 94.144531 13.445312 L 93.839844 14.707031 C 93.832031 14.726562 93.820312 14.738281 93.796875 14.738281 L 93.785156 14.738281 C 93.757812 14.734375 93.746094 14.714844 93.753906 14.6875 L 94.050781 13.460938 C 93.953125 13.472656 93.851562 13.492188 93.753906 13.515625 L 93.40625 14.949219 C 93.402344 14.972656 93.386719 14.980469 93.363281 14.984375 L 93.355469 14.984375 C 93.324219 14.976562 93.316406 14.960938 93.320312 14.929688 L 93.660156 13.535156 C 93.554688 13.5625 93.453125 13.589844 93.351562 13.628906 L 92.972656 15.191406 C 92.96875 15.214844 92.953125 15.226562 92.929688 15.226562 L 92.921875 15.226562 C 92.894531 15.21875 92.882812 15.203125 92.886719 15.175781 L 93.253906 13.664062 C 93.179688 13.695312 93.105469 13.726562 93.03125 13.761719 C 93 13.777344 92.964844 13.792969 92.933594 13.8125 L 92.542969 15.4375 C 92.535156 15.460938 92.519531 15.472656 92.5 15.472656 L 92.488281 15.472656 C 92.460938 15.464844 92.449219 15.449219 92.457031 15.421875 L 92.828125 13.875 C 92.703125 13.953125 92.585938 14.042969 92.480469 14.140625 L 92.109375 15.679688 C 92.101562 15.703125 92.089844 15.714844 92.066406 15.714844 L 92.054688 15.714844 C 92.027344 15.707031 92.015625 15.691406 92.023438 15.664062 L 92.363281 14.265625 C 91.746094 14.945312 91.765625 15.816406 91.765625 15.828125 C 91.765625 15.855469 91.753906 15.871094 91.722656 15.871094 C 91.695312 15.871094 91.679688 15.859375 91.679688 15.832031 C 91.679688 15.816406 91.644531 14.347656 92.996094 13.691406 C 94.132812 13.136719 95.554688 13.382812 95.84375 13.441406 C 95.898438 13.429688 95.972656 13.414062 96.0625 13.402344 C 96.0625 13.402344 96.0625 13.402344 96.066406 13.402344 C 96.070312 13.402344 96.074219 13.402344 96.078125 13.402344 C 96.574219 13.328125 97.070312 13.320312 97.566406 13.378906 L 97.582031 13.378906 C 97.964844 13.421875 98.332031 13.527344 98.683594 13.691406 C 100.03125 14.347656 99.996094 15.816406 99.996094 15.832031 C 99.996094 15.859375 99.980469 15.875 99.953125 15.875 C 99.925781 15.871094 99.910156 15.859375 99.910156 15.828125 C 99.910156 15.820312 99.929688 14.945312 99.316406 14.265625 L 99.652344 15.664062 C 99.660156 15.691406 99.648438 15.707031 99.621094 15.714844 L 99.609375 15.714844 C 99.589844 15.714844 99.574219 15.703125 99.566406 15.679688 L 99.195312 14.144531 C 99.089844 14.042969 98.972656 13.953125 98.847656 13.878906 L 99.222656 15.414062 C 99.226562 15.441406 99.21875 15.457031 99.1875 15.464844 L 99.179688 15.464844 C 99.15625 15.464844 99.140625 15.453125 99.136719 15.429688 L 98.742188 13.808594 C 98.710938 13.789062 98.679688 13.773438 98.644531 13.753906 C 98.574219 13.71875 98.5 13.6875 98.421875 13.65625 L 98.789062 15.167969 C 98.792969 15.195312 98.785156 15.210938 98.757812 15.21875 L 98.746094 15.21875 C 98.722656 15.21875 98.707031 15.207031 98.703125 15.1875 L 98.324219 13.621094 C 98.222656 13.585938 98.121094 13.554688 98.019531 13.53125 L 98.355469 14.925781 C 98.363281 14.953125 98.351562 14.96875 98.324219 14.976562 L 98.3125 14.976562 C 98.289062 14.976562 98.277344 14.964844 98.269531 14.941406 L 97.921875 13.507812 C 97.824219 13.484375 97.726562 13.46875 97.625 13.453125 L 97.921875 14.679688 C 97.929688 14.707031 97.917969 14.726562 97.890625 14.730469 L 97.878906 14.730469 C 97.859375 14.730469 97.84375 14.71875 97.839844 14.699219 L 97.535156 13.441406 C 97.4375 13.429688 97.339844 13.421875 97.242188 13.414062 L 97.492188 14.4375 C 97.496094 14.464844 97.488281 14.480469 97.457031 14.488281 L 97.449219 14.488281 C 97.425781 14.488281 97.410156 14.476562 97.40625 14.453125 L 97.15625 13.417969 C 97.058594 13.414062 96.960938 13.414062 96.871094 13.414062 L 97.058594 14.203125 C 97.066406 14.230469 97.054688 14.25 97.027344 14.253906 L 97.015625 14.253906 C 96.996094 14.253906 96.980469 14.242188 96.976562 14.222656 L 96.78125 13.417969 C 96.683594 13.421875 96.589844 13.425781 96.5 13.433594 L 96.628906 13.964844 C 96.632812 13.992188 96.625 14.007812 96.59375 14.015625 L 96.585938 14.015625 C 96.5625 14.015625 96.546875 14.003906 96.542969 13.980469 L 96.410156 13.441406 C 96.308594 13.449219 96.214844 13.460938 96.132812 13.472656 L 96.195312 13.722656 C 96.199219 13.75 96.191406 13.765625 96.160156 13.773438 L 96.152344 13.773438 C 99.148438 16.820312 99.472656 21.007812 99.386719 23.292969 C 100.101562 23.5625 100.777344 23.898438 101.417969 24.304688 Z M 101.414062 13.484375 " fill-opacity="1" fill-rule="nonzero"/></g><g fill="#ff8c00" fill-opacity="1"><g transform="translate(85.066439, 4.670138)"><g><path d="M 0.921875 -2.515625 L 0.328125 -2.328125 L 0.96875 -0.3125 L 0.6875 -0.21875 L 0.046875 -2.234375 L -0.546875 -2.046875 L -0.609375 -2.28125 L 0.859375 -2.75 Z M 0.921875 -2.515625 "/></g></g></g><g fill="#ff8c00" fill-opacity="1"><g transform="translate(87.767444, 3.884269)"><g><path d="M 1.59375 -1.265625 C 1.65625 -0.953125 1.628906 -0.695312 1.515625 -0.5 C 1.410156 -0.300781 1.234375 -0.179688 0.984375 -0.140625 C 0.742188 -0.0976562 0.539062 -0.144531 0.375 -0.28125 C 0.21875 -0.425781 0.109375 -0.648438 0.046875 -0.953125 L -0.03125 -1.40625 C -0.0820312 -1.707031 -0.0546875 -1.960938 0.046875 -2.171875 C 0.148438 -2.378906 0.328125 -2.503906 0.578125 -2.546875 C 0.828125 -2.585938 1.03125 -2.535156 1.1875 -2.390625 C 1.351562 -2.242188 1.46875 -2.015625 1.53125 -1.703125 Z M 1.25 -1.640625 C 1.207031 -1.878906 1.132812 -2.050781 1.03125 -2.15625 C 0.925781 -2.257812 0.789062 -2.296875 0.625 -2.265625 C 0.457031 -2.234375 0.34375 -2.148438 0.28125 -2.015625 C 0.226562 -1.890625 0.222656 -1.710938 0.265625 -1.484375 L 0.328125 -1.046875 C 0.367188 -0.804688 0.4375 -0.628906 0.53125 -0.515625 C 0.632812 -0.410156 0.769531 -0.375 0.9375 -0.40625 C 1.101562 -0.4375 1.21875 -0.507812 1.28125 -0.625 C 1.34375 -0.75 1.359375 -0.941406 1.328125 -1.203125 Z M 1.25 -1.640625 "/></g></g></g><g fill="#ff8c00" fill-opacity="1"><g transform="translate(90.810299, 3.431118)"><g><path d="M 1.578125 -2.421875 L 1.640625 -0.75 C 1.640625 -0.519531 1.578125 -0.335938 1.453125 -0.203125 C 1.335938 -0.078125 1.164062 -0.0078125 0.9375 0 C 0.695312 0.0078125 0.515625 -0.046875 0.390625 -0.171875 C 0.265625 -0.296875 0.195312 -0.472656 0.1875 -0.703125 L 0.125 -2.375 L 0.40625 -2.375 L 0.46875 -0.71875 C 0.476562 -0.550781 0.515625 -0.429688 0.578125 -0.359375 C 0.648438 -0.285156 0.765625 -0.25 0.921875 -0.25 C 1.066406 -0.257812 1.171875 -0.300781 1.234375 -0.375 C 1.304688 -0.457031 1.335938 -0.582031 1.328125 -0.75 L 1.265625 -2.40625 Z M 1.578125 -2.421875 "/></g></g></g><g fill="#ff8c00" fill-opacity="1"><g transform="translate(93.761408, 3.394524)"><g><path d="M 1.0625 -0.859375 L 0.640625 -0.90625 L 0.546875 0.046875 L 0.25 0.015625 L 0.46875 -2.328125 L 1.140625 -2.265625 C 1.367188 -2.234375 1.535156 -2.148438 1.640625 -2.015625 C 1.753906 -1.890625 1.800781 -1.71875 1.78125 -1.5 C 1.769531 -1.351562 1.726562 -1.226562 1.65625 -1.125 C 1.582031 -1.019531 1.476562 -0.953125 1.34375 -0.921875 L 1.71875 0.140625 L 1.71875 0.15625 L 1.390625 0.125 Z M 0.65625 -1.171875 L 1.03125 -1.140625 C 1.15625 -1.117188 1.257812 -1.144531 1.34375 -1.21875 C 1.425781 -1.289062 1.472656 -1.394531 1.484375 -1.53125 C 1.515625 -1.820312 1.390625 -1.984375 1.109375 -2.015625 L 0.75 -2.046875 Z M 0.65625 -1.171875 "/></g></g></g><g fill="#ff8c00" fill-opacity="1"><g transform="translate(96.593694, 3.729754)"><g><path d="M 1.375 -0.296875 C 1.40625 -0.421875 1.394531 -0.519531 1.34375 -0.59375 C 1.300781 -0.664062 1.203125 -0.75 1.046875 -0.84375 C 0.898438 -0.9375 0.789062 -1.023438 0.71875 -1.109375 C 0.644531 -1.191406 0.597656 -1.28125 0.578125 -1.375 C 0.554688 -1.46875 0.5625 -1.5625 0.59375 -1.65625 C 0.625 -1.84375 0.710938 -1.984375 0.859375 -2.078125 C 1.015625 -2.171875 1.191406 -2.195312 1.390625 -2.15625 C 1.523438 -2.125 1.632812 -2.066406 1.71875 -1.984375 C 1.8125 -1.898438 1.875 -1.796875 1.90625 -1.671875 C 1.945312 -1.546875 1.957031 -1.421875 1.9375 -1.296875 L 1.625 -1.359375 C 1.65625 -1.503906 1.644531 -1.625 1.59375 -1.71875 C 1.539062 -1.8125 1.453125 -1.875 1.328125 -1.90625 C 1.210938 -1.925781 1.113281 -1.910156 1.03125 -1.859375 C 0.945312 -1.804688 0.894531 -1.722656 0.875 -1.609375 C 0.851562 -1.515625 0.867188 -1.425781 0.921875 -1.34375 C 0.984375 -1.257812 1.082031 -1.175781 1.21875 -1.09375 C 1.414062 -0.96875 1.550781 -0.835938 1.625 -0.703125 C 1.707031 -0.578125 1.726562 -0.421875 1.6875 -0.234375 C 1.644531 -0.0546875 1.550781 0.0703125 1.40625 0.15625 C 1.257812 0.25 1.082031 0.269531 0.875 0.21875 C 0.738281 0.195312 0.617188 0.144531 0.515625 0.0625 C 0.410156 -0.0195312 0.335938 -0.117188 0.296875 -0.234375 C 0.265625 -0.359375 0.265625 -0.492188 0.296875 -0.640625 L 0.578125 -0.578125 C 0.546875 -0.429688 0.5625 -0.304688 0.625 -0.203125 C 0.6875 -0.109375 0.785156 -0.0507812 0.921875 -0.03125 C 1.046875 0 1.144531 -0.00390625 1.21875 -0.046875 C 1.300781 -0.0976562 1.351562 -0.179688 1.375 -0.296875 Z M 1.375 -0.296875 "/></g></g></g><g fill="#ff8c00" fill-opacity="1"><g transform="translate(99.336923, 4.430685)"><g/></g></g><g fill="#ff8c00" fill-opacity="1"><g transform="translate(51.346283, 18.240806)"><g><path d="M 0.21875 -0.0742188 L 0.21875 0 L 2.191406 0 L 2.191406 -0.0742188 C 1.5625 -0.0742188 1.519531 -0.59375 1.519531 -2.03125 L 1.519531 -5.007812 C 1.871094 -5.132812 2.28125 -5.21875 2.652344 -5.21875 C 3.152344 -5.21875 4.296875 -5.175781 4.296875 -3.539062 C 4.296875 -3.539062 4.304688 -2.25 4.304688 -2.03125 C 4.304688 -0.59375 4.261719 -0.0742188 3.632812 -0.0742188 L 3.632812 0 L 5.605469 0 L 5.605469 -0.0742188 C 4.976562 -0.0742188 4.933594 -0.59375 4.933594 -2.03125 L 4.933594 -3.691406 C 4.933594 -5.226562 3.632812 -5.320312 2.984375 -5.320312 C 2.660156 -5.320312 1.785156 -5.199219 1.519531 -5.199219 L 1.519531 -7.308594 L 0.21875 -7.308594 L 0.21875 -7.238281 C 0.847656 -7.238281 0.890625 -6.71875 0.890625 -5.277344 L 0.890625 -2.03125 C 0.890625 -0.59375 0.847656 -0.0742188 0.21875 -0.0742188 Z M 0.21875 -0.0742188 "/></g></g></g><g fill="#ff8c00" fill-opacity="1"><g transform="translate(57.099291, 18.240806)"><g><path d="M 0.4375 -1.476562 C 0.4375 -0.535156 1.125 0.144531 2.070312 0.144531 C 3.347656 0.144531 3.832031 -0.898438 4.09375 -2.15625 L 4.09375 -0.90625 C 4.09375 -0.359375 4.402344 0 4.789062 0 L 5.308594 0 L 5.308594 -0.0742188 C 5.109375 -0.0742188 4.75 -0.203125 4.75 -0.820312 C 4.75 -1.59375 4.746094 -1.703125 4.746094 -2.355469 C 4.746094 -2.9375 4.679688 -3.496094 4.144531 -3.496094 C 4.027344 -3.496094 3.949219 -3.4375 3.949219 -3.390625 C 4.058594 -3.363281 4.070312 -3.195312 4.070312 -3.035156 C 4.070312 -0.90625 3.070312 -0.09375 2.28125 -0.09375 C 1.5625 -0.09375 1.082031 -0.671875 1.082031 -1.433594 C 1.082031 -4.289062 4.757812 -3.222656 4.757812 -4.402344 C 4.757812 -4.976562 3.683594 -5.320312 2.859375 -5.320312 C 1.710938 -5.320312 0.847656 -4.949219 0.847656 -4.226562 C 0.847656 -3.910156 1.058594 -3.640625 1.375 -3.640625 C 1.617188 -3.640625 1.855469 -3.84375 1.785156 -4.0625 C 1.71875 -4 1.492188 -4.121094 1.492188 -4.402344 C 1.492188 -5.007812 2.164062 -5.25 2.859375 -5.25 C 3.449219 -5.25 4.136719 -5.007812 4.136719 -4.414062 C 4.136719 -3.210938 0.4375 -4.050781 0.4375 -1.476562 Z M 0.4375 -1.476562 "/></g></g></g><g fill="#ff8c00" fill-opacity="1"><g transform="translate(62.552586, 18.240806)"><g><path d="M 0.144531 -5.101562 C 0.773438 -5.101562 0.820312 -4.582031 0.820312 -3.144531 L 0.820312 1 C 0.820312 2.441406 0.773438 2.960938 0.144531 2.960938 L 0.144531 3.035156 L 2.121094 3.035156 L 2.121094 2.960938 C 1.492188 2.960938 1.449219 2.441406 1.449219 1 L 1.449219 -0.117188 C 1.9375 0 2.0625 0 2.433594 0 C 4.121094 0 5.367188 -1.109375 5.367188 -3.054688 C 5.367188 -4.460938 4.445312 -5.320312 3.222656 -5.320312 C 2.5 -5.320312 1.886719 -4.976562 1.449219 -4.320312 L 1.449219 -5.175781 L 0.144531 -5.175781 Z M 1.449219 -3.195312 C 1.449219 -4.632812 2.15625 -5.144531 2.910156 -5.144531 C 3.773438 -5.144531 4.730469 -4.546875 4.730469 -2.902344 C 4.730469 -1.234375 3.597656 -0.0742188 2.347656 -0.0742188 C 1.996094 -0.0742188 1.679688 -0.160156 1.449219 -0.285156 Z M 1.449219 -3.195312 "/></g></g></g><g fill="#ff8c00" fill-opacity="1"><g transform="translate(68.356764, 18.240806)"><g><path d="M 0.144531 -5.101562 C 0.773438 -5.101562 0.820312 -4.582031 0.820312 -3.144531 L 0.820312 1 C 0.820312 2.441406 0.773438 2.960938 0.144531 2.960938 L 0.144531 3.035156 L 2.121094 3.035156 L 2.121094 2.960938 C 1.492188 2.960938 1.449219 2.441406 1.449219 1 L 1.449219 -0.117188 C 1.9375 0 2.0625 0 2.433594 0 C 4.121094 0 5.367188 -1.109375 5.367188 -3.054688 C 5.367188 -4.460938 4.445312 -5.320312 3.222656 -5.320312 C 2.5 -5.320312 1.886719 -4.976562 1.449219 -4.320312 L 1.449219 -5.175781 L 0.144531 -5.175781 Z M 1.449219 -3.195312 C 1.449219 -4.632812 2.15625 -5.144531 2.910156 -5.144531 C 3.773438 -5.144531 4.730469 -4.546875 4.730469 -2.902344 C 4.730469 -1.234375 3.597656 -0.0742188 2.347656 -0.0742188 C 1.996094 -0.0742188 1.679688 -0.160156 1.449219 -0.285156 Z M 1.449219 -3.195312 "/></g></g></g><g fill="#ff8c00" fill-opacity="1"><g transform="translate(74.160942, 18.240806)"><g><path d="M 0 -5.101562 L 0.175781 -5.101562 C 0.703125 -5.101562 0.878906 -4.503906 1.015625 -4.058594 C 1.324219 -3.070312 1.550781 -2.28125 1.9375 -1.074219 C 2.28125 -0.015625 2.757812 0.140625 2.945312 0.144531 C 2.582031 1.335938 1.257812 2.960938 0.367188 2.960938 L 0.367188 3.035156 L 1.351562 3.035156 C 2.011719 3.035156 2.835938 0.710938 3.035156 0.144531 C 3.507812 -1.34375 3.867188 -2.527344 4.226562 -3.675781 C 4.363281 -4.121094 4.722656 -5.101562 5.226562 -5.101562 L 5.351562 -5.101562 L 5.351562 -5.175781 L 3.429688 -5.175781 L 3.429688 -5.101562 L 3.589844 -5.101562 C 4.40625 -5.101562 4.253906 -4.101562 4.085938 -3.515625 C 3.816406 -2.585938 3.5 -1.609375 3.128906 -0.4375 C 2.917969 -0.46875 2.726562 -0.664062 2.59375 -1.074219 C 2.140625 -2.492188 1.902344 -3.332031 1.511719 -4.589844 C 1.425781 -4.875 1.226562 -5.175781 0.898438 -5.175781 L 0 -5.175781 Z M 0 -5.101562 "/></g></g></g></svg>